<svg width="43" height="36" viewBox="0 0 43 36" fill="none" xmlns="http://www.w3.org/2000/svg">
<g clip-path="url(#clip0_160_2337)">
<path d="M38.2581 0.563782H4.74265C2.43622 0.563782 0.571289 2.4055 0.571289 4.68322V23.3786C0.571289 25.6563 2.43622 27.498 4.74265 27.498H14.3718C14.8742 27.498 15.3537 27.7235 15.6582 28.1144L21.4966 35.4362L27.4568 28.0994C27.7688 27.716 28.2408 27.4905 28.7356 27.4905H38.2505C40.5569 27.4905 42.4219 25.6488 42.4219 23.3711V4.68322C42.4219 2.4055 40.5569 0.563782 38.2505 0.563782H38.2581Z" stroke="white" strokeWidth="1.5" stroke-linecap="round" stroke-linejoin="round"/>
<path d="M10.0175 17.8534C12.3128 17.8534 14.1736 16.0158 14.1736 13.749C14.1736 11.4822 12.3128 9.64459 10.0175 9.64459C7.72209 9.64459 5.86133 11.4822 5.86133 13.749C5.86133 16.0158 7.72209 17.8534 10.0175 17.8534Z" stroke="white" strokeWidth="1.5" stroke-linecap="round" stroke-linejoin="round"/>
<path d="M21.496 17.8534C23.7913 17.8534 25.6521 16.0158 25.6521 13.749C25.6521 11.4822 23.7913 9.64459 21.496 9.64459C19.2006 9.64459 17.3398 11.4822 17.3398 13.749C17.3398 16.0158 19.2006 17.8534 21.496 17.8534Z" stroke="white" strokeWidth="1.5" stroke-linecap="round" stroke-linejoin="round"/>
<path d="M32.9823 17.8534C35.2777 17.8534 37.1384 16.0158 37.1384 13.749C37.1384 11.4822 35.2777 9.64459 32.9823 9.64459C30.6869 9.64459 28.8262 11.4822 28.8262 13.749C28.8262 16.0158 30.6869 17.8534 32.9823 17.8534Z" stroke="white" strokeWidth="1.5" stroke-linecap="round" stroke-linejoin="round"/>
</g>
<defs>
<clipPath id="clip0_160_2337">
<rect width="43" height="36" fill="white"/>
</clipPath>
</defs>
</svg>
