<svg width="29" height="41" viewBox="0 0 29 41" fill="none" xmlns="http://www.w3.org/2000/svg">
<g clip-path="url(#clip0_160_2331)">
<path d="M27.9 14.32C27.9 6.83 21.82 0.75 14.32 0.75C6.82 0.75 0.75 6.83 0.75 14.32C0.75 15.94 1.03 17.49 1.55 18.93C1.78 19.55 2.05 20.15 2.36 20.73V20.75C2.68 21.32 3.03 21.87 3.41 22.38L14.32 39.52L25.23 22.38C25.62 21.86 25.97 21.31 26.27 20.74V20.72H26.28C26.59 20.14 26.86 19.54 27.09 18.92C27.61 17.48 27.89 15.93 27.89 14.31L27.9 14.32Z" stroke="white" stroke-width="1.5" stroke-linecap="round" stroke-linejoin="round"/>
<path d="M14.2701 21.21C18.0809 21.21 21.1701 18.1208 21.1701 14.31C21.1701 10.4993 18.0809 7.41003 14.2701 7.41003C10.4594 7.41003 7.37012 10.4993 7.37012 14.31C7.37012 18.1208 10.4594 21.21 14.2701 21.21Z" stroke="white" stroke-width="1.5" stroke-linecap="round" stroke-linejoin="round"/>
</g>
<defs>
<clipPath id="clip0_160_2331">
<rect width="28.65" height="40.28" fill="white"/>
</clipPath>
</defs>
</svg>
