<svg width="27" height="30" viewBox="0 0 27 30" fill="none" xmlns="http://www.w3.org/2000/svg">
<path fill-rule="evenodd" clip-rule="evenodd" d="M0.636589 16.7626C0.796406 18.1357 1.17049 19.4155 1.71743 20.582C2.84682 22.9929 4.71489 24.9114 6.95827 26.1487C9.20044 27.3872 11.8179 27.9468 14.446 27.6411C15.5174 27.5171 16.5911 27.2479 17.6436 26.8241L16.9605 28.7875C16.9085 28.9374 16.989 29.1015 17.1393 29.1535C17.2896 29.2054 17.4542 29.1251 17.5063 28.9752L18.4013 26.399C18.4273 26.3294 18.4273 26.2491 18.393 26.1759C18.3575 26.1003 18.2923 26.0472 18.2189 26.0236L15.6346 25.1299C15.4843 25.0779 15.3197 25.1582 15.2677 25.3081C15.2156 25.4581 15.2961 25.6222 15.4464 25.6741L17.3335 26.327C16.3615 26.7096 15.3707 26.9528 14.3798 27.0673C11.8713 27.3589 9.37443 26.8253 7.23664 25.6446C5.09863 24.464 3.31805 22.6364 2.24097 20.3375C1.72128 19.2289 1.36612 18.0082 1.21223 16.6964C1.19447 16.5382 1.05004 16.4249 0.891408 16.4426C0.732774 16.4615 0.61883 16.6044 0.636589 16.7626ZM25.1691 12.7566C24.4718 9.44134 22.5055 6.72235 19.8868 4.98808C17.4279 3.35999 14.3938 2.59728 11.2944 3.02232L12.4367 1.28324C12.5243 1.14983 12.4865 0.970361 12.3527 0.883013C12.2189 0.795665 12.039 0.833427 11.9514 0.966837L10.4491 3.25491C10.3615 3.38832 10.3994 3.56779 10.5332 3.65514L12.8274 5.15336C12.9612 5.24073 13.1412 5.20295 13.2287 5.06954C13.3163 4.93612 13.2785 4.75665 13.1447 4.66931L11.4778 3.58075C14.3972 3.20648 17.2503 3.93495 19.5681 5.46977C22.0648 7.12385 23.9388 9.71538 24.604 12.8747C24.636 13.0306 24.7899 13.1309 24.9462 13.0979C25.1013 13.0648 25.2011 12.9125 25.1691 12.7566ZM19.9768 25.1498C19.9661 25.151 19.9555 25.151 19.9448 25.1498C19.8276 25.1439 19.7305 25.0719 19.6879 24.9704C19.4914 24.5666 19.3328 24.1404 19.2203 23.6988C19.1102 23.2703 19.0415 22.8216 19.0167 22.3576C19.0155 22.3458 19.0143 22.3328 19.0143 22.321C18.9302 20.5194 19.5541 18.8522 20.6326 17.6151C21.7134 16.3766 23.2477 15.5655 24.9842 15.4734C24.9973 15.4723 25.0103 15.4711 25.0233 15.4711L25.1097 15.4675C25.1381 15.4664 25.1725 15.4652 25.2104 15.4652C25.3205 15.464 25.427 15.5242 25.4779 15.6293C25.6792 16.0378 25.839 16.4687 25.9538 16.9162C26.0639 17.3448 26.1326 17.7922 26.1574 18.2574C26.1586 18.2692 26.1598 18.2822 26.1598 18.294C26.2438 20.0956 25.62 21.7616 24.5415 22.9999C23.4607 24.2384 21.9264 25.0495 20.1898 25.1416C20.1768 25.1427 20.1638 25.1439 20.1508 25.1439C20.1271 25.1451 20.0987 25.1463 20.0644 25.1475C20.0383 25.1487 20.0099 25.1486 19.9768 25.1498ZM19.8276 23.6953C19.9874 22.9845 20.2656 22.2218 20.6811 21.4922C21.2091 20.5607 21.9609 19.6811 22.9695 19.0282C23.1056 18.9409 23.2868 18.9786 23.3755 19.1144C23.4631 19.2502 23.4253 19.4308 23.2891 19.5182C22.3669 20.1144 21.6779 20.9231 21.1914 21.7803C20.6586 22.7189 20.3686 23.7118 20.2786 24.5501C21.7998 24.4379 23.1447 23.7118 24.0987 22.6174C25.086 21.4851 25.6555 19.9598 25.575 18.308L25.5738 18.2938H25.5726V18.2867C25.5501 17.8664 25.4862 17.4568 25.3856 17.0601C25.2956 16.7094 25.1772 16.3741 25.0339 16.0565H25.0197C23.4488 16.1392 22.0578 16.8735 21.0775 17.9963C20.0902 19.1286 19.5208 20.6539 19.6013 22.3057L19.6024 22.3199H19.6036V22.327C19.6261 22.7473 19.6901 23.1569 19.7907 23.5536C19.8013 23.602 19.8146 23.6492 19.8276 23.6953Z" fill="white"/>
</svg>
