<svg width="32" height="22" viewBox="0 0 32 22" fill="none" xmlns="http://www.w3.org/2000/svg">
<path d="M31.7758 7.59317L27.7172 0.360908C27.6658 0.269464 27.5834 0.203407 27.4875 0.176864C27.3917 0.150321 27.29 0.1654 27.2043 0.218876L23.1211 2.77014C22.0707 3.24802 20.9493 3.07477 19.5307 2.85772C18.8929 2.75986 18.2332 2.65819 17.4951 2.60107C15.728 2.46361 14.5657 3.52295 13.6332 4.83818C12.8927 4.45546 12.1254 4.13639 11.3385 3.88393C10.5319 3.64431 9.7548 3.30093 9.02378 2.86115L9.00935 2.85163L4.9043 0.287798C4.81794 0.233971 4.71545 0.219136 4.61905 0.246507C4.52265 0.273879 4.44011 0.341252 4.38932 0.43402L0.218799 8.04973C0.193316 8.09634 0.176622 8.14796 0.169679 8.2016C0.162736 8.25523 0.165682 8.30982 0.178347 8.36222C0.191013 8.41461 0.213146 8.46378 0.24347 8.50687C0.273794 8.54996 0.311708 8.58613 0.355023 8.61329L4.45268 11.1699C4.8975 11.4882 5.30565 11.8627 5.66849 12.2856C5.81211 12.4436 5.9501 12.5963 6.10286 12.7425L5.73678 13.3632C5.5647 13.6517 5.47177 13.9871 5.46878 14.3304C5.46578 14.6737 5.55283 15.0109 5.71984 15.3029C5.88685 15.5949 6.12697 15.8296 6.41233 15.9799C6.69769 16.1302 7.0166 16.1899 7.33206 16.1521C7.27196 16.5064 7.31125 16.8721 7.44486 17.2021C7.57848 17.5321 7.80031 17.8113 8.08182 18.0038C8.35147 18.1874 8.66366 18.2845 8.98224 18.2841C9.04269 18.2839 9.10308 18.2802 9.16317 18.2731C9.09628 18.6339 9.13166 19.0082 9.26469 19.347C9.39771 19.6858 9.62218 19.9732 9.90871 20.1716C10.1772 20.3579 10.4895 20.4569 10.8084 20.4569C10.9324 20.4568 11.056 20.4421 11.177 20.4131C11.6046 20.3126 11.9787 20.0346 12.2189 19.6389C12.3358 19.9226 12.5178 20.1692 12.7476 20.3553C12.9775 20.5414 13.2475 20.6608 13.532 20.7021C13.8166 20.7433 14.1062 20.7052 14.3732 20.5912C14.6403 20.4773 14.876 20.2913 15.0578 20.0509L17.1033 21.4629C17.4426 21.7001 17.8373 21.8277 18.2413 21.8307C18.3297 21.8307 18.418 21.8242 18.5057 21.8113C18.7406 21.7823 18.9668 21.6976 19.168 21.5633C19.3693 21.429 19.5407 21.2483 19.6701 21.0341C19.8818 20.6689 19.9584 20.2309 19.8848 19.8072C20.2348 19.9179 20.6082 19.9069 20.9521 19.7756C21.296 19.6444 21.5931 19.3995 21.8015 19.0757C22.0196 18.7023 22.0953 18.2518 22.0127 17.8192C22.3558 17.9157 22.718 17.8959 23.0504 17.7624C23.3827 17.6289 23.6691 17.3882 23.8709 17.0728C24.0672 16.7454 24.1602 16.3579 24.1359 15.9685C24.4822 16.1003 24.8553 16.1267 25.2145 16.0447C25.4242 16.0009 25.6234 15.9111 25.7998 15.7809C25.9763 15.6508 26.1263 15.4829 26.2406 15.2877C26.3548 15.0925 26.431 14.8741 26.4643 14.6459C26.4977 14.4177 26.4875 14.1845 26.4345 13.9607C26.3377 13.5206 26.1161 13.1243 25.8009 12.8271C26.1069 12.5092 26.3804 12.1568 26.6168 11.7757C26.8471 11.361 27.1563 11.004 27.5239 10.7286L27.5384 10.7198L31.6434 8.15597C31.6871 8.12873 31.7253 8.09233 31.7558 8.04889C31.7862 8.00545 31.8084 7.95586 31.8209 7.90303C31.8334 7.8502 31.836 7.7952 31.8285 7.74127C31.8211 7.68733 31.8038 7.63555 31.7775 7.58898L31.7758 7.59317ZM4.84974 1.1994L6.86002 2.45599L3.0753 9.36534L1.06501 8.10875L4.84974 1.1994ZM6.65586 15.186C6.44969 15.0422 6.30441 14.816 6.25167 14.5569C6.19892 14.2977 6.24299 14.0265 6.37426 13.8023L7.68687 11.5766C7.75216 11.4656 7.83714 11.3698 7.93689 11.2946C8.03665 11.2195 8.1492 11.1664 8.26803 11.1387C8.33498 11.1228 8.4033 11.1148 8.47184 11.1147C8.64651 11.1148 8.81751 11.1689 8.96464 11.2708C9.17133 11.4142 9.31703 11.6403 9.36982 11.8997C9.42261 12.1591 9.37817 12.4306 9.24624 12.6546L7.93504 14.8814C7.80207 15.1044 7.59302 15.2616 7.35343 15.3186C7.11384 15.3757 6.86311 15.328 6.65586 15.186ZM8.48627 17.31C8.38441 17.2407 8.29629 17.1502 8.22704 17.0438C8.15779 16.9373 8.10879 16.817 8.08288 16.6899C8.05698 16.5628 8.05468 16.4314 8.07613 16.3033C8.09758 16.1752 8.14235 16.053 8.20784 15.9438L10.3772 12.324C10.5128 12.0997 10.7243 11.9417 10.9663 11.8839C11.2083 11.8262 11.4616 11.8733 11.6719 12.0152C11.8433 12.132 11.9738 12.3075 12.0424 12.5138C12.111 12.72 12.1139 12.9452 12.0506 13.1534L9.78269 16.9993L9.78093 17.0024C9.64531 17.2272 9.43357 17.3855 9.19122 17.4432C8.94887 17.501 8.69525 17.4536 8.48486 17.3112L8.48627 17.31ZM11.5948 19.1759C11.4606 19.395 11.2522 19.5483 11.0146 19.6028C10.7769 19.6573 10.5289 19.6087 10.3241 19.4673C10.1193 19.3259 9.974 19.1032 9.91954 18.847C9.86508 18.5909 9.90582 18.3219 10.033 18.0979L10.4202 17.4403L12.5839 13.8281C12.6431 13.7297 12.6932 13.6253 12.7335 13.5163L12.7582 13.4748C12.8235 13.3639 12.9085 13.2681 13.0082 13.193C13.108 13.1179 13.2205 13.065 13.3393 13.0373C13.4062 13.0211 13.4746 13.0129 13.5431 13.0129C13.7089 13.0132 13.8716 13.0618 14.0141 13.1535C14.1565 13.2451 14.2736 13.3766 14.353 13.534C14.4325 13.6914 14.4713 13.8691 14.4655 14.0483C14.4597 14.2275 14.4094 14.4018 14.32 14.5528L13.648 15.6921L12.3354 17.9174L11.5948 19.1759ZM13.2573 19.7429C13.0506 19.5995 12.9049 19.3734 12.8521 19.114C12.7993 18.8546 12.8438 18.5831 12.9757 18.3591L14.2883 16.1334C14.4225 15.9143 14.6309 15.761 14.8686 15.7065C15.1062 15.652 15.3542 15.7007 15.559 15.842C15.7638 15.9834 15.9091 16.2061 15.9636 16.4623C16.018 16.7184 15.9773 16.9875 15.8502 17.2114L14.6347 19.2726L14.5379 19.4367C14.4723 19.548 14.3872 19.6441 14.2872 19.7197C14.1873 19.7953 14.0746 19.8488 13.9555 19.8772C13.8364 19.9056 13.7134 19.9083 13.5933 19.8852C13.4733 19.8621 13.3586 19.8136 13.2559 19.7425L13.2573 19.7429ZM25.5967 14.8574C25.5341 14.9585 25.4536 15.0451 25.3598 15.1123C25.266 15.1795 25.1609 15.2259 25.0504 15.2489C24.7126 15.3197 24.3625 15.2436 24.0761 15.0371L23.2707 14.4766L23.2559 14.4663L20.4969 12.546C20.4125 12.4873 20.3099 12.4673 20.2118 12.4903C20.1138 12.5134 20.0281 12.5777 19.9739 12.669C19.9196 12.7604 19.9011 12.8713 19.9224 12.9774C19.9437 13.0835 20.0031 13.1762 20.0876 13.2349L22.8624 15.1647C23.1041 15.3218 23.2806 15.5735 23.3552 15.8676C23.3839 15.9977 23.3876 16.1327 23.3662 16.2644C23.3449 16.3961 23.2988 16.5217 23.2309 16.6334C22.9514 17.1071 22.2548 17.189 21.7092 16.8124L19.2896 15.1422C19.2048 15.0838 19.1021 15.0642 19.004 15.0877C18.9059 15.1112 18.8205 15.1759 18.7665 15.2675C18.7125 15.3592 18.6943 15.4703 18.7161 15.5764C18.7378 15.6825 18.7976 15.7749 18.8823 15.8334L20.6666 17.0648L20.6708 17.0679C20.939 17.2468 21.1399 17.5229 21.2375 17.847C21.2793 17.9764 21.2941 18.1142 21.2811 18.2505C21.2681 18.3869 21.2275 18.5185 21.1622 18.6359C20.8827 19.1093 20.1861 19.1915 19.6405 18.8149L18.0213 17.6965C17.9371 17.645 17.8378 17.6302 17.7439 17.6554C17.65 17.6805 17.5685 17.7436 17.5163 17.8317C17.4641 17.9198 17.445 18.0262 17.4631 18.1291C17.4811 18.2319 17.5349 18.3234 17.6133 18.3846L18.5363 19.0217L18.5394 19.024C19.0847 19.4006 19.3096 20.1187 19.0305 20.592C18.9595 20.7056 18.8664 20.8008 18.7576 20.8711C18.6489 20.9414 18.5272 20.985 18.4011 20.9987C18.0881 21.039 17.7719 20.9581 17.5088 20.7702L15.4739 19.3678L16.4859 17.6516C16.6499 17.3738 16.7411 17.0531 16.7498 16.7236C16.7584 16.3941 16.6842 16.0683 16.5351 15.7809C16.3859 15.4935 16.1674 15.2553 15.9029 15.0917C15.6384 14.9281 15.3378 14.8453 15.0332 14.8521C15.1808 14.5448 15.2443 14.1984 15.2161 13.8535C15.188 13.5085 15.0695 13.1794 14.8745 12.9049C14.6794 12.6303 14.416 12.4217 14.1151 12.3035C13.8143 12.1853 13.4884 12.1624 13.176 12.2376C13.0441 12.2692 12.9162 12.3175 12.7948 12.3815C12.6874 11.9425 12.4295 11.5641 12.0735 11.3233C11.7632 11.1141 11.3991 11.0181 11.0346 11.0493C10.67 11.0806 10.3244 11.2375 10.0485 11.497C9.94116 11.1777 9.75347 10.8973 9.50659 10.6873C9.25971 10.4774 8.96348 10.3463 8.65136 10.3088C8.33924 10.2714 8.02366 10.3291 7.74027 10.4755C7.45688 10.6219 7.21697 10.851 7.04764 11.1371L6.51435 12.0415C6.41333 11.9391 6.31371 11.8294 6.20706 11.7117C5.80352 11.2441 5.35001 10.8301 4.85607 10.4784C4.85044 10.4742 4.84446 10.4704 4.83847 10.4666L3.73072 9.77469L7.5151 2.86457L8.6232 3.55646C9.40545 4.03262 10.2386 4.40347 11.1041 4.66074C11.8151 4.8908 12.5105 5.17403 13.1851 5.50836C12.9739 5.84384 12.7722 6.18502 12.5751 6.51859C12.1661 7.25843 11.7029 7.96159 11.19 8.62129C10.8799 8.99369 10.9679 9.56411 11.4093 10.0405C11.6131 10.296 11.8641 10.5025 12.1461 10.6468C12.4281 10.7911 12.7349 10.8699 13.0468 10.8782C14.0278 10.8401 14.7794 9.90606 15.5066 9.00245C16.0881 8.27896 16.6911 7.53338 17.2201 7.55928C17.5645 7.70853 17.8778 7.93097 18.1413 8.21346C18.5713 8.63681 19.0644 8.97838 19.5997 9.22369L25.0955 13.2821L25.1092 13.292C25.2538 13.3859 25.3799 13.5097 25.4803 13.6563C25.5807 13.8029 25.6534 13.9695 25.6942 14.1465C25.7225 14.266 25.7285 14.3905 25.7118 14.5126C25.695 14.6347 25.6559 14.7519 25.5967 14.8574ZM27.1653 10.0108C26.6929 10.3399 26.2958 10.7806 26.0037 11.2997C25.771 11.6883 25.4875 12.0384 25.162 12.3389L21.767 9.8318C22.3304 9.9089 22.9025 9.85212 23.4435 9.6654C23.5373 9.62672 23.613 9.54933 23.6541 9.45024C23.6951 9.35116 23.6981 9.2385 23.6623 9.13706C23.6266 9.03561 23.555 8.95369 23.4634 8.90931C23.3718 8.86493 23.2677 8.86172 23.1739 8.9004C22.4551 9.19703 21.089 9.02682 19.9376 8.48725L19.9137 8.47621C19.4548 8.26831 19.0317 7.97799 18.6623 7.61754C18.6538 7.60916 17.8175 6.77067 17.2599 6.74173C16.3591 6.69565 15.6372 7.59469 14.9367 8.46478C14.3158 9.23663 13.6737 10.0348 13.0215 10.0599C12.8137 10.046 12.6109 9.98572 12.4257 9.8829C12.2405 9.78008 12.077 9.63693 11.9454 9.46244C11.8612 9.38021 11.7991 9.27498 11.7655 9.15781C12.3009 8.4679 12.7851 7.73338 13.2137 6.96106C14.3372 5.05714 15.3989 3.25907 17.4405 3.41747C18.1526 3.47307 18.7989 3.57245 19.4237 3.66841C20.9067 3.89688 22.1872 4.09299 23.4365 3.51343C23.4503 3.50727 23.4638 3.50002 23.4766 3.49173L24.6685 2.74729L28.2702 9.32193L27.1653 10.0108ZM28.9253 8.91106L25.3264 2.33795L27.2624 1.12819L30.9282 7.66056L28.9253 8.91106Z" fill="white"/>
</svg>
