<svg width="24" height="28" viewBox="0 0 24 28" fill="none" xmlns="http://www.w3.org/2000/svg">
<path d="M14.8851 10.1774L11.2418 13.8233L9.12467 11.7062C8.99837 11.5799 8.79134 11.5799 8.66504 11.7062C8.53874 11.8325 8.53874 12.0395 8.66504 12.1658L11.2418 14.7426L15.3448 10.6396C15.4711 10.5133 15.4711 10.3063 15.3448 10.18C15.2185 10.0498 15.0114 10.0498 14.8851 10.1774Z" fill="white"/>
<path d="M12.0038 5.45328C11.8371 5.45328 11.6744 5.4637 11.5403 5.47932C8.15364 5.70328 5.5 8.54569 5.5 11.9559C5.5 13.103 5.80338 14.2254 6.37369 15.2098C7.52994 17.2163 9.68745 18.4636 12.004 18.4636C15.5912 18.4636 18.5079 15.547 18.5079 11.9597C18.5079 8.37376 15.5911 5.45328 12.0038 5.45328ZM12.0038 17.8098C9.91658 17.8098 7.97784 16.69 6.93752 14.8828C6.42449 14 6.15106 12.9896 6.15106 11.9557C6.15106 8.88938 8.53776 6.32947 11.604 6.12648C11.7303 6.10955 11.8644 6.10304 12.0037 6.10304C15.2303 6.10304 17.8567 8.72931 17.8567 11.956C17.8567 15.1838 15.2305 17.8098 12.0038 17.8098Z" fill="white"/>
<path d="M23.3729 5.09776C20.9198 4.89073 18.873 3.17462 18.3926 0.924478C18.3887 0.911457 18.3822 0.901041 18.3796 0.890625C18.3731 0.873698 18.3692 0.860677 18.3627 0.847655C18.3523 0.824218 18.3367 0.804686 18.3223 0.787759C18.3119 0.777343 18.3054 0.764322 18.2924 0.753906C18.2729 0.73698 18.2494 0.723959 18.226 0.710937C18.2156 0.704427 18.2064 0.697916 18.1921 0.691406C18.157 0.678385 18.1166 0.667969 18.0762 0.667969H5.93038C5.89002 0.667969 5.85096 0.678385 5.8132 0.691406C5.80018 0.697916 5.78976 0.704427 5.77674 0.710937C5.7533 0.723958 5.73377 0.736978 5.71293 0.753906C5.70252 0.764323 5.6934 0.777344 5.68299 0.787759C5.66997 0.804686 5.65695 0.824219 5.64262 0.845052C5.63611 0.861979 5.6296 0.875 5.62309 0.891925C5.61919 0.902341 5.61268 0.911456 5.61007 0.925778C5.13351 3.17575 3.08407 4.89173 0.629798 5.09906C0.450114 5.11599 0.319905 5.27224 0.332928 5.44932L0.75609 10.4963C1.32638 17.3555 5.3627 23.4764 11.8353 27.2891C11.89 27.3216 11.946 27.3346 12.0033 27.3346C12.0606 27.3346 12.1165 27.3216 12.1699 27.2878C18.6398 23.4741 22.6765 17.3542 23.2491 10.495L23.6697 5.45202C23.6866 5.27104 23.5526 5.11469 23.3729 5.09776ZM22.5995 10.444C22.05 17.0313 18.1932 22.9219 12.0033 26.6312C5.81336 22.9215 1.9564 17.031 1.40707 10.445L1.00995 5.71475C3.50992 5.37752 5.58023 3.62105 6.18688 1.32147H17.8194C18.4262 3.62091 20.4965 5.37876 22.9964 5.71475L22.5995 10.444Z" fill="white"/>
</svg>
