<svg width="25" height="30" viewBox="0 0 25 30" fill="none" xmlns="http://www.w3.org/2000/svg">
<path d="M12.4172 5.06189C8.07408 5.06189 4.54044 8.51579 4.54044 12.761C4.54044 15.247 5.7792 17.5928 7.85319 19.0367C8.57146 19.5364 8.95082 20.2554 8.95082 21.118V22.4294C8.95082 23.3903 9.75005 24.1715 10.7332 24.1715H14.1001C15.0833 24.1715 15.8825 23.3903 15.8825 22.4294V21.118C15.8825 20.2565 16.2618 19.5364 16.9801 19.0367C19.0551 17.593 20.2937 15.2459 20.2937 12.761C20.2937 8.51579 16.7604 5.06189 12.4172 5.06189ZM15.0937 21.6411H9.74084V21.1166C9.74084 21.0465 9.73853 20.9775 9.73506 20.9097H15.0995C15.0948 20.9786 15.0937 21.0476 15.0937 21.1166L15.0937 21.6411ZM14.1001 23.3991H10.7344C10.1873 23.3991 9.742 22.9638 9.742 22.4291V22.4133H15.0937V22.4291C15.0937 22.9638 14.6484 23.3991 14.1001 23.3991ZM16.5233 18.4067C15.886 18.8498 15.4476 19.4456 15.2371 20.1375H9.59851C9.388 19.4468 8.94848 18.8498 8.31232 18.4067C6.44551 17.1077 5.33061 14.997 5.33061 12.7596C5.33061 8.94071 8.51011 5.83266 12.4174 5.83266C16.3247 5.83266 19.5042 8.94042 19.5042 12.7596C19.5042 14.9969 18.3888 17.1075 16.5233 18.4067ZM3.59684 12.6467C3.59684 12.8604 3.41987 13.0322 3.20243 13.0322L0.728387 13.0333C0.510938 13.0333 0.333984 12.8603 0.333984 12.6478C0.333984 12.4341 0.51095 12.2623 0.728387 12.2623H3.20243C3.42104 12.2612 3.59684 12.4342 3.59684 12.6467ZM6.18077 18.7424C6.3346 18.8927 6.3346 19.1369 6.18077 19.2884L4.43195 20.9978C4.35446 21.0735 4.25383 21.1108 4.1532 21.1108C4.05257 21.1108 3.95079 21.0735 3.87445 20.9978C3.72062 20.8474 3.72062 20.6021 3.87445 20.4517L5.62327 18.7424C5.7771 18.592 6.02694 18.592 6.18077 18.7424ZM3.87327 4.84141C3.71944 4.69105 3.71944 4.44685 3.87327 4.29537C4.02711 4.145 4.2781 4.145 4.43192 4.29537L6.18074 6.00472C6.33457 6.15508 6.33457 6.40041 6.18074 6.55076C6.10324 6.62651 6.00262 6.66381 5.90199 6.66381C5.8002 6.66381 5.69958 6.6265 5.62324 6.55076L3.87327 4.84141ZM12.0228 3.63966V1.22257C12.0228 1.0089 12.1997 0.835938 12.4172 0.835938C12.6346 0.835938 12.8116 1.00891 12.8116 1.22144V3.63966C12.8116 3.85333 12.6346 4.02517 12.4172 4.02517C12.1997 4.0263 12.0228 3.85332 12.0228 3.63966ZM20.9614 20.453C21.1152 20.6034 21.1152 20.8487 20.9614 20.9991C20.8839 21.0748 20.7833 21.1121 20.6826 21.1121C20.5809 21.1121 20.4802 21.0748 20.4039 20.9991L18.6551 19.2897C18.5012 19.1394 18.5012 18.894 18.6551 18.7437C18.8089 18.5933 19.0599 18.5933 19.2137 18.7437L20.9614 20.453ZM20.9614 4.29548C21.1152 4.44584 21.1152 4.69004 20.9614 4.84152L19.2126 6.55088C19.1351 6.62662 19.0345 6.66393 18.9338 6.66393C18.832 6.66393 18.7314 6.62662 18.6551 6.55088C18.5012 6.40052 18.5012 6.15632 18.6551 6.00483L20.4039 4.29548C20.5577 4.14512 20.8076 4.14512 20.9614 4.29548ZM24.5007 12.6466C24.5007 12.8603 24.3237 13.0321 24.1062 13.0321H21.6322C21.4136 13.0321 21.2378 12.8591 21.2378 12.6466C21.2378 12.4329 21.4148 12.2611 21.6322 12.2611H24.1062C24.3237 12.2611 24.5007 12.4341 24.5007 12.6466ZM14.8174 24.8099H10.0173C9.82646 24.8099 9.66338 24.9422 9.62868 25.1253C9.61133 25.2192 9.60208 25.3141 9.60208 25.4091V25.8217C9.60208 26.4243 9.95139 26.9489 10.4638 27.2123V27.2598C10.4638 28.3123 11.3405 29.1693 12.4173 29.1693C13.4942 29.1693 14.3709 28.3123 14.3709 27.2598V27.2123C14.8822 26.9489 15.2326 26.4254 15.2326 25.8217V25.4091C15.2326 25.3141 15.2234 25.218 15.206 25.1253C15.1713 24.9422 15.0082 24.8099 14.8174 24.8099ZM12.4173 28.3972C11.8217 28.3972 11.3289 27.9575 11.2619 27.3922H13.5728C13.5057 27.9574 13.013 28.3972 12.4173 28.3972ZM14.4426 25.8219C14.4426 26.2617 14.0759 26.6201 13.626 26.6201H11.2075C10.7576 26.6201 10.3909 26.2617 10.3909 25.8219V25.5811H14.4415L14.4426 25.8219Z" fill="white"/>
</svg>
