<svg width="62" height="68" viewBox="0 0 62 68" fill="none" xmlns="http://www.w3.org/2000/svg">
<path d="M25.1736 15.8515C24.3252 16.6964 22.9678 15.4873 23.8162 14.6424L24.4024 14.0451C15.641 16.2156 8.46833 22.3047 5.27535 30.2875C4.84345 31.3655 3.10043 30.7391 3.53233 29.6611C6.89498 21.285 14.3915 14.8318 23.554 12.4428L23.0912 12.3408C21.8881 12.0786 22.32 10.3597 23.5231 10.6219L27.5645 11.525C28.2586 11.6707 28.5208 12.4865 28.0272 12.9817L25.1736 15.8515ZM13.6049 62.743C13.8054 63.1801 13.6049 63.7045 13.1267 63.8939C12.6639 64.0832 12.1086 63.8938 11.9081 63.4423L10.2422 59.8442C9.96455 59.2178 10.5044 58.5477 11.1986 58.6205L15.3324 59.0576C16.551 59.1887 16.3505 60.9367 15.1319 60.8056L14.4069 60.7328C25.5438 68.8321 41.3853 67.8998 51.3961 58.4603C61.3298 49.0791 62.3787 34.2497 53.9412 23.7177C53.6327 23.3244 53.7099 22.7709 54.1263 22.4795C54.5428 22.1882 55.1135 22.261 55.4375 22.6543C64.4302 33.8856 63.3196 49.7055 52.7227 59.7131C42.0948 69.7498 25.2507 70.7841 13.3581 62.1895L13.6049 62.743ZM42.9432 14.8172L35.3078 7.59191C34.444 6.77615 35.7552 5.52338 36.6344 6.35371L44.3469 13.6373C44.0384 6.73245 37.8067 1.38632 30.4798 1.77963C30.1405 7.31514 33.7191 12.3845 39.2566 14.2054C40.1513 14.4967 41.0768 14.7007 42.0023 14.8026H42.9432V14.8172ZM45.2415 16.5944C44.3469 16.6818 43.4522 16.7109 42.5422 16.6381V47.5787H47.8484V16.6527C47 16.6964 46.167 16.6818 45.3341 16.5944H45.2415ZM40.6757 16.405C35.4621 15.429 31.1739 11.9183 29.4155 7.16947C28.6597 5.14464 28.4283 2.9887 28.6751 0.891035C28.7214 0.483155 29.0453 0.148111 29.4926 0.089843C36.3413 -0.638513 42.8815 3.11981 45.2878 9.25256C47.6941 3.11981 54.2343 -0.638514 61.083 0.10441C61.5303 0.148111 61.8697 0.497722 61.916 0.905602C62.3787 5.21747 60.9288 9.4128 57.6124 12.5302C55.422 14.5987 52.6764 15.9243 49.7302 16.4342V53.5949C49.7302 54.0902 49.3137 54.4835 48.7893 54.4835H0.940925C0.416475 54.4835 0 54.0902 0 53.5949V36.0269C0 35.5317 0.416475 35.1383 0.940925 35.1383H8.12897C8.65343 35.1383 9.0699 35.5317 9.0699 36.0269V47.5787H13.574V28.5249C13.574 28.0296 13.9905 27.6363 14.5149 27.6363H21.703C22.2274 27.6363 22.6439 28.0296 22.6439 28.5249V47.5787H27.148V21.3433C27.148 20.848 27.5645 20.4547 28.0889 20.4547H35.277C35.8014 20.4547 36.2179 20.848 36.2179 21.3433V47.5787H40.722V16.405H40.6757ZM46.2442 13.6518L53.9567 6.36827C54.8205 5.55252 56.147 6.79072 55.2832 7.60648L47.6478 14.8318H48.5888C49.5297 14.7298 50.4552 14.5259 51.3498 14.2345C56.8874 12.4136 60.466 7.3297 60.1267 1.80876C52.7844 1.40088 46.5372 6.74702 46.2442 13.6518ZM1.88185 52.7063H47.8484V49.3413H1.88185V52.7063ZM20.7466 29.4135H15.425V47.5787H20.7466V29.4135ZM7.20347 36.901H1.88185V47.5787H7.18805V36.901H7.20347ZM34.3052 22.2319H28.999V47.5787H34.3052V22.2319Z" fill="white"/>
</svg>
