<svg width="68" height="68" viewBox="0 0 68 68" fill="none" xmlns="http://www.w3.org/2000/svg">
<path d="M34.0005 34.7695C29.456 34.7695 25.7617 38.501 25.7617 43.0841C25.7617 47.6704 29.4591 51.3987 34.0005 51.3987C38.5449 51.3987 42.2392 47.6673 42.2392 43.0841C42.2392 38.4978 38.5418 34.7695 34.0005 34.7695ZM34.0005 49.1149C30.7082 49.1149 28.028 46.41 28.028 43.0875C28.028 39.7649 30.7082 37.06 34.0005 37.06C37.2955 37.06 39.9729 39.7649 39.9729 43.0875C39.9729 46.41 37.2927 49.1149 34.0005 49.1149Z" fill="white"/>
<path d="M66.8641 0H1.13329C0.507148 0 0 0.511816 0 1.14372V48.4137C0 49.0456 0.507148 49.5574 1.13329 49.5574H21.4077L23.1417 50.541C23.391 50.684 23.5666 50.927 23.6233 51.2101L23.799 52.0907L18.7331 62.5244C18.5433 62.919 18.5915 63.3851 18.8578 63.731C19.1241 64.0741 19.5633 64.2342 19.9883 64.1456L24.9379 63.0791L27.5898 67.4539C27.7994 67.797 28.1649 68 28.5587 68C28.5927 68 28.6295 68 28.6664 67.9943C29.097 67.9514 29.4682 67.6655 29.6183 67.2566L33.0777 57.8894C33.3808 57.9809 33.6896 58.0381 34.0041 58.0381C34.3129 58.0381 34.6217 57.9809 34.9192 57.8951L38.3729 67.2565C38.5259 67.6682 38.8942 67.9541 39.3277 67.9941C39.3645 67.997 39.3985 67.9999 39.4353 67.9999C39.8263 67.9999 40.1947 67.794 40.4043 67.4537L43.0561 63.079L48.0058 64.1455C48.4308 64.2341 48.8699 64.074 49.1362 63.7309C49.4026 63.3849 49.4507 62.916 49.2609 62.5243L44.2093 52.1279L44.3906 51.2101C44.4473 50.9242 44.6229 50.6811 44.8723 50.541L46.6062 49.5574H66.8611C67.4872 49.5574 67.9943 49.0456 67.9943 48.4137L68 1.14374C68 0.511831 67.4929 1.46595e-05 66.8667 1.46595e-05L66.8641 0ZM28.3097 64.26L26.454 61.1976C26.2018 60.783 25.723 60.5772 25.2498 60.6772L21.7933 61.4207L24.9637 54.8928C25.6437 55.5476 26.59 55.9107 27.5788 55.7964L29.5564 55.5648C29.8426 55.5333 30.1259 55.6248 30.3383 55.8221L31.1487 56.5741L28.3097 64.26ZM46.2016 61.4207L42.7479 60.6773C42.2747 60.5801 41.7959 60.7859 41.5437 61.1977L39.688 64.2571L36.8576 56.5801L37.6792 55.8195C37.8889 55.6222 38.1694 55.5307 38.4584 55.5622L40.436 55.7938C41.4106 55.9081 42.3512 55.5479 43.034 54.9016L46.2016 61.4151V61.4207ZM45.0796 44.4563L45.9097 46.2834C46.125 46.758 45.9494 47.307 45.4989 47.5643L43.765 48.5508C42.9377 49.0197 42.3597 49.8261 42.1727 50.7639L41.7789 52.7368C41.6769 53.2401 41.1981 53.5889 40.6994 53.5288L38.7218 53.2972C37.7783 53.1857 36.8405 53.4945 36.1436 54.1435L34.6788 55.5046C34.2992 55.8563 33.724 55.8591 33.3415 55.5046L33.333 55.496C33.2763 55.4331 33.2197 55.3759 33.1488 55.3244L31.8767 54.1407C31.2732 53.5802 30.4856 53.2743 29.6753 53.2743C29.5506 53.2743 29.4231 53.28 29.2985 53.2972L27.3208 53.5288C26.808 53.5917 26.3433 53.2486 26.2414 52.7368L25.8475 50.7667C25.6606 49.8289 25.0797 49.0226 24.2553 48.5536L22.5214 47.5672C22.0709 47.3098 21.8924 46.7608 22.1105 46.2862L22.9407 44.4591C23.3345 43.5899 23.3345 42.5948 22.9407 41.7256L22.1105 39.8985C21.8952 39.4238 22.0709 38.8749 22.5214 38.6175L24.2553 37.631C25.0826 37.1621 25.6606 36.3558 25.8475 35.4179L26.2414 33.445C26.3434 32.9418 26.8193 32.5929 27.3208 32.653L29.2985 32.8846C30.2532 32.999 31.1797 32.6873 31.8767 32.0383L33.3414 30.6773C33.7239 30.3227 34.2991 30.3256 34.6788 30.6773L36.1435 32.0383C36.8405 32.6845 37.7868 32.9905 38.7218 32.8846L40.6994 32.653C41.1952 32.5901 41.6797 32.9418 41.7788 33.445L42.1727 35.4151C42.3597 36.3529 42.9405 37.1593 43.7649 37.6282L45.4988 38.6146C45.9493 38.872 46.1278 39.421 45.9097 39.8956L45.0795 41.7227C44.6857 42.5919 44.6858 43.587 45.0796 44.4563ZM65.7312 47.2699H48.202C48.3154 46.6294 48.2559 45.9546 47.9725 45.3284L47.1424 43.5013C47.0234 43.2383 47.0234 42.9352 47.1424 42.6721L47.9725 40.845C48.6723 39.3067 48.0745 37.4482 46.6126 36.619L44.8787 35.6325C44.6294 35.4896 44.4537 35.2465 44.397 34.9634L44.0032 32.9934C43.6746 31.3322 42.0965 30.1798 40.439 30.38L38.4614 30.6116C38.1781 30.6459 37.8919 30.5515 37.6794 30.3543L36.2147 28.9932C34.9794 27.8466 33.0443 27.8466 31.8118 28.9932L30.3443 30.3543C30.1346 30.5516 29.8513 30.6459 29.5623 30.6116L27.5847 30.38C25.9244 30.1856 24.352 31.3322 24.0205 32.9934L23.6267 34.9634C23.57 35.2494 23.3943 35.4924 23.145 35.6325L21.4111 36.619C19.9492 37.4511 19.3514 39.3068 20.0512 40.845L20.8813 42.6721C21.0003 42.9352 21.0003 43.2383 20.8813 43.5013L20.0512 45.3284C19.7678 45.9546 19.7055 46.6294 19.8217 47.2699H2.2671V2.28737H65.7313L65.7312 47.2699Z" fill="white"/>
<path d="M24.1841 11.4749H43.8152C44.4413 11.4749 44.9485 10.9631 44.9485 10.3312C44.9485 9.69932 44.4413 9.1875 43.8152 9.1875H24.1841C23.5579 9.1875 23.0508 9.69932 23.0508 10.3312C23.0508 10.9631 23.5579 11.4749 24.1841 11.4749Z" fill="white"/>
<path d="M10.8169 17.7835H57.1798C57.806 17.7835 58.3131 17.2717 58.3131 16.6398C58.3131 16.0079 57.806 15.4961 57.1798 15.4961H10.8169C10.1907 15.4961 9.68359 16.0079 9.68359 16.6398C9.68359 17.2717 10.1907 17.7835 10.8169 17.7835Z" fill="white"/>
<path d="M10.8169 24.096H57.1798C57.806 24.096 58.3131 23.5842 58.3131 22.9523C58.3131 22.3204 57.806 21.8086 57.1798 21.8086H10.8169C10.1907 21.8086 9.68359 22.3204 9.68359 22.9523C9.68359 23.5842 10.1907 24.096 10.8169 24.096Z" fill="white"/>
</svg>
