<svg width="66" height="66" viewBox="0 0 66 66" fill="none" xmlns="http://www.w3.org/2000/svg">
<path fill-rule="evenodd" clip-rule="evenodd" d="M13.5683 41.8154C13.5683 41.3689 13.9277 41.0089 14.3735 41.0089C14.8193 41.0089 15.1787 41.3689 15.1787 41.8154V51.6065C15.1787 51.8717 15.049 52.1071 14.8518 52.2559L10.7233 55.9119C10.391 56.2069 9.88578 56.1744 9.59127 55.8416C9.29676 55.5087 9.32919 55.0027 9.66152 54.7077L13.571 51.2465V41.8157L13.5683 41.8154ZM20.485 15.8957H16.3215C15.8757 15.8957 15.5164 16.2556 15.5164 16.7022V37.2528C15.1381 37.2231 14.7571 37.2068 14.3735 37.2068C10.4045 37.2068 6.8108 38.817 4.20943 41.423C1.60806 44.029 0 47.6282 0 51.6034C0 55.5788 1.60758 59.1783 4.20943 61.7838C6.81129 64.3894 10.4047 66 14.3735 66C18.3425 66 21.9362 64.3898 24.5376 61.7838C27.139 59.1778 28.747 55.5786 28.747 51.6034C28.747 49.9905 28.4823 48.4399 27.9933 46.9921H52.8878C53.3336 46.9921 53.693 46.6322 53.693 46.1857L53.6957 23.3807V16.6992C53.6957 16.2527 53.3364 15.8927 52.8905 15.8927H48.727C48.5676 15.1026 48.1758 14.3962 47.6274 13.8496C46.8979 13.1189 45.8928 12.6697 44.7824 12.6697C43.6719 12.6697 42.6641 13.1216 41.9373 13.8496C41.3888 14.3989 40.9998 15.1053 40.8377 15.8927H38.5492C38.3898 15.1026 37.9981 14.3962 37.4496 13.8496C36.7201 13.1189 35.7151 12.6697 34.6046 12.6697C33.4941 12.6697 32.4863 13.1216 31.7595 13.8496C31.2111 14.3989 30.822 15.1053 30.6599 15.8927H28.3715C28.2121 15.1026 27.8203 14.3962 27.2718 13.8496C26.5423 13.1189 25.5373 12.6697 24.4268 12.6697C23.3163 12.6697 22.3086 13.1216 21.5818 13.8496C21.036 14.3989 20.6444 15.1055 20.485 15.8957ZM28.3742 17.5086H36.8852C36.7636 17.8523 36.5664 18.1608 36.3151 18.4125C35.8774 18.8509 35.2749 19.1214 34.6075 19.1214C34.1617 19.1214 33.8024 19.4814 33.8024 19.9279C33.8024 20.3744 34.1617 20.7344 34.6075 20.7344C35.718 20.7344 36.7258 20.2824 37.4526 19.5545C38.0011 19.0052 38.3901 18.2988 38.5522 17.5114H47.0632C46.9416 17.855 46.7444 18.1635 46.4931 18.4152C46.0554 18.8536 45.4529 19.1242 44.7855 19.1242C44.3397 19.1242 43.9803 19.4841 43.9803 19.9307C43.9803 20.3772 44.3397 20.7372 44.7855 20.7372C45.896 20.7372 46.9037 20.2852 47.6306 19.5573C48.179 19.0079 48.5681 18.3016 48.7302 17.5141H52.0886V22.5828L17.1267 22.5774V17.5087H26.7078C26.5862 17.8524 26.3889 18.1609 26.1377 18.4126C25.7 18.851 25.0975 19.1216 24.4301 19.1216C23.9843 19.1216 23.6249 19.4815 23.6249 19.928C23.6249 20.3746 23.9842 20.7345 24.4301 20.7345C25.5405 20.7345 26.5483 20.2826 27.2751 19.5546C27.8236 19.0053 28.2122 18.2988 28.3742 17.5086ZM26.7072 15.8957H22.1519C22.2735 15.552 22.4707 15.2435 22.722 14.9919C23.1597 14.5535 23.7622 14.2829 24.4296 14.2829C25.097 14.2829 25.6994 14.5535 26.1372 14.9919C26.3884 15.2435 26.5856 15.552 26.7072 15.8957ZM47.0602 15.8957H42.505C42.6265 15.552 42.8238 15.2435 43.075 14.9919C43.5127 14.5535 44.1153 14.2829 44.7826 14.2829C45.45 14.2829 46.0525 14.5535 46.4902 14.9919C46.7442 15.2435 46.9386 15.552 47.0602 15.8957ZM30.6601 60.7643C30.5277 60.8184 30.4088 60.9077 30.3169 61.0295C30.0521 61.3867 30.1251 61.8901 30.479 62.158L35.3099 65.768V65.7653C35.4234 65.8492 35.5585 65.906 35.7071 65.9222C36.1475 65.9683 36.5419 65.6462 36.5879 65.2051L36.8364 62.8074C44.8909 62.2418 52.1071 58.6318 57.3458 53.1224C62.709 47.48 66 39.8487 66 31.446C66 22.7648 62.4849 14.9031 56.8056 9.2119C51.1237 3.52085 43.2752 0 34.6044 0C25.9371 0 18.0881 3.52071 12.406 9.2119C6.72676 14.9002 3.21162 22.762 3.21162 31.446C3.21162 32.1604 3.23594 32.8829 3.28728 33.6136C3.33591 34.3335 3.41156 35.0587 3.51153 35.7813C3.57097 36.2224 3.97624 36.5308 4.41395 36.4713C4.85435 36.4118 5.16234 36.0086 5.10292 35.5675C5.01106 34.8963 4.93811 34.209 4.88947 33.508C4.84354 32.8396 4.81923 32.155 4.81923 31.4486C4.81923 23.2108 8.15328 15.753 13.5433 10.3541C18.9334 4.95261 26.38 1.61334 34.6039 1.61334C42.8285 1.61334 50.2744 4.95275 55.6646 10.3514C61.0547 15.7502 64.3886 23.2087 64.3886 31.4458C64.3886 39.4211 61.2653 46.6627 56.1805 52.0131C51.2713 57.1791 44.5301 60.5835 37.0026 61.1841L37.2188 59.0842C37.2404 58.9353 37.2215 58.7811 37.1512 58.6349C36.9648 58.2317 36.4893 58.0558 36.0867 58.2425L33.3551 59.5144L30.6601 60.7643ZM34.0292 60.9727L35.4802 60.2962L35.3072 61.9631L35.137 63.6301L33.8563 62.6721L32.5216 61.6735L34.0292 60.9727ZM17.1262 37.4722V24.1875H52.0853V45.3824H27.3394C26.6316 43.9048 25.6805 42.5707 24.5376 41.426C22.5544 39.4369 19.993 38.027 17.1262 37.4722ZM23.3999 42.5653C21.0898 40.2515 17.899 38.8199 14.3729 38.8199C10.847 38.8199 7.65616 40.2515 5.34591 42.5653C3.03588 44.879 1.60661 48.075 1.60661 51.6067C1.60661 55.1383 3.03588 58.3342 5.34591 60.6482C7.65595 62.9619 10.8468 64.3935 14.3729 64.3935C17.8988 64.3935 21.0896 62.9619 23.3999 60.6482C25.7101 58.3344 27.1392 55.1384 27.1392 51.6067C27.1392 48.0751 25.7099 44.8792 23.3999 42.5653ZM25.1047 34.4279C24.7913 34.1139 24.7913 33.6025 25.1047 33.2886C25.4181 32.9747 25.9288 32.9747 26.2422 33.2886L32.3996 39.4559L44.4229 27.4133C44.7363 27.0994 45.247 27.0994 45.5603 27.4133C45.8737 27.7272 45.8738 28.2387 45.5603 28.5526L32.9699 41.166C32.6565 41.48 32.1458 41.48 31.8324 41.166L25.1047 34.4279ZM32.3264 15.896C32.448 15.5523 32.6452 15.2438 32.8965 14.9921C33.3342 14.5537 33.9367 14.2831 34.6041 14.2831C35.2715 14.2831 35.8739 14.5537 36.3117 14.9921C36.563 15.2438 36.7602 15.5523 36.8818 15.896H32.3264Z" fill="white"/>
</svg>
