<svg width="68" height="68" viewBox="0 0 68 68" fill="none" xmlns="http://www.w3.org/2000/svg">
<path fill-rule="evenodd" clip-rule="evenodd" d="M51.6667 65.61C54.0382 64.4728 65.2012 58.3181 65.6986 43.123H65.6958C60.6328 42.6201 55.7928 40.7857 51.6668 37.8084C47.541 40.7885 42.6978 42.6229 37.6348 43.123C37.9405 52.5063 43.0234 61.4611 51.6667 65.61ZM45.9466 51.5774C45.5066 51.1316 45.5095 50.4115 45.9552 49.9687C46.4009 49.5287 47.118 49.5287 47.5638 49.9716L50.0267 52.4346L55.7696 46.6913C56.2154 46.257 56.9296 46.2599 57.3725 46.7028C57.8154 47.1456 57.8182 47.86 57.3839 48.3086L50.8324 54.8547C50.6181 55.069 50.3296 55.189 50.0267 55.189C49.7238 55.1861 49.4324 55.0661 49.2181 54.8518L45.9466 51.5774ZM40.1208 58.4035C39.9408 58.4521 39.7551 58.4749 39.5694 58.4749H2.28575C1.02284 58.4721 0.00285261 57.4492 0 56.1891V2.28586C0.002857 1.0229 1.02284 0 2.28575 0H31.1688C31.4774 0 31.7688 0.122866 31.9831 0.34002L41.5116 9.86896C41.7345 10.0861 41.8573 10.3833 41.8545 10.6947V40.0284C45.1516 39.1197 48.2431 37.5796 50.9543 35.4938C51.3657 35.1681 51.9458 35.1652 52.36 35.4852C56.543 38.7026 61.5886 40.5999 66.8542 40.9284C67.1571 40.9284 67.4485 41.0485 67.6657 41.2628C67.88 41.4771 68 41.7685 68 42.0714C68 61.3897 52.1512 67.8903 52.1058 67.9071V67.91C51.823 68.03 51.5058 68.03 51.223 67.91C51.1944 67.8986 44.7914 65.2698 40.1227 58.4037L40.1208 58.4035ZM39.5694 40.5511C38.5237 40.7425 37.4665 40.8711 36.4065 40.934C35.8036 40.9683 35.3322 41.4683 35.3322 42.0712H35.3293C35.3293 47.8773 36.7607 52.5262 38.7665 56.1865L2.28597 56.1894V2.28615H30.0265V10.6835C30.0265 10.9864 30.1465 11.2778 30.3637 11.4921C30.578 11.7064 30.8665 11.8264 31.1694 11.8264H39.5664L39.5694 40.5511ZM8.90023 27.0217C7.69167 27.0217 6.71161 28.0017 6.71161 29.2133V32.9421C6.71161 34.1508 7.6916 35.1309 8.90023 35.1337H12.6374C13.8489 35.1309 14.8261 34.1508 14.8289 32.9421V29.2133C14.8261 28.0018 13.846 27.0217 12.6374 27.0217H8.90023ZM12.5432 29.3076H8.99736V32.8478H12.5432V29.3076ZM17.9176 38.9228H33.3034C33.9348 38.9228 34.4463 38.4114 34.4463 37.7799C34.4463 37.1484 33.9348 36.637 33.3034 36.637H17.9176C17.2861 36.637 16.7747 37.1484 16.7747 37.7799C16.7747 38.4114 17.2861 38.9228 17.9176 38.9228ZM17.9176 32.2224L33.8549 32.2195C34.4863 32.2195 34.9978 31.708 34.9978 31.0766C34.9978 30.4451 34.4863 29.9336 33.8549 29.9336H17.9176C17.2861 29.9336 16.7747 30.4451 16.7747 31.0766C16.7747 31.708 17.2861 32.2195 17.9176 32.2195V32.2224ZM8.90037 13.618C7.69182 13.6209 6.71176 14.601 6.71176 15.8096V19.5384C6.71176 20.747 7.69174 21.7271 8.90037 21.73H12.6376C13.849 21.7271 14.8262 20.747 14.8291 19.5384V15.8096C14.8262 14.601 13.8461 13.6208 12.6376 13.618H8.90037ZM12.5433 15.9039H8.99751V19.4441H12.5433V15.9039ZM17.9177 25.5191H33.3035C33.935 25.5191 34.4464 25.0077 34.4464 24.3762C34.4464 23.7447 33.935 23.2333 33.3035 23.2333H17.9177C17.2863 23.2333 16.7748 23.7447 16.7748 24.3762C16.7748 25.0077 17.2863 25.5191 17.9177 25.5191ZM17.9177 18.8186H33.855C34.4865 18.8186 34.9979 18.3043 34.9979 17.6757C34.9979 17.0442 34.4865 16.5328 33.855 16.5328H17.9177C17.2863 16.5328 16.7748 17.0442 16.7748 17.6757C16.7748 18.3043 17.2863 18.8186 17.9177 18.8186ZM37.9526 9.5406L32.3125 3.90026V9.5406H37.9526Z" fill="white"/>
</svg>
