<svg width="54" height="70" viewBox="0 0 54 70" fill="none" xmlns="http://www.w3.org/2000/svg">
<path d="M52.2531 3.63671H50.6895V1.73786C50.6864 0.777773 49.9046 0 48.9395 0H1.74689C0.781814 0 0 0.777773 0 1.73786V64.6224C0 65.5825 0.781814 66.3603 1.74689 66.3633H3.31051V68.2621C3.31357 69.2222 4.09538 70 5.06045 70H52.2531C53.2182 70 54 69.2222 54 68.2621V5.3776C54 4.41752 53.2182 3.63975 52.2531 3.63671ZM1.74634 64.9626C1.56005 64.9596 1.40735 64.8107 1.40735 64.6223V1.73778C1.40735 1.55245 1.56005 1.40358 1.74634 1.40054H48.939C49.1283 1.40358 49.278 1.55245 49.281 1.73778V3.63664H5.06006C4.09499 3.63967 3.31012 4.41744 3.31012 5.37753V64.962L1.74634 64.9626ZM52.5854 68.2621C52.5823 68.4474 52.4327 68.5963 52.2433 68.5993H5.05928C4.86993 68.5963 4.72029 68.4474 4.71723 68.2621V5.37753C4.72029 5.1922 4.86993 5.04029 5.05928 5.03725H52.2519C52.4382 5.04029 52.5909 5.1922 52.5909 5.37753L52.5854 68.2621ZM9.44799 26.5384C9.44799 23.9043 11.5949 21.7685 14.2427 21.7685C16.8935 21.7685 19.0405 23.9043 19.0405 26.5384C19.0405 26.9273 18.7259 27.2402 18.335 27.2402C17.9472 27.2402 17.6326 26.9273 17.6326 26.5384C17.6326 25.1773 16.808 23.9469 15.5406 23.4243C14.2732 22.9048 12.8165 23.1934 11.8483 24.1565C10.8802 25.1196 10.5901 26.5688 11.1123 27.8297C11.6376 29.0905 12.8745 29.9108 14.2426 29.9108C14.6335 29.9108 14.9481 30.2238 14.9481 30.6096C14.9481 30.9985 14.6335 31.3114 14.2426 31.3114C11.5979 31.3084 9.45104 29.1725 9.44799 26.5384ZM25.06 21.893C25.2036 22.0145 25.2922 22.1847 25.3044 22.37C25.3196 22.5553 25.2616 22.7376 25.1394 22.8804L18.61 30.5032C18.4848 30.646 18.3077 30.7341 18.1153 30.7463H18.0725H18.0756C17.8985 30.7463 17.7275 30.6794 17.5961 30.5609L13.7665 27.0519V27.0549C13.626 26.9303 13.5405 26.7541 13.5313 26.5658C13.5222 26.3774 13.5894 26.1951 13.7146 26.0553C13.8428 25.9186 14.023 25.8366 14.2093 25.8305C14.3987 25.8244 14.5819 25.8943 14.7193 26.025L18.0115 29.0419L24.0675 21.9721C24.1896 21.8293 24.3637 21.7411 24.55 21.729C24.7332 21.7138 24.9196 21.7715 25.06 21.893ZM48.2033 23.0292V23.0323C48.2033 23.4181 47.8888 23.7311 47.5009 23.7311H29.742C29.3541 23.7311 29.0396 23.4181 29.0396 23.0323C29.0396 22.6434 29.3541 22.3305 29.742 22.3305H47.504C47.6903 22.3305 47.8705 22.4064 48.0018 22.5371C48.1331 22.6677 48.2064 22.847 48.2064 23.0323L48.2033 23.0292ZM48.2033 26.7541V26.7571C48.2033 27.143 47.8888 27.4559 47.5009 27.4559H29.742C29.3541 27.4559 29.0396 27.143 29.0396 26.7571C29.0396 26.3682 29.3541 26.0553 29.742 26.0553H47.504C47.8919 26.0553 48.2064 26.3682 48.2064 26.7541L48.2033 26.7541ZM48.2033 30.4789C48.2033 30.8678 47.8888 31.1807 47.5009 31.1807H29.742C29.3541 31.1807 29.0396 30.8678 29.0396 30.4789C29.0396 30.0931 29.3541 29.7801 29.742 29.7801H47.504C47.6903 29.7801 47.8705 29.8531 48.0018 29.9867C48.1331 30.1174 48.2064 30.2936 48.2064 30.482L48.2033 30.4789ZM9.44878 41.1795C9.44878 38.5424 11.5957 36.4066 14.2435 36.4066C16.8943 36.4066 19.0412 38.5424 19.0412 41.1795C19.0412 41.5654 18.7267 41.8783 18.3358 41.8783C17.9479 41.8783 17.6334 41.5654 17.6334 41.1795C17.6334 39.8154 16.8088 38.585 15.5414 38.0654C14.274 37.5428 12.8172 37.8315 11.8491 38.7946C10.881 39.7577 10.5909 41.2099 11.1131 42.4678C11.6384 43.7286 12.8752 44.5489 14.2434 44.5489C14.6343 44.5489 14.9489 44.8618 14.9489 45.2507C14.9489 45.6366 14.6343 45.9495 14.2434 45.9495C11.5987 45.9465 9.45183 43.8136 9.44878 41.1795ZM25.0608 36.5311C25.2044 36.6526 25.2929 36.8228 25.3051 37.0081C25.3204 37.1934 25.2624 37.3757 25.1402 37.5185L18.6108 45.1413C18.4856 45.2841 18.3085 45.3752 18.1161 45.3843H18.0733H18.0764C17.8993 45.3843 17.7282 45.3205 17.5969 45.199L13.7673 41.6899V41.693C13.4894 41.4287 13.4741 40.9942 13.7367 40.7117C13.9963 40.4321 14.433 40.4109 14.7201 40.6631L18.0122 43.68L24.0683 36.6102C24.1904 36.4674 24.3614 36.3793 24.5477 36.3671C24.734 36.3519 24.9203 36.4096 25.0608 36.5311ZM48.2041 37.6704C48.2041 38.0562 47.8895 38.3722 47.5017 38.3722H29.7428C29.3549 38.3722 29.0404 38.0562 29.0404 37.6704C29.0404 37.2845 29.3549 36.9716 29.7428 36.9716H47.5048C47.8927 36.9716 48.2072 37.2845 48.2072 37.6704H48.2041ZM48.2041 41.3952C48.2041 41.781 47.8895 42.094 47.5017 42.094H29.7428C29.3549 42.094 29.0404 41.7811 29.0404 41.3952C29.0404 41.0093 29.3549 40.6964 29.7428 40.6964H47.5048C47.8927 40.6964 48.2072 41.0093 48.2072 41.3952H48.2041ZM48.2041 45.12C48.2041 45.5059 47.8895 45.8188 47.5017 45.8188H29.7428C29.3549 45.8188 29.0404 45.5059 29.0404 45.12C29.0404 44.7342 29.3549 44.4213 29.7428 44.4213H47.5048C47.8927 44.4213 48.2072 44.7342 48.2072 45.12H48.2041ZM14.9496 59.8884C14.9496 60.2742 14.6351 60.5872 14.2442 60.5872C12.3049 60.5872 10.5581 59.4266 9.81588 57.6432C9.07371 55.8597 9.483 53.809 10.8542 52.4448C12.2254 51.0807 14.2899 50.6706 16.0795 51.4088C17.8722 52.1471 19.0419 53.888 19.0419 55.8173C19.0419 56.2031 18.7274 56.516 18.3365 56.516C17.9486 56.516 17.634 56.2031 17.634 55.8173C17.634 54.4531 16.8095 53.2257 15.5421 52.7031C14.2747 52.1805 12.8179 52.4692 11.8498 53.4353C10.8817 54.3984 10.5915 55.8477 11.1138 57.1085C11.6391 58.3663 12.8759 59.1897 14.2441 59.1897C14.4304 59.1897 14.6106 59.2626 14.7419 59.3932C14.8732 59.5239 14.9496 59.7031 14.9496 59.8884ZM25.0616 51.1688C25.2051 51.2903 25.2937 51.4604 25.3059 51.6458C25.3212 51.8311 25.2632 52.0134 25.141 52.1562L18.6116 59.779C18.4864 59.9218 18.3093 60.0129 18.1169 60.022H18.0741H18.0772C17.9 60.022 17.729 59.9582 17.5977 59.8367L13.7681 56.3276V56.3307C13.6306 56.2031 13.5482 56.0299 13.5421 55.8446C13.5329 55.6562 13.6001 55.4769 13.7284 55.3402C13.991 55.0546 14.4369 55.0364 14.7239 55.3007L18.0161 58.3176L24.0721 51.2478C24.3225 50.9531 24.7684 50.9196 25.0616 51.1688ZM48.2049 52.3081C48.2049 52.6939 47.8903 53.0068 47.5025 53.0068H29.7436C29.3557 53.0068 29.0411 52.6939 29.0411 52.3081C29.0411 51.9222 29.3557 51.6093 29.7436 51.6093H47.5056C47.8934 51.6093 48.208 51.9222 48.208 52.3081H48.2049ZM48.2049 56.0329C48.2049 56.4187 47.8903 56.7317 47.5025 56.7317H29.7436C29.3557 56.7317 29.0411 56.4188 29.0411 56.0329C29.0411 55.6471 29.3557 55.3341 29.7436 55.3341H47.5056C47.8934 55.3341 48.208 55.647 48.208 56.0329H48.2049ZM48.2049 59.7577C48.2049 60.1436 47.8903 60.4565 47.5025 60.4565H29.7436C29.3557 60.4565 29.0411 60.1436 29.0411 59.7577C29.0411 59.3719 29.3557 59.0589 29.7436 59.0589H47.5056C47.8934 59.0589 48.208 59.3719 48.208 59.7577H48.2049ZM15.3351 13.5681H41.9777C42.3656 13.5681 42.6801 13.2552 42.6801 12.8693V9.22957C42.6801 8.84373 42.3656 8.53079 41.9777 8.53079H15.3351C14.9442 8.53079 14.6296 8.84372 14.6296 9.22957V12.8693C14.6296 13.0546 14.7059 13.2309 14.8373 13.3645C14.9686 13.4952 15.1488 13.5681 15.3351 13.5681ZM16.0375 9.93139H41.2721V12.1705L16.0375 12.1675V9.93139ZM42.5058 15.9865C42.5058 16.3724 42.1912 16.6853 41.8034 16.6853H15.5086C15.1208 16.6853 14.8032 16.3724 14.8032 15.9865C14.8032 15.6007 15.1208 15.2877 15.5086 15.2877H41.8034C41.9897 15.2877 42.1668 15.3606 42.3012 15.4913C42.4325 15.625 42.5058 15.8012 42.5058 15.9865Z" fill="white"/>
</svg>
