<svg width="34" height="60" viewBox="0 0 34 60" fill="none" xmlns="http://www.w3.org/2000/svg">
<path fill-rule="evenodd" clip-rule="evenodd" d="M17.7596 5.53393C17.1256 4.8999 16.2509 4.50911 15.2856 4.50911C14.3177 4.50911 13.443 4.89988 12.8115 5.53393C12.1775 6.16796 11.7867 7.04264 11.7867 8.00797C11.7867 8.97581 12.1775 9.85051 12.8115 10.482C12.8374 10.5079 12.8633 10.5338 12.8892 10.5571L12.8918 10.5596C13.518 11.1471 14.3591 11.5068 15.2856 11.5068C16.2121 11.5068 17.0557 11.1471 17.6794 10.5596L17.682 10.5571C17.7078 10.5312 17.7337 10.5079 17.7596 10.482C18.3936 9.84798 18.7844 8.9733 18.7844 8.00797C18.7844 7.04012 18.3937 6.16542 17.7596 5.53393ZM17.4335 12.6194C16.7814 12.9247 16.0516 13.0955 15.2856 13.0955C14.5169 13.0955 13.7898 12.9247 13.1376 12.6194V14.2653C13.8312 14.1074 14.548 14.0246 15.2856 14.0246C16.0231 14.0246 16.7425 14.1074 17.4335 14.2653V12.6194ZM19.6901 10.5516L29.2653 15.4582C29.4412 15.5488 29.6379 15.5566 29.8139 15.4997C29.9873 15.4427 30.14 15.3211 30.2305 15.1451C30.3211 14.9691 30.3289 14.7725 30.2719 14.5965C30.215 14.4231 30.0934 14.2704 29.9174 14.1798L22.2649 10.2591C21.9724 10.1427 21.7654 9.85544 21.7654 9.52159C21.7654 9.08423 22.1199 8.72712 22.5599 8.72712H31.0763C31.2756 8.72712 31.4567 8.6469 31.5861 8.51491C31.7155 8.38552 31.7983 8.20437 31.7983 8.0051C31.7983 7.80583 31.7181 7.62468 31.5861 7.49529C31.4567 7.36589 31.2756 7.28308 31.0763 7.28308H20.3213C20.3549 7.51858 20.373 7.75925 20.373 8.00507C20.373 8.93151 20.1246 9.80104 19.6925 10.5489L19.6901 10.5516ZM10.2157 8.43475H8.05743V11.4497H11.5381C10.7954 10.6422 10.3115 9.59413 10.2157 8.43475ZM23.4505 54.1678H7.11854V56.6625C7.11854 57.0403 7.27381 57.3845 7.52225 57.6356C7.77328 57.8866 8.11488 58.0393 8.49268 58.0393H22.0713C22.4491 58.0393 22.7933 57.884 23.0444 57.6356C23.2954 57.3845 23.4481 57.0429 23.4481 56.6625V54.1678H23.4505ZM23.4919 22.2717H7.07713C6.85199 22.2717 6.64495 22.3649 6.49744 22.515C6.34735 22.6651 6.25418 22.8695 6.25418 23.0947C6.25418 23.3198 6.34734 23.5269 6.49744 23.6744C6.55438 23.7313 6.62166 23.7805 6.69413 23.8219H6.69671L6.70448 23.8271C6.81835 23.8866 6.94515 23.9176 7.07972 23.9176H23.4945C23.6291 23.9176 23.7559 23.884 23.8697 23.8271L23.8775 23.8219C23.95 23.7831 24.0172 23.7339 24.0768 23.6744C24.2269 23.5243 24.32 23.3198 24.32 23.0947C24.32 22.8695 24.2269 22.6625 24.0768 22.515C23.9267 22.3649 23.7222 22.2717 23.4971 22.2717H23.4919ZM5.53218 24.9398V27.3673C5.39243 27.3388 5.24751 27.3233 5.10001 27.3233H4.91627C4.59537 26.2027 4.15028 24.9554 3.68441 23.6589C2.72949 20.9934 1.69433 18.1053 1.59343 15.7427C1.48474 13.1806 2.5846 11.188 6.47162 10.7894V12.2412C6.47162 12.6786 6.82616 13.0357 7.26609 13.0357H11.549V14.7747C10.7494 15.1086 10.0041 15.546 9.32858 16.0713C7.74481 17.3005 6.54403 19.0059 5.94877 20.9675C5.73657 21.0814 5.54247 21.2237 5.37426 21.3919C4.9369 21.8293 4.66777 22.4297 4.66777 23.0948C4.66777 23.7598 4.9395 24.3603 5.37426 24.7976C5.42343 24.8468 5.47519 24.8959 5.52954 24.9399L5.53218 24.9398ZM7.7293 20.6853H22.8449C22.2963 19.3526 21.4008 18.1958 20.2777 17.3236C19.5971 16.7957 18.8311 16.3713 18.0029 16.0789C17.9797 16.0711 17.9564 16.0633 17.9331 16.053C17.1024 15.7657 16.2121 15.6105 15.2882 15.6105C14.3644 15.6105 13.4741 15.7657 12.6434 16.053C12.6201 16.0633 12.5968 16.0711 12.5735 16.0789C11.748 16.3713 10.982 16.7957 10.2988 17.3236C9.17305 18.1958 8.2802 19.3551 7.73159 20.6853H7.7293ZM16.6008 3.08997V2.90105C16.6008 2.54133 16.4533 2.21264 16.2126 1.97202C15.9746 1.73393 15.6459 1.58384 15.2836 1.58384C14.9213 1.58384 14.5952 1.73135 14.3546 1.97202C14.1165 2.21011 13.9664 2.53877 13.9664 2.90105V3.08997C14.3857 2.97869 14.8256 2.91917 15.2811 2.91917C15.7365 2.91917 16.1765 2.97869 16.5957 3.08997H16.6008ZM12.3851 3.82753V2.90109C12.3851 2.10145 12.7112 1.37681 13.2366 0.851445C13.762 0.326082 14.4891 0 15.2862 0C16.0834 0 16.8105 0.326076 17.3359 0.851445C17.8612 1.37681 18.1873 2.10397 18.1873 2.90109V3.82753C18.4358 4.00092 18.6687 4.19501 18.8835 4.4098C19.2587 4.78505 19.577 5.21984 19.8203 5.69857H31.0775C31.7141 5.69857 32.2912 5.95735 32.7104 6.37398C33.1271 6.79064 33.3859 7.36774 33.3859 8.00692C33.3859 8.64354 33.1271 9.22062 32.7104 9.63984C32.2938 10.0565 31.7167 10.3153 31.0775 10.3153H25.8422L30.6376 12.7737C31.2044 13.0636 31.5977 13.5553 31.7789 14.1142C31.9601 14.6732 31.9264 15.2995 31.6366 15.8662C31.3467 16.433 30.855 16.8263 30.2961 17.0075C29.7371 17.1887 29.1108 17.155 28.5441 16.8652L19.018 11.9844V14.7741C19.8176 15.108 20.563 15.5453 21.2384 16.0706C22.8222 17.2999 24.023 19.0053 24.6182 20.9669C24.8305 21.0808 25.0245 21.2231 25.1928 21.3913C25.6301 21.8287 25.8993 22.4291 25.8993 23.0941C25.8993 23.7592 25.6275 24.3597 25.1928 24.797C25.1436 24.8461 25.0918 24.8953 25.0375 24.9393V56.6591C25.0375 57.4743 24.7036 58.2171 24.168 58.7528C23.6323 59.2885 22.8895 59.6223 22.0743 59.6223H8.49572C7.68051 59.6223 6.93779 59.2885 6.40209 58.7528C5.8664 58.2171 5.53256 57.4743 5.53256 56.6591V40.1847H2.29512C1.85776 40.1847 1.50065 39.8302 1.50065 39.3903V29.1964C1.50065 28.6607 1.74132 28.1793 2.12951 27.8377C2.43488 27.5686 2.83083 27.3874 3.26821 27.3357C2.9706 26.3549 2.59021 25.2913 2.19423 24.1914C1.1979 21.4146 0.121337 18.4074 0.0100368 15.8041C-0.137476 12.3312 1.30913 9.64754 6.46941 9.19724V7.6393C6.46941 7.20195 6.82396 6.84483 7.26388 6.84483H10.3305C10.5479 5.90541 11.0293 5.06695 11.6892 4.40703C11.904 4.19223 12.1369 3.99814 12.3853 3.82475L12.3851 3.82753ZM10.3278 35.0916C9.8904 35.0916 9.53328 34.737 9.53328 34.2971C9.53328 33.8597 9.88783 33.5026 10.3278 33.5026H23.4532V25.5036H7.12125V52.578H23.4532V35.0893H10.3278V35.0916ZM5.53238 35.0916H3.08683V38.6008H5.53238V35.0916ZM3.08683 33.5052H5.53238V29.2015C5.53238 29.142 5.49874 29.0825 5.4418 29.0333C5.35899 28.9609 5.23736 28.9143 5.1002 28.9143H3.5216C3.38185 28.9143 3.26281 28.9609 3.17999 29.0333C3.12306 29.0825 3.08942 29.142 3.08942 29.2015V33.5052H3.08683Z" fill="white"/>
</svg>
