<svg width="60" height="59" viewBox="0 0 60 59" fill="none" xmlns="http://www.w3.org/2000/svg">
<path d="M46.626 10.4736H13.3752C13.2302 10.4735 13.0877 10.4359 12.9615 10.3644C12.8353 10.2929 12.7298 10.1899 12.6552 10.0655L9.57663 4.93257C9.50021 4.80509 9.45896 4.65961 9.4571 4.51098C9.45523 4.36234 9.49282 4.21587 9.56601 4.08651C9.63921 3.95715 9.74541 3.84953 9.87376 3.77463C10.0021 3.69973 10.148 3.66023 10.2966 3.66016H49.7046C49.8532 3.66023 49.9991 3.69973 50.1275 3.77463C50.2559 3.84953 50.362 3.95715 50.4352 4.08651C50.5084 4.21587 50.546 4.36234 50.5442 4.51098C50.5423 4.65961 50.5011 4.80509 50.4246 4.93257L47.346 10.0655C47.2715 10.1899 47.1659 10.2929 47.0398 10.3644C46.9136 10.4359 46.7711 10.4735 46.626 10.4736ZM13.851 8.79305H46.1502L48.2208 5.34071H11.7804L13.851 8.79305Z" fill="white"/>
<path d="M42.4863 15.3327H17.5149C16.6663 15.3318 15.8529 14.9942 15.2529 14.394C14.6529 13.7938 14.3154 12.9801 14.3145 12.1313V9.63325C14.3145 9.41039 14.403 9.19666 14.5605 9.03908C14.718 8.8815 14.9317 8.79297 15.1545 8.79297C15.3772 8.79297 15.5909 8.8815 15.7484 9.03908C15.906 9.19666 15.9945 9.41039 15.9945 9.63325V12.1313C15.9949 12.5345 16.1553 12.9211 16.4403 13.2062C16.7253 13.4913 17.1118 13.6517 17.5149 13.6522H42.4863C42.8894 13.6518 43.276 13.4915 43.5612 13.2064C43.8464 12.9213 44.0068 12.5346 44.0073 12.1313V9.63325C44.0073 9.41039 44.0958 9.19666 44.2533 9.03908C44.4108 8.8815 44.6245 8.79297 44.8473 8.79297C45.07 8.79297 45.2837 8.8815 45.4412 9.03908C45.5988 9.19666 45.6873 9.41039 45.6873 9.63325V12.1313C45.6863 12.9802 45.3487 13.794 44.7486 14.3942C44.1485 14.9944 43.3349 15.3319 42.4863 15.3327Z" fill="white"/>
<path d="M20.3442 12.9052H19.5822C19.3594 12.9052 19.1457 12.8166 18.9882 12.6591C18.8307 12.5015 18.7422 12.2877 18.7422 12.0649C18.7422 11.842 18.8307 11.6283 18.9882 11.4707C19.1457 11.3131 19.3594 11.2246 19.5822 11.2246H20.3442C20.567 11.2246 20.7806 11.3131 20.9382 11.4707C21.0957 11.6283 21.1842 11.842 21.1842 12.0649C21.1842 12.2877 21.0957 12.5015 20.9382 12.6591C20.7806 12.8166 20.567 12.9052 20.3442 12.9052Z" fill="white"/>
<path d="M27.0356 12.9052H26.2736C26.0508 12.9052 25.8372 12.8166 25.6796 12.6591C25.5221 12.5015 25.4336 12.2877 25.4336 12.0649C25.4336 11.842 25.5221 11.6283 25.6796 11.4707C25.8372 11.3131 26.0508 11.2246 26.2736 11.2246H27.0356C27.2584 11.2246 27.472 11.3131 27.6296 11.4707C27.7871 11.6283 27.8756 11.842 27.8756 12.0649C27.8756 12.2877 27.7871 12.5015 27.6296 12.6591C27.472 12.8166 27.2584 12.9052 27.0356 12.9052Z" fill="white"/>
<path d="M33.727 12.9052H32.965C32.7422 12.9052 32.5286 12.8166 32.371 12.6591C32.2135 12.5015 32.125 12.2877 32.125 12.0649C32.125 11.842 32.2135 11.6283 32.371 11.4707C32.5286 11.3131 32.7422 11.2246 32.965 11.2246H33.727C33.9498 11.2246 34.1634 11.3131 34.321 11.4707C34.4785 11.6283 34.567 11.842 34.567 12.0649C34.567 12.2877 34.4785 12.5015 34.321 12.6591C34.1634 12.8166 33.9498 12.9052 33.727 12.9052Z" fill="white"/>
<path d="M40.4184 12.9052H39.6564C39.4336 12.9052 39.22 12.8166 39.0624 12.6591C38.9049 12.5015 38.8164 12.2877 38.8164 12.0649C38.8164 11.842 38.9049 11.6283 39.0624 11.4707C39.22 11.3131 39.4336 11.2246 39.6564 11.2246H40.4184C40.6412 11.2246 40.8548 11.3131 41.0124 11.4707C41.1699 11.6283 41.2584 11.842 41.2584 12.0649C41.2584 12.2877 41.1699 12.5015 41.0124 12.6591C40.8548 12.8166 40.6412 12.9052 40.4184 12.9052Z" fill="white"/>
<path d="M35.9006 22.9764C35.7774 22.9765 35.6557 22.9495 35.5441 22.8972C35.4325 22.845 35.3337 22.7689 35.2548 22.6742C35.1759 22.5795 35.1188 22.4686 35.0875 22.3494C35.0562 22.2302 35.0516 22.1055 35.0738 21.9843L36.2924 15.3329H23.7092L24.9248 21.9663C24.9582 22.1827 24.9058 22.4037 24.7788 22.582C24.6518 22.7604 24.4601 22.8821 24.2447 22.9212C24.0293 22.9603 23.8071 22.9138 23.6255 22.7915C23.4439 22.6692 23.3172 22.4808 23.2724 22.2664L21.875 14.6439C21.8529 14.5227 21.8576 14.3982 21.8889 14.2791C21.9202 14.16 21.9773 14.0492 22.0561 13.9546C22.1349 13.86 22.2336 13.7839 22.345 13.7317C22.4565 13.6794 22.5781 13.6524 22.7012 13.6523H37.3004C37.4236 13.6524 37.5452 13.6794 37.6566 13.7317C37.7681 13.7839 37.8668 13.86 37.9456 13.9546C38.0244 14.0492 38.0815 14.16 38.1128 14.2791C38.1441 14.3982 38.1488 14.5227 38.1266 14.6439L36.7262 22.2874C36.6909 22.4807 36.5889 22.6555 36.4381 22.7813C36.2873 22.9072 36.0971 22.9763 35.9006 22.9764Z" fill="white"/>
<path d="M30.0007 24.6472C28.3435 24.6472 26.7751 24.4623 25.5841 24.1268C24.0241 23.688 23.2363 23.0188 23.2363 22.1377C23.2363 21.2566 24.0259 20.588 25.5841 20.1493C26.7751 19.8138 28.3441 19.6289 30.0007 19.6289C31.6573 19.6289 33.2263 19.8138 34.4173 20.1493C35.9773 20.588 36.7651 21.2572 36.7651 22.1377C36.7651 23.0182 35.9755 23.688 34.4173 24.1292C33.2263 24.4623 31.6579 24.6472 30.0007 24.6472ZM25.0861 22.1377C25.3111 22.268 25.7281 22.4462 26.4277 22.6083C27.4231 22.8394 28.6921 22.9684 30.0007 22.9684C31.3093 22.9684 32.5807 22.8412 33.5737 22.6083C34.2733 22.4462 34.6903 22.268 34.9153 22.1377C34.6903 22.0081 34.2733 21.8298 33.5737 21.6672C32.5783 21.4367 31.3093 21.3071 30.0007 21.3071C28.6921 21.3071 27.4207 21.4343 26.4277 21.6672C25.7281 21.8298 25.3111 22.0081 25.0861 22.1377Z" fill="white"/>
<path d="M29.8647 56.3543C29.0235 56.3532 28.1879 56.2175 27.3897 55.9521C25.3077 55.2673 23.5776 53.7922 22.5717 51.8444C21.5561 49.9017 21.3262 47.6427 21.9297 45.5351C22.0497 45.115 22.1697 44.7476 22.2687 44.4547C22.3353 44.2543 22.3929 44.0814 22.4265 43.9608C22.7661 42.7424 22.4613 41.9063 22.4583 41.8985C22.4049 41.7681 22.3852 41.6265 22.4009 41.4865C22.4166 41.3466 22.4673 41.2128 22.5482 41.0975C22.629 40.9822 22.7376 40.8891 22.8639 40.8268C22.9901 40.7645 23.13 40.7349 23.2707 40.7407C24.0633 40.7737 24.8367 41.2599 25.5681 42.186L25.5879 42.2118C26.0823 41.2251 26.1657 40.3302 26.2827 38.0284C26.4687 34.363 29.9337 32.8277 30.0813 32.7641C30.2274 32.701 30.3885 32.6807 30.5457 32.7057C30.7029 32.7306 30.8498 32.7997 30.9692 32.9049C31.0887 33.0102 31.1758 33.1472 31.2204 33.3C31.265 33.4528 31.2653 33.6152 31.2213 33.7682C30.4929 36.2945 31.8009 38.0518 31.9941 38.2961C33.9417 40.0817 34.8897 41.9693 35.3505 43.3732C35.4236 43.0565 35.4783 42.7359 35.5143 42.4129C35.5336 42.2249 35.6156 42.0489 35.7472 41.9133C35.8788 41.7778 36.0522 41.6905 36.2395 41.6657C36.4267 41.6408 36.6169 41.6799 36.7793 41.7764C36.9416 41.873 37.0667 42.0215 37.1343 42.198C37.7193 43.7585 38.1129 45.199 38.3037 46.49C38.5626 48.2066 38.295 49.9614 37.5363 51.5227C36.7818 53.0876 35.5599 54.3793 34.0395 55.2193C32.6817 55.9743 31.2687 56.3543 29.8647 56.3543ZM24.2535 43.2285C24.2233 43.6282 24.1533 44.0239 24.0447 44.4097C24.0003 44.5694 23.9367 44.7602 23.8647 44.9817C23.7717 45.262 23.6559 45.6107 23.5467 45.9948C22.5381 49.542 24.4581 53.2146 27.9171 54.3562C29.6715 54.9348 31.4571 54.7313 33.2295 53.7512C35.6931 52.3875 37.0659 49.5696 36.6459 46.7397C36.5815 46.3095 36.4921 45.8586 36.3777 45.3868C36.0477 45.9366 35.6349 46.2727 35.1429 46.3904C35.0208 46.4193 34.8939 46.4206 34.7713 46.3941C34.6487 46.3675 34.5336 46.3139 34.4344 46.237C34.3353 46.1602 34.2546 46.0621 34.1983 45.95C34.142 45.8379 34.1115 45.7146 34.1091 45.5891C34.1091 45.5849 34.0803 44.7776 33.6609 43.6271C33.1005 42.0918 32.1453 40.7035 30.8217 39.5001C30.7981 39.4785 30.7756 39.4557 30.7545 39.4317C30.6831 39.3495 29.3277 37.7655 29.3217 35.2963C28.4721 36.1036 28.0143 37.0501 27.9609 38.1118C27.7995 41.2869 27.6999 42.2022 26.3067 44.2627C26.2245 44.3842 26.1119 44.4821 25.9801 44.5466C25.8484 44.611 25.7021 44.6399 25.5557 44.6302C25.4093 44.6206 25.2681 44.5728 25.1459 44.4915C25.0238 44.4103 24.925 44.2985 24.8595 44.1672C24.6887 43.8352 24.4857 43.5208 24.2535 43.2285Z" fill="white"/>
<path d="M27.7699 55.9988C27.6808 55.9986 27.5923 55.9845 27.5077 55.9568C27.4843 55.949 27.4615 55.9406 27.4387 55.931C26.7409 55.6309 25.1491 54.6249 25.4443 51.7128C25.5461 50.7291 25.9677 49.806 26.6443 49.0851C27.4843 48.1944 28.8937 46.3842 28.9117 44.2523C28.9128 44.0993 28.9556 43.9495 29.0356 43.819C29.1156 43.6885 29.2296 43.5824 29.3655 43.512C29.5013 43.4417 29.6538 43.4098 29.8065 43.4198C29.9591 43.4297 30.1062 43.4812 30.2317 43.5687C30.3919 43.6791 34.1515 46.3158 34.5127 49.8708C34.5889 50.6166 34.5867 51.3683 34.5061 52.1137C34.3141 53.8423 33.7057 55.0739 32.6977 55.7749C32.6071 55.838 32.5049 55.8825 32.3971 55.9061C32.2893 55.9297 32.1779 55.9318 32.0692 55.9123C31.9606 55.8928 31.8568 55.852 31.7639 55.7924C31.671 55.7328 31.5907 55.6555 31.5277 55.5648C31.4647 55.4742 31.4201 55.372 31.3965 55.2641C31.373 55.1563 31.3709 55.0448 31.3904 54.9361C31.4099 54.8275 31.4506 54.7237 31.5102 54.6307C31.5698 54.5378 31.6471 54.4575 31.7377 54.3944C32.9713 53.5368 32.9479 50.9169 32.8423 50.0664C32.8423 50.0598 32.8423 50.0532 32.8423 50.0466C32.6707 48.3319 31.3675 46.8056 30.3859 45.8776C29.8987 47.8325 28.6693 49.3894 27.8707 50.2375C27.4466 50.6885 27.1819 51.2662 27.1171 51.882C26.9401 53.598 27.6379 54.1814 28.0801 54.3782C28.2614 54.4507 28.4117 54.5841 28.5054 54.7554C28.599 54.9267 28.6301 55.1254 28.5932 55.3171C28.5564 55.5089 28.4539 55.6818 28.3035 55.8062C28.153 55.9306 27.9639 55.9987 27.7687 55.9988H27.7699Z" fill="white"/>
<path d="M14.9493 52.4696C14.8389 52.4698 14.7295 52.4481 14.6276 52.4057C14.5256 52.3634 14.4331 52.3013 14.3553 52.2229C10.3035 48.1704 10.3035 41.576 14.3553 37.5235C14.5128 37.3659 14.7265 37.2773 14.9493 37.2773C15.172 37.2773 15.3857 37.3659 15.5433 37.5235C15.7008 37.6811 15.7893 37.8948 15.7893 38.1177C15.7893 38.3405 15.7008 38.5543 15.5433 38.7119C12.1467 42.109 12.1467 47.6374 15.5433 51.0351C15.6607 51.1526 15.7408 51.3024 15.7732 51.4654C15.8056 51.6284 15.789 51.7973 15.7254 51.9509C15.6618 52.1044 15.5541 52.2357 15.416 52.328C15.2778 52.4203 15.1154 52.4696 14.9493 52.4696Z" fill="white"/>
<path d="M17.9296 49.4882C17.8193 49.4882 17.7101 49.4664 17.6082 49.4242C17.5062 49.382 17.4136 49.3201 17.3356 49.2421C16.1789 48.0825 15.5293 46.5113 15.5293 44.8732C15.5293 43.2351 16.1789 41.6639 17.3356 40.5044C17.413 40.4238 17.5057 40.3594 17.6082 40.3151C17.7108 40.2707 17.8212 40.2473 17.9329 40.2461C18.0446 40.245 18.1554 40.2661 18.2589 40.3084C18.3623 40.3506 18.4563 40.413 18.5354 40.4921C18.6144 40.5711 18.6769 40.6651 18.7191 40.7685C18.7614 40.872 18.7826 40.9828 18.7815 41.0946C18.7804 41.2064 18.757 41.3168 18.7128 41.4194C18.6685 41.522 18.6042 41.6147 18.5236 41.6922C17.6809 42.5362 17.2076 43.6803 17.2076 44.8732C17.2076 46.0661 17.6809 47.2103 18.5236 48.0543C18.6411 48.1718 18.7211 48.3215 18.7535 48.4845C18.786 48.6475 18.7693 48.8165 18.7057 48.9701C18.6422 49.1236 18.5345 49.2548 18.3963 49.3472C18.2582 49.4395 18.0958 49.4888 17.9296 49.4888V49.4882Z" fill="white"/>
<path d="M45.049 51.7762C44.8829 51.7762 44.7205 51.727 44.5823 51.6346C44.4442 51.5423 44.3365 51.4111 44.2729 51.2575C44.2093 51.104 44.1927 50.935 44.2251 50.772C44.2575 50.609 44.3376 50.4593 44.455 50.3418C46.0861 48.7062 47.0021 46.4903 47.0021 44.1801C47.0021 41.8699 46.0861 39.654 44.455 38.0185C44.377 37.9405 44.3152 37.8478 44.2729 37.7459C44.2307 37.6439 44.209 37.5347 44.209 37.4243C44.209 37.314 44.2307 37.2047 44.2729 37.1027C44.3152 37.0008 44.377 36.9081 44.455 36.8301C44.5331 36.7521 44.6257 36.6902 44.7276 36.6479C44.8295 36.6057 44.9387 36.584 45.049 36.584C45.1594 36.584 45.2686 36.6057 45.3705 36.6479C45.4724 36.6902 45.565 36.7521 45.643 36.8301C47.5892 38.7808 48.6822 41.4242 48.6822 44.1801C48.6822 46.9361 47.5892 49.5794 45.643 51.5301C45.565 51.6082 45.4724 51.6701 45.3705 51.7123C45.2686 51.7545 45.1594 51.7762 45.049 51.7762Z" fill="white"/>
<path d="M42.0705 48.7975C41.9044 48.7975 41.742 48.7482 41.6038 48.6559C41.4657 48.5636 41.358 48.4323 41.2944 48.2788C41.2308 48.1252 41.2142 47.9563 41.2466 47.7933C41.279 47.6303 41.359 47.4805 41.4765 47.363C42.3192 46.519 42.7926 45.3749 42.7926 44.182C42.7926 42.9891 42.3192 41.8449 41.4765 41.0009C41.319 40.8433 41.2305 40.6296 41.2305 40.4067C41.2305 40.1839 41.319 39.9701 41.4765 39.8125C41.6341 39.6549 41.8477 39.5664 42.0705 39.5664C42.2933 39.5664 42.507 39.6549 42.6645 39.8125C43.8212 40.9721 44.4709 42.5433 44.4709 44.1814C44.4709 45.8195 43.8212 47.3907 42.6645 48.5502C42.5868 48.6287 42.4943 48.691 42.3923 48.7334C42.2903 48.7759 42.181 48.7976 42.0705 48.7975Z" fill="white"/>
<path d="M23.24 26.6091C23.0848 26.6094 22.9325 26.5666 22.8001 26.4856C22.6676 26.4045 22.5602 26.2884 22.4898 26.15C22.4194 26.0116 22.3887 25.8564 22.4011 25.7016C22.4136 25.5468 22.4686 25.3984 22.5602 25.2731L22.5776 25.249C22.6417 25.1575 22.7234 25.0796 22.818 25.02C22.9125 24.9604 23.018 24.9203 23.1283 24.902C23.2385 24.8837 23.3513 24.8876 23.4601 24.9134C23.5688 24.9393 23.6713 24.9866 23.7615 25.0525C23.8517 25.1185 23.9279 25.2018 23.9855 25.2976C24.0431 25.3934 24.0811 25.4997 24.0971 25.6104C24.1131 25.721 24.1069 25.8337 24.0789 25.942C24.0508 26.0502 24.0014 26.1517 23.9336 26.2406L23.9162 26.2652C23.8384 26.3715 23.7366 26.4581 23.6191 26.5178C23.5017 26.5776 23.3718 26.6088 23.24 26.6091Z" fill="white"/>
<path d="M18.6134 32.9277C18.4585 32.927 18.3069 32.8834 18.1753 32.8019C18.0436 32.7204 17.937 32.6041 17.8673 32.4658C17.7976 32.3275 17.7674 32.1726 17.7802 32.0182C17.7929 31.8639 17.8481 31.716 17.9396 31.5911L17.972 31.5466C18.1047 31.3699 18.3017 31.2526 18.5203 31.2202C18.7389 31.1878 18.9615 31.2428 19.1398 31.3734C19.3181 31.504 19.4377 31.6996 19.4728 31.9179C19.508 32.1361 19.4557 32.3594 19.3274 32.5394L19.2944 32.5844C19.216 32.6913 19.1134 32.7781 18.9951 32.8378C18.8767 32.8975 18.7459 32.9283 18.6134 32.9277ZM20.9264 29.7707C20.7712 29.7706 20.6191 29.7275 20.487 29.6463C20.3548 29.565 20.2477 29.4488 20.1775 29.3103C20.1074 29.1719 20.0769 29.0168 20.0895 28.8621C20.1021 28.7074 20.1573 28.5592 20.249 28.434L20.2796 28.3902C20.4123 28.2135 20.6093 28.0962 20.8279 28.0638C21.0465 28.0314 21.2691 28.0864 21.4474 28.217C21.6257 28.3476 21.7453 28.5432 21.7804 28.7614C21.8156 28.9797 21.7633 29.203 21.635 29.3829L21.602 29.4279C21.5241 29.534 21.4223 29.6203 21.305 29.6798C21.1876 29.7393 21.0579 29.7705 20.9264 29.7707Z" fill="white"/>
<path d="M16.3157 36.0661C16.1607 36.066 16.0087 36.0229 15.8767 35.9417C15.7446 35.8605 15.6375 35.7443 15.5674 35.6059C15.4973 35.4676 15.4668 35.3126 15.4793 35.158C15.4918 35.0034 15.5469 34.8553 15.6383 34.7301L15.6557 34.7061C15.7198 34.6145 15.8015 34.5366 15.8961 34.477C15.9907 34.4174 16.0962 34.3773 16.2064 34.359C16.3167 34.3407 16.4294 34.3446 16.5382 34.3704C16.6469 34.3963 16.7494 34.4436 16.8396 34.5096C16.9298 34.5755 17.006 34.6589 17.0636 34.7547C17.1213 34.8504 17.1592 34.9568 17.1752 35.0674C17.1913 35.178 17.1851 35.2908 17.157 35.399C17.1289 35.5072 17.0795 35.6087 17.0117 35.6976L16.9943 35.7222C16.9163 35.8289 16.8141 35.9157 16.6962 35.9754C16.5783 36.0352 16.4479 36.0663 16.3157 36.0661Z" fill="white"/>
<path d="M36.7607 26.6091C36.6286 26.6092 36.4982 26.5781 36.3803 26.5184C36.2624 26.4586 36.1602 26.3719 36.0821 26.2652L36.0647 26.2406C35.997 26.1517 35.9476 26.0502 35.9195 25.942C35.8914 25.8337 35.8852 25.721 35.9013 25.6104C35.9173 25.4997 35.9552 25.3934 36.0129 25.2976C36.0705 25.2018 36.1466 25.1185 36.2369 25.0525C36.3271 24.9866 36.4296 24.9393 36.5383 24.9134C36.647 24.8876 36.7598 24.8837 36.8701 24.902C36.9803 24.9203 37.0858 24.9604 37.1804 25.02C37.2749 25.0796 37.3567 25.1575 37.4207 25.249L37.4381 25.2731C37.5296 25.3983 37.5847 25.5464 37.5972 25.701C37.6097 25.8556 37.5792 26.0106 37.5091 26.1489C37.4389 26.2872 37.3319 26.4034 37.1998 26.4846C37.0678 26.5659 36.9158 26.6089 36.7607 26.6091Z" fill="white"/>
<path d="M41.3865 32.9271C41.2544 32.9272 41.1242 32.8962 41.0064 32.8365C40.8886 32.7769 40.7865 32.6903 40.7085 32.5838L40.6755 32.5388C40.5471 32.3588 40.4949 32.1355 40.53 31.9173C40.5651 31.699 40.6848 31.5034 40.8631 31.3728C41.0414 31.2423 41.2639 31.1872 41.4825 31.2196C41.7011 31.2521 41.8981 31.3693 42.0309 31.5461L42.0633 31.5905C42.1549 31.7157 42.2101 31.8638 42.2227 32.0184C42.2353 32.173 42.2049 32.3281 42.1348 32.4665C42.0648 32.6049 41.9577 32.7212 41.8257 32.8025C41.6936 32.8838 41.5416 32.9269 41.3865 32.9271ZM39.0735 29.7701C38.9414 29.7702 38.8112 29.7392 38.6934 29.6795C38.5756 29.6199 38.4735 29.5333 38.3955 29.4268L38.3631 29.3818C38.2315 29.2017 38.1769 28.9768 38.2112 28.7565C38.2454 28.5361 38.3658 28.3384 38.5458 28.2069C38.7257 28.0753 38.9506 28.0206 39.1708 28.0549C39.3911 28.0892 39.5887 28.2096 39.7203 28.3896L39.7533 28.434C39.8449 28.5594 39.8999 28.7077 39.9123 28.8625C39.9248 29.0173 39.8941 29.1726 39.8237 29.311C39.7532 29.4494 39.6458 29.5655 39.5134 29.6466C39.381 29.7276 39.2287 29.7704 39.0735 29.7701Z" fill="white"/>
<path d="M43.6846 36.0661C43.5524 36.0663 43.422 36.0352 43.3041 35.9754C43.1862 35.9157 43.0841 35.8289 43.006 35.7222L42.9886 35.6976C42.9208 35.6087 42.8714 35.5072 42.8433 35.399C42.8153 35.2908 42.8091 35.178 42.8251 35.0674C42.8411 34.9568 42.8791 34.8504 42.9367 34.7547C42.9943 34.6589 43.0705 34.5755 43.1607 34.5096C43.2509 34.4436 43.3534 34.3963 43.4621 34.3704C43.5709 34.3446 43.6837 34.3407 43.7939 34.359C43.9042 34.3773 44.0097 34.4174 44.1042 34.477C44.1988 34.5366 44.2805 34.6145 44.3446 34.7061L44.362 34.7301C44.4534 34.8553 44.5085 35.0034 44.521 35.158C44.5335 35.3126 44.503 35.4676 44.4329 35.6059C44.3628 35.7443 44.2557 35.8605 44.1237 35.9417C43.9916 36.0229 43.8396 36.066 43.6846 36.0661Z" fill="white"/>
</svg>
