<svg width="43" height="59" viewBox="0 0 43 59" fill="none" xmlns="http://www.w3.org/2000/svg">
<path fill-rule="evenodd" clip-rule="evenodd" d="M7.31946 40.2454C7.34793 40.198 7.34211 40.2077 7.31946 40.2454ZM22.5769 45.2153L19.6139 48.093C18.4559 49.2173 16.6651 49.4497 15.2471 48.6545L8.59976 44.9277C7.79367 44.4759 7.20754 43.7294 6.96688 42.8556C6.72363 41.9754 6.84979 41.0374 7.31882 40.2473L7.31946 40.2454C7.78202 39.4677 8.54218 38.8971 9.43625 38.6647C10.3226 38.4336 11.2664 38.5557 12.0609 39.001L16.1127 41.2723C16.3449 41.4022 16.638 41.3684 16.8275 41.1841L18.8544 39.2158C18.9637 38.7439 19.1461 38.2856 19.4004 37.8591L23.0343 31.7467L21.8698 31.5416L17.9105 33.761C17.1161 34.207 16.1715 34.3284 15.2859 34.0979C14.3918 33.8649 13.6316 33.2949 13.1691 32.5166C12.6994 31.7266 12.5733 30.7873 12.8165 29.9064C13.0572 29.0333 13.6426 28.2861 14.4494 27.8343L20.5222 24.4295C20.7214 24.3178 20.9537 24.2821 21.1762 24.3282L27.4186 25.6213C27.513 25.6408 27.6049 25.6752 27.689 25.7226L31.7026 27.9725C32.6827 28.5224 33.2792 29.4662 33.406 30.4796L36.3243 33.4358L40.4097 34.4991C41.3032 34.7315 42.0633 35.3015 42.5259 36.0798C42.9955 36.8698 43.1223 37.8085 42.8791 38.69C42.6378 39.5638 42.0523 40.3103 41.2456 40.7621C40.4511 41.2081 39.5072 41.3295 38.6209 41.099L32.9699 39.6287C32.8056 39.5859 32.6555 39.4995 32.5358 39.3788L30.2754 37.1016L28.2408 40.5232L30.3505 41.706C31.9445 42.5992 32.9208 44.2545 32.9208 46.0417V55.5861C32.9208 56.4949 32.5507 57.368 31.8889 58.0113C31.2381 58.643 30.3563 59 29.4364 59C28.5164 59 27.634 58.643 26.9832 58.0113C26.3207 57.368 25.9513 56.4949 25.9513 55.5861V47.301C25.9513 47.177 25.8769 47.0654 25.7663 47.003L22.5769 45.2153ZM7.31882 40.2473C6.89378 40.9627 7.22954 40.3979 7.31882 40.2473ZM18.9715 41.7514L18.1466 42.5518C17.3619 43.3139 16.1482 43.4723 15.1875 42.9335L11.1358 40.6621C10.7657 40.4551 10.3251 40.3992 9.91239 40.507C9.50612 40.6122 9.15871 40.8673 8.94846 41.2204C8.74532 41.5612 8.68968 41.9676 8.79448 42.348C8.90188 42.7362 9.16647 43.0653 9.52488 43.2665L16.1722 46.9933C16.8612 47.3796 17.7319 47.2718 18.2948 46.7252L20.8605 44.2338C19.9678 43.632 19.304 42.7589 18.9715 41.7514ZM32.9059 32.6776L31.2782 35.4144L33.6971 37.8513L39.0971 39.2567C39.5098 39.3638 39.9504 39.3087 40.3205 39.1009C40.6795 38.8997 40.9435 38.5706 41.0508 38.1824C41.0094 38.333 41.003 38.357 41.0508 38.1824C41.1162 37.9454 41.0534 38.1733 41.0508 38.1824C41.1563 37.8013 41.1 37.3963 40.8969 37.0548C40.6873 36.7017 40.3392 36.4466 39.9336 36.3414L35.5959 35.2125C35.4302 35.1697 35.2801 35.0827 35.1598 34.9613L32.9059 32.6776ZM29.2811 35.0593L31.3338 31.6065C31.7453 30.9151 31.4897 30.0336 30.7775 29.6344L26.8919 27.4558L21.1387 26.264L15.3745 29.4955C15.0154 29.6967 14.7515 30.0258 14.6441 30.414C14.5393 30.7951 14.5949 31.2001 14.7981 31.5416L14.7994 31.5435C15.0096 31.8954 15.3564 32.1498 15.7614 32.2556C16.1748 32.3628 16.6153 32.3076 16.9854 32.0998L21.239 29.7155C21.4292 29.6084 21.6504 29.5708 21.8652 29.6084L24.7176 30.1115C25.0249 30.1654 25.2862 30.3679 25.4163 30.6522C25.5457 30.9372 25.5282 31.2676 25.3684 31.5364L21.0287 38.8341C20.6354 39.4956 20.528 40.2817 20.7318 41.0198C20.9375 41.7657 21.4428 42.3993 22.1311 42.7855L22.8706 43.1997C22.8816 43.2055 22.8926 43.212 22.9029 43.2178L26.6914 45.3419C27.4108 45.745 27.8481 46.4941 27.8481 47.301V55.5861C27.8481 55.9827 28.0131 56.3625 28.3023 56.6436C28.6025 56.9351 29.0107 57.0967 29.4357 57.0967C29.4389 57.0967 29.4448 57.0967 29.4448 57.0967C29.8666 57.0947 30.2716 56.9331 30.5698 56.6436C30.859 56.3625 31.0239 55.9827 31.0239 55.5861V46.0417C31.0239 44.9368 30.4106 43.9196 29.4254 43.3672L26.4637 41.7073C26.2405 41.582 26.0768 41.371 26.0102 41.1224C25.9442 40.8744 25.9811 40.6096 26.1117 40.3889L29.2623 35.0905C29.2681 35.0801 29.2746 35.0697 29.2811 35.0593ZM5.85868 17.9172H1.89682V58.0483C1.89682 58.5735 1.47179 59 0.948412 59C0.425039 59 0 58.5735 0 58.0483V16.9656C0 16.4404 0.424392 16.0139 0.948412 16.0139H5.84703V15.8321C5.84703 15.3816 6.02494 14.9499 6.34259 14.6312C6.66023 14.3125 7.09045 14.134 7.53942 14.134H7.66363V8.10789C7.66363 7.19194 8.02657 6.31299 8.67221 5.66514C9.31786 5.01793 10.1932 4.65376 11.106 4.65376H16.0945C17.0074 4.65376 17.8827 5.01793 18.5283 5.66514C19.174 6.31299 19.5369 7.19194 19.5369 8.10789V14.134H19.8261C20.2751 14.134 20.7053 14.3125 21.0229 14.6312C21.3406 14.9499 21.5191 15.3816 21.5191 15.8321V16.0139H24.9227C25.4467 16.0139 25.8711 16.4404 25.8711 16.9656V22.7806C25.8711 23.3058 25.446 23.7323 24.9227 23.7323C24.3993 23.7323 23.9743 23.3058 23.9743 22.7806V17.9172H21.5075C21.4628 18.295 21.2933 18.6488 21.0229 18.9208C20.7053 19.2389 20.2751 19.418 19.8261 19.418H7.53942C7.09045 19.418 6.66023 19.2389 6.34259 18.9208C6.07217 18.6488 5.90267 18.295 5.85868 17.9172ZM9.56046 14.134H12.6522V11.3731C12.6522 10.848 13.0766 10.4215 13.5999 10.4215C14.124 10.4215 14.5484 10.848 14.5484 11.3731V14.134H17.6401V8.10789C17.6401 7.69633 17.477 7.3023 17.1872 7.01148C16.8974 6.72066 16.5041 6.55707 16.0945 6.55707H11.106C10.6965 6.55707 10.3031 6.72066 10.0133 7.01148C9.72349 7.3023 9.56046 7.69633 9.56046 8.10789V14.134ZM19.6223 16.0373H7.74386V17.5147H19.6223V16.0373ZM35.0473 19.9244C37.0955 21.0721 37.787 23.6219 36.6044 25.6103C35.4374 27.5733 32.8509 28.2575 30.8292 27.1241C28.7817 25.9758 28.0894 23.4265 29.272 21.4376C30.4391 19.4745 33.0256 18.791 35.0473 19.9244ZM34.1221 21.5856C32.9958 20.9546 31.5512 21.3194 30.901 22.4132C30.2657 23.4811 30.6545 24.8456 31.7543 25.4623C32.8807 26.0939 34.3253 25.7291 34.9754 24.6353C35.6107 23.5674 35.2226 22.2022 34.1221 21.5856ZM12.6522 0.951655C12.6522 0.426492 13.0766 0 13.5999 0C14.124 0 14.5484 0.426492 14.5484 0.951655V2.45054C14.5484 2.97571 14.124 3.4022 13.5999 3.4022C13.0766 3.4022 12.6522 2.97571 12.6522 2.45054V0.951655ZM7.586 2.82381C7.32464 2.36875 7.4799 1.78646 7.93341 1.52356C8.38627 1.2613 8.96722 1.4171 9.22858 1.87215L9.97579 3.17045C10.2372 3.62486 10.0819 4.20779 9.62839 4.47005C9.17553 4.73296 8.59458 4.57651 8.33322 4.12211L7.586 2.82381ZM4.132 6.98616C3.67849 6.7239 3.52323 6.14161 3.78459 5.68656C4.0466 5.23151 4.6269 5.07571 5.08041 5.33797L6.37364 6.08773C6.82714 6.34999 6.98241 6.93293 6.72105 7.38733C6.45904 7.84239 5.87873 7.99818 5.42523 7.73593L4.132 6.98616ZM17.972 1.87215C18.2333 1.4171 18.8143 1.2613 19.2671 1.52356C19.7206 1.78646 19.8759 2.36875 19.6145 2.82381L18.8673 4.12211C18.606 4.57651 18.025 4.73296 17.5721 4.47005C17.1186 4.20779 16.9634 3.62486 17.2247 3.17045L17.972 1.87215ZM22.1201 5.33797C22.5736 5.07571 23.1539 5.23151 23.4159 5.68656C23.6773 6.14161 23.522 6.7239 23.0685 6.98616L21.7753 7.73593C21.3218 7.99818 20.7415 7.84239 20.4795 7.38733C20.2175 6.93293 20.3734 6.34999 20.8269 6.08773L22.1201 5.33797Z" fill="white"/>
</svg>
