<svg width="61" height="46" viewBox="0 0 61 46" fill="none" xmlns="http://www.w3.org/2000/svg">
<path d="M30.0616 0.000210863C25.2915 0.00608872 20.7152 1.90179 17.3413 5.27591C13.9672 8.6471 12.0715 13.2207 12.0627 17.9902V39.0578H10.4991C9.31465 39.0637 8.35352 40.0248 8.35352 41.2122V43.1843V43.1814C8.37409 44.3541 9.32932 45.2917 10.4991 45.2976H49.6246C50.8062 45.2917 51.7644 44.3336 51.7702 43.152V41.1798C51.7702 39.9954 50.8092 39.0342 49.6246 39.0284H48.1198V17.9608C48.1051 13.1847 46.1947 8.61128 42.8088 5.24348C39.423 1.87522 34.8372 -0.0115268 30.0616 0.000210863ZM13.5853 17.9904C13.5853 12.1034 16.7243 6.66585 21.8235 3.7209C26.9199 0.778809 33.2037 0.778809 38.2998 3.7209C43.3992 6.66592 46.538 12.1035 46.538 17.9904V39.058H13.5845L13.5853 17.9904ZM49.6244 40.5478C49.9712 40.5537 50.2475 40.8358 50.2475 41.1797V43.1519C50.2475 43.3165 50.1829 43.4752 50.0653 43.5927C49.9477 43.7103 49.789 43.775 49.6244 43.775H10.4989C10.155 43.775 9.87578 43.4957 9.87578 43.1519V41.1797C9.87578 40.8358 10.1521 40.5537 10.4989 40.5478L49.6244 40.5478Z" fill="white"/>
<path d="M36.9763 15.3367C36.6266 15.4131 36.3797 15.7305 36.3885 16.0891C36.3856 16.9826 36.3062 17.8731 36.1475 18.752C35.589 16.9562 34.6103 15.3191 33.2965 13.9729C31.3626 12.2741 30.4455 9.6965 30.8717 7.1571C30.907 6.88376 30.7894 6.61043 30.566 6.44877C30.3456 6.29006 30.0605 6.25772 29.8136 6.36647C26.5483 7.8713 25.1257 10.6253 25.593 14.5226H25.5901C25.4931 15.372 25.2844 16.2038 24.9729 16.9974C24.5761 15.7601 23.7297 14.7107 22.604 14.0553C22.3395 13.8995 22.0073 13.9172 21.7634 14.1023C21.5165 14.2875 21.4107 14.602 21.49 14.8988C21.8222 16.2831 21.346 17.9085 20.5407 19.9923H20.5437C20.5378 20.0246 20.5378 20.0599 20.5437 20.0922C18.6538 27.9542 20.8523 32.5891 27.3154 34.2677C27.6181 34.353 27.9414 34.2383 28.1266 33.9826C28.3117 33.7269 28.3176 33.386 28.1413 33.1244C27.1537 31.7254 26.5248 30.1089 26.3072 28.413C26.5247 28.5982 26.754 28.7657 26.9979 28.9156C27.2389 29.0773 27.5534 29.0861 27.8033 28.9362C28.0531 28.7863 28.1942 28.5071 28.1648 28.2161C27.9238 25.2065 28.344 23.1961 29.5579 21.8353L29.555 21.8382C29.699 23.4636 30.5484 24.9448 31.8828 25.8912C33.2965 27.9898 33.1408 30.2411 31.3773 33.1362V33.1391C31.2039 33.4124 31.2303 33.7681 31.4361 34.0179C31.5801 34.1943 31.7976 34.2971 32.0239 34.2971C32.115 34.2971 32.2061 34.2795 32.2884 34.2442C36.1328 32.8158 38.631 30.6791 39.7214 27.8928C40.9794 24.6862 40.3622 20.6096 37.908 15.7571C37.7551 15.3956 37.3496 15.2103 36.9763 15.3367ZM38.2255 27.3136C37.4731 29.2034 35.9682 30.7582 33.5993 31.9574H33.5964C34.6868 29.6649 34.4399 26.9639 32.9586 24.9065C32.8969 24.8242 32.8175 24.7507 32.7323 24.6949C31.5067 23.9424 30.8953 22.5141 30.8747 20.3009H30.8718C30.8718 20.0246 30.719 19.7689 30.475 19.6396C30.2428 19.5044 29.9548 19.5044 29.7226 19.6396C27.2684 21.2561 26.6013 23.7338 26.5248 26.1174C26.5248 26.0204 26.466 25.9205 26.4337 25.8088C26.3485 25.465 26.0369 25.2269 25.6813 25.2386C25.3286 25.2269 25.0171 25.462 24.9289 25.803C24.4116 27.9485 24.7114 30.2146 25.7724 32.1514C21.6488 30.3615 20.5055 26.6818 21.9516 20.474H21.9486C22.4953 19.2131 22.8657 17.8846 23.0567 16.5238C23.5299 17.3174 23.8238 18.2079 23.912 19.1278C23.9502 19.4364 24.1706 19.6892 24.4704 19.7686C24.7673 19.8479 25.0818 19.7421 25.2669 19.4952C26.3015 18.055 26.9305 16.365 27.0892 14.5987C27.0951 14.5369 27.0951 14.4723 27.0892 14.4106C26.7424 11.6713 27.4566 9.6845 29.2641 8.39125C29.2494 10.9218 30.3281 13.3378 32.2209 15.019C33.9579 16.7854 34.9954 19.122 35.1482 21.5967C35.1688 21.92 35.3981 22.1934 35.7126 22.2727C36.027 22.3579 36.3621 22.2316 36.5385 21.9553C37.091 21.0618 37.4614 20.0684 37.6289 19.0309C38.8927 22.3256 39.0896 25.1032 38.2255 27.3136Z" fill="white"/>
<path d="M54.3943 7.79808C54.2503 7.93915 54.168 8.13313 54.168 8.33593C54.168 8.5358 54.2503 8.72978 54.3943 8.87379C57.113 11.6013 58.6383 15.2958 58.6383 19.1457C58.6383 22.9989 57.113 26.6932 54.3943 29.4207C54.2503 29.5618 54.168 29.7558 54.168 29.9586C54.168 30.1614 54.2503 30.3553 54.3943 30.4964C54.5354 30.6404 54.7293 30.7198 54.9292 30.7198C55.1291 30.7198 55.3201 30.6404 55.4641 30.4964C58.4708 27.4838 60.1579 23.4014 60.1579 19.1455C60.1579 14.8896 58.4708 10.8073 55.4641 7.7976C55.3201 7.65358 55.1291 7.57422 54.9292 7.57422C54.7293 7.57422 54.5354 7.65406 54.3943 7.79808Z" fill="white"/>
<path d="M50.5642 26.6672C50.7053 26.8112 50.8963 26.8935 51.0991 26.8935C51.3019 26.8935 51.4988 26.8141 51.6399 26.6672C53.6355 24.6715 54.7583 21.9646 54.7583 19.143C54.7583 16.3215 53.6355 13.6145 51.6399 11.6189C51.4988 11.4749 51.3049 11.3926 51.1021 11.3926C50.8993 11.3926 50.7053 11.4749 50.5642 11.6189C50.4202 11.76 50.3379 11.9539 50.3379 12.1567C50.3379 12.3595 50.4202 12.5535 50.5642 12.6946C54.1264 16.2568 54.1264 22.029 50.5642 25.5917C50.4202 25.7328 50.3379 25.9268 50.3379 26.1296C50.3379 26.3324 50.4202 26.5261 50.5642 26.6672Z" fill="white"/>
<path d="M5.23165 30.724C5.43151 30.724 5.6255 30.6417 5.76657 30.4977C5.91059 30.3566 5.99289 30.1626 5.99289 29.9598C5.99289 29.757 5.91059 29.563 5.76657 29.422C3.04787 26.6945 1.52251 23 1.52251 19.147C1.52251 15.2968 3.04787 11.6026 5.76657 8.87505C6.06342 8.5782 6.06342 8.09916 5.76951 7.80226C5.4756 7.50536 4.99362 7.50247 4.69672 7.79932C1.69 10.809 0 14.8914 0 19.1472C0 23.403 1.69 27.4855 4.69672 30.4981C4.8378 30.6422 5.03179 30.724 5.23165 30.724Z" fill="white"/>
<path d="M8.48165 26.6684C8.62273 26.8154 8.81965 26.8947 9.02245 26.8947C9.33106 26.9006 9.61322 26.7155 9.73078 26.4304C9.84835 26.1423 9.78075 25.8131 9.55737 25.6015C5.99514 22.0393 5.99514 16.264 9.55737 12.7044C9.70139 12.5633 9.78369 12.3693 9.78369 12.1665C9.78369 11.9637 9.70139 11.7697 9.55737 11.6287C9.4163 11.4817 9.22232 11.4023 9.01952 11.4023C8.81672 11.4023 8.62274 11.4817 8.48166 11.6287C6.48603 13.6213 5.36328 16.3283 5.36328 19.1528C5.36328 21.9743 6.48603 24.6813 8.48166 26.6769L8.48165 26.6684Z" fill="white"/>
</svg>
