<svg width="324" height="41" viewBox="0 0 324 41" fill="none" xmlns="http://www.w3.org/2000/svg">
<g clip-path="url(#clip0_160_2542)">
<path d="M36.1063 22.1675C35.5762 24.2621 35.0389 26.3556 34.517 28.4525C34.1202 30.0476 33.7459 31.6472 33.3515 33.2423C33.2689 33.5745 33.1437 33.8978 33.0445 34.2088C31.82 34.3704 13.9378 34.4501 9.31844 34.3199C9.09409 34.3132 8.86383 34.3311 8.5946 34.1122C9.46959 30.161 10.5536 26.203 11.4474 22.2057C11.8312 21.1022 12.15 19.9842 12.2539 18.8202C12.9282 16.1295 13.6036 13.4399 14.2767 10.7492C14.54 9.69745 14.8328 8.65126 15.0466 7.5916C15.2815 6.42643 15.4551 6.62736 16.4104 6.6195C17.5026 6.61052 18.5949 6.61726 19.6872 6.61726C25.877 6.61726 32.0668 6.61726 38.2566 6.61726H39.6027C39.8046 8.60524 38.6144 9.96236 36.6259 9.97583C32.8485 10.0028 29.0711 9.98369 25.2936 9.98481C23.8377 9.98481 22.3806 9.98032 20.9246 9.98594C18.7697 9.99379 17.838 10.6785 17.355 12.6384C16.506 16.0902 15.6724 19.5442 14.8305 22.9971C14.5117 24.3025 14.1881 25.6069 13.8705 26.9124C13.8091 27.165 13.7465 27.4187 13.7122 27.6757C13.4808 29.4078 14.5719 30.7346 16.3962 30.9355C16.7115 30.9703 17.0327 30.9568 17.3503 30.9568C20.6731 30.958 23.9948 30.9591 27.3176 30.9557C27.6812 30.9557 28.0497 30.9636 28.4063 30.9063C29.6355 30.7088 30.5329 30.0599 30.8376 28.9049C31.4008 26.7687 31.8719 24.6101 32.3785 22.4605C32.388 22.4223 32.3632 22.3763 32.3384 22.2573C31.7692 22.0429 31.1316 22.2147 30.5211 22.1462C30.2377 22.1148 30.1338 21.9677 30.1728 21.7151C30.4562 19.8663 31.7184 18.8112 33.7081 18.7966C34.7531 18.7887 35.7981 18.8303 36.8432 18.8493C36.5869 19.9528 36.2303 21.0371 36.1075 22.1675H36.1063Z" fill="#E6321E"/>
<path d="M36.1058 22.1675C36.2286 21.0371 36.584 19.9528 36.8414 18.8493C39.1121 18.8493 41.3817 18.8493 43.6169 18.8493C43.8708 19.0581 43.774 19.2781 43.7268 19.4712C42.037 26.3747 40.3414 33.2782 38.6481 40.1806C38.628 40.2648 38.6221 40.3523 38.5985 40.4354C38.4674 40.908 38.3978 40.9607 37.8404 40.9832C37.6137 40.9921 37.3858 40.9854 37.1579 40.9854C25.1868 40.9854 13.2158 40.9854 1.24469 40.9854C0.971924 40.9854 0.697976 40.991 0.425208 40.9798C0.0579755 40.9641 -0.0565633 40.8384 0.0249127 40.487C0.420485 38.7999 0.823142 37.1138 1.23288 35.4289C2.04292 32.1018 2.85886 28.7769 3.67244 25.4509C3.69251 25.3667 3.71495 25.2825 3.73739 25.1983C3.99716 24.2273 4.1979 24.1308 5.12838 24.5338C6.20174 24.9985 6.84292 26.0065 6.74609 27.1537C6.71067 27.5814 6.59377 28.0057 6.49222 28.4255C6.04587 30.2799 5.59834 32.1332 5.13547 33.9831C5.00676 34.4984 4.95598 35.008 5.09768 35.5221C5.40941 36.6536 6.38949 37.4528 7.62698 37.5763C7.98831 37.6122 8.35436 37.6055 8.71805 37.6055C16.6838 37.6066 24.6496 37.6066 32.6153 37.6055C32.979 37.6055 33.3451 37.6156 33.7064 37.5797C34.9085 37.4618 35.7114 36.8377 36.153 35.7803C36.2369 35.5805 36.3018 35.3706 36.3538 35.1607C37.3551 31.0769 38.3541 26.9932 39.3471 22.9084C39.3967 22.7041 39.3873 22.4863 39.4109 22.1933C38.2773 22.1832 37.1921 22.1742 36.107 22.1653L36.1058 22.1675Z" fill="#243359"/>
<path d="M12.2551 18.8201C12.1512 19.9842 11.8324 21.1022 11.4486 22.2057C9.18146 22.1866 6.91312 22.1675 4.65304 22.1484C4.52197 21.6814 4.69319 21.3144 4.78175 20.9529C6.3971 14.3031 8.02898 7.65782 9.65732 1.01026C9.69865 0.841883 9.74588 0.674628 9.78721 0.507372C9.86987 0.172862 10.0612 -0.0168438 10.452 0.00560658C10.7696 0.0235669 11.0885 0.00560658 11.4073 0.00560658C23.2343 0.00560658 35.0613 0.00560658 46.8883 0.00560658C47.252 0.00560658 47.6169 0.00223902 47.9794 0.0179543C48.3466 0.0336695 48.4541 0.171739 48.3679 0.525333C47.7609 3.00722 47.1469 5.48799 46.5376 7.96988C45.8976 10.5775 45.2623 13.1873 44.6223 15.795C44.5716 16.0037 44.522 16.217 44.437 16.4146C44.3649 16.5818 44.2114 16.6795 44.0036 16.6514C42.7023 16.4774 41.6833 15.4324 41.6077 14.1875C41.5841 13.7958 41.6585 13.4175 41.7542 13.0347C42.217 11.1859 42.6669 9.33374 43.1097 7.48046C43.2101 7.06064 43.3152 6.63183 43.3305 6.20528C43.3837 4.77182 42.3528 3.6145 40.8591 3.40908C40.5013 3.35969 40.1341 3.36306 39.7704 3.36306C31.7196 3.36082 23.6677 3.36082 15.6169 3.36082C15.435 3.36082 15.2532 3.3552 15.0713 3.36306C13.4229 3.43378 12.4724 4.13872 12.0792 5.69229C11.2514 8.9678 10.4603 12.2523 9.65614 15.5334C9.4495 16.3753 9.24994 17.2172 9.05039 18.0602C9.00197 18.2667 8.90751 18.4744 9.06928 18.7786C10.0954 18.791 11.1758 18.8044 12.2563 18.8179L12.2551 18.8201Z" fill="#243359"/>
<path d="M281.685 35.8151C282.164 36.0856 282.633 36.0632 283.073 36.1047C283.741 36.1687 283.741 36.3707 283.73 36.8523C283.721 37.2946 283.611 37.4225 283.196 37.4236C281.605 37.4315 280.012 37.4315 278.419 37.4225C277.978 37.4203 277.885 37.3148 277.874 36.8669C277.864 36.3831 277.828 36.2046 278.506 36.0968C279.667 35.9127 279.651 35.8858 279.781 34.8576C280.193 31.5955 280.614 28.3346 281.033 25.0737C281.072 24.7751 281.159 24.4788 281.041 24.142C280.565 23.9085 280.001 23.9804 279.48 23.8591C278.955 23.7368 278.9 23.6919 278.908 23.1654C278.915 22.5862 278.985 22.5087 279.62 22.5065C281.348 22.4998 283.077 22.4986 284.806 22.5076C285.461 22.511 285.486 22.5222 285.662 23.1093C286.174 24.8121 286.671 26.5184 287.167 28.2257C287.518 29.4336 287.857 30.6436 288.203 31.8526C288.25 32.0187 288.315 32.1804 288.361 32.3465C288.392 32.4587 288.45 32.4666 288.565 32.4599C288.682 32.4543 288.726 32.4374 288.757 32.3263C289.218 30.656 289.684 28.9857 290.155 27.3165C290.543 25.9392 290.933 24.5629 291.337 23.1901C291.526 22.5503 291.585 22.5099 292.277 22.5065C294.005 22.4986 295.734 22.5031 297.463 22.5087C297.682 22.5087 297.942 22.4986 298.025 22.7624C298.117 23.0543 298.149 23.3641 297.992 23.6425C297.941 23.7323 297.777 23.7907 297.654 23.8131C297.079 23.9175 296.5 24.0051 295.902 24.1016C295.856 25.3644 296.159 26.5487 296.309 27.743C296.607 30.1037 296.967 32.4565 297.301 34.8115C297.332 35.0259 297.358 35.2403 297.387 35.4547C297.426 35.7343 297.542 35.943 297.877 35.9812C298.103 36.007 298.327 36.0486 298.549 36.0957C299.14 36.2203 299.249 36.3898 299.164 37.0106C299.13 37.2575 298.993 37.3956 298.727 37.4124C298.683 37.4158 298.637 37.4248 298.592 37.4248C296.726 37.4248 294.862 37.4281 292.996 37.4225C292.771 37.4225 292.516 37.4113 292.447 37.1475C292.37 36.8545 292.318 36.5413 292.524 36.2787C292.59 36.1934 292.757 36.1687 292.885 36.1395C293.322 36.0373 293.795 36.0699 294.23 35.8095C294.144 34.9204 294.063 34.0168 293.969 33.1154C293.697 30.5347 293.422 27.9541 293.142 25.3734C293.125 25.2061 293.069 25.0411 293.021 24.8784C293.011 24.8469 292.944 24.8043 292.912 24.8099C292.842 24.8234 292.737 24.8503 292.717 24.8975C292.619 25.1366 292.535 25.3824 292.462 25.6305C291.428 29.1226 290.398 32.617 289.36 36.1081C289.165 36.7636 289.15 36.7793 288.419 36.7715C286.582 36.7513 286.97 37.0274 286.462 35.4783C285.368 32.1377 284.323 28.7825 283.251 25.4363C283.174 25.1972 283.135 24.7852 282.886 24.7976C282.461 24.8178 282.6 25.2522 282.575 25.5182C282.306 28.3604 282.049 31.2038 281.795 34.0471C281.741 34.642 281.717 35.2403 281.68 35.8151H281.685Z" fill="#29385D"/>
<path d="M132.94 31.142V35.8184C133.349 36.0609 133.773 36.034 134.169 36.1092C134.767 36.2226 135.029 36.6918 134.767 37.225C134.71 37.3395 134.604 37.4192 134.447 37.4192C133.992 37.4169 133.538 37.427 133.082 37.427C131.626 37.427 130.17 37.4304 128.714 37.4225C128.252 37.4203 128.167 37.3361 128.149 36.8949C128.139 36.685 128.179 36.474 128.199 36.2282C128.712 36.1193 129.192 36.0171 129.601 35.9307C129.865 35.6467 129.789 35.3784 129.789 35.1315C129.795 31.801 129.793 28.4704 129.793 25.1399C129.793 24.9233 129.783 24.7078 129.789 24.4911C129.797 24.169 129.599 24.0399 129.301 23.9837C129.078 23.9422 128.861 23.8749 128.637 23.8333C128.313 23.7716 128.211 23.5785 128.205 23.2788C128.192 22.6255 128.272 22.5233 128.957 22.5087C130.868 22.4672 132.777 22.4201 134.688 22.3987C135.688 22.3875 136.681 22.4302 137.668 22.658C139.77 23.1418 140.859 24.3598 140.651 26.7855C140.523 28.2796 139.822 29.5155 138.368 30.2665C138.253 30.326 138.154 30.4158 137.991 30.5291C138.092 30.8322 138.422 30.931 138.603 31.1443C138.776 31.3452 138.965 31.5338 139.124 31.7437C139.31 31.9884 139.477 32.2477 139.64 32.507C139.781 32.7293 139.907 32.9594 140.036 33.1884C140.186 33.4555 140.332 33.7238 140.477 33.9932C140.603 34.2234 140.714 34.4613 140.848 34.687C141.204 35.2841 141.479 35.9329 142.29 36.1541C142.623 36.245 142.732 37.0633 142.481 37.2811C142.39 37.3608 142.238 37.4136 142.113 37.4147C141.158 37.4259 140.202 37.4214 139.247 37.4225C138.837 37.4225 138.55 37.216 138.368 36.8983C138.13 36.4819 137.92 36.0497 137.719 35.6153C137.3 34.7049 136.902 33.7867 136.48 32.8775C136.315 32.5227 136.121 32.1781 135.919 31.8414C135.579 31.2767 135.112 30.9254 134.37 31.0141C133.924 31.0668 133.462 30.9467 132.939 31.1443L132.94 31.142ZM132.901 26.7451C132.901 26.7451 132.893 26.7451 132.888 26.7451C132.888 27.1335 132.882 27.5219 132.888 27.9103C132.925 30.0655 132.552 29.7187 134.845 29.7243C136.038 29.7265 136.825 29.1361 137.142 28.0618C137.416 27.1346 137.454 26.1839 137.186 25.2466C136.951 24.4238 136.379 23.9096 135.488 23.757C134.769 23.6335 134.042 23.647 133.318 23.7368C133.065 23.7682 132.905 23.9029 132.902 24.1566C132.898 25.0198 132.901 25.883 132.901 26.7451Z" fill="#26355A"/>
<path d="M94.1066 12.0323C94.1066 12.7473 94.1066 13.3075 94.1066 13.8687C94.1066 14.8599 94.1066 15.8511 94.1066 16.8086C94.5683 17.1016 95.0465 17.0264 95.4834 17.1251C95.9664 17.234 96.2238 17.7942 95.9617 18.2218C95.8589 18.3891 95.6747 18.4048 95.4882 18.4048C94.351 18.4048 93.2151 18.4082 92.078 18.4082C91.3045 18.4082 90.5323 18.4059 89.7589 18.397C89.4837 18.3936 89.3574 18.2308 89.3444 17.985C89.3113 17.3665 89.3267 17.1846 89.9997 17.0903C90.2241 17.0589 90.4496 17.0264 90.6704 16.977C90.8594 16.9354 90.9845 16.8243 90.9893 16.6234C90.994 16.4505 91.0046 16.2776 91.0046 16.1048C91.0046 12.6463 91.0046 9.18894 91.0034 5.73046C91.0034 5.55871 90.9798 5.38697 90.9668 5.22083C90.6256 4.94694 90.1946 4.95255 89.812 4.82907C89.4518 4.71345 89.2381 3.88953 89.5227 3.64257C89.6124 3.56512 89.7695 3.52695 89.897 3.52358C90.3965 3.50787 90.8972 3.51909 91.3966 3.50899C92.6696 3.48205 93.9413 3.44389 95.2142 3.41919C96.4871 3.39449 97.7577 3.3799 99.0046 3.7088C100.889 4.20495 101.795 5.18828 101.866 7.02584C101.933 8.77473 101.324 10.252 99.6777 11.2173C99.5289 11.3049 99.3825 11.3947 99.1392 11.5406C99.4285 11.8123 99.6848 12.0312 99.9115 12.2725C100.122 12.4981 100.315 12.7406 100.492 12.9909C100.696 13.2772 100.879 13.5769 101.057 13.8777C101.213 14.1404 101.35 14.4143 101.496 14.6825C101.663 14.9901 101.823 15.2999 101.999 15.603C102.369 16.2395 102.655 16.9321 103.513 17.1712C103.82 17.2565 103.914 17.9244 103.709 18.2028C103.642 18.2937 103.493 18.3835 103.381 18.3846C102.381 18.4003 101.38 18.397 100.38 18.3958C100.03 18.3958 99.7651 18.2297 99.6009 17.9502C99.3801 17.5742 99.1711 17.1891 98.9893 16.794C98.6256 16.0026 98.2902 15.2 97.9301 14.4075C97.7317 13.972 97.5121 13.5443 97.2924 13.1178C96.9004 12.3522 96.3395 11.8718 95.3559 12.0222C95.0064 12.0761 94.6403 12.0312 94.1054 12.0312L94.1066 12.0323ZM94.0995 7.81048C94.0995 8.45706 94.0948 9.10363 94.1007 9.7502C94.1101 10.7459 94.1137 10.747 95.1457 10.7605C95.4634 10.765 95.781 10.7717 96.0975 10.7549C97.2547 10.692 98.0541 10.1038 98.3552 9.02954C98.6031 8.145 98.6303 7.23463 98.4071 6.33998C98.1875 5.46105 97.6053 4.91439 96.6465 4.76621C96.062 4.67641 95.4763 4.64498 94.8859 4.70896C94.1775 4.78642 94.1149 4.83356 94.1054 5.4835C94.0936 6.25916 94.1031 7.03482 94.1031 7.81048H94.0995Z" fill="#E6321E"/>
<path d="M315.145 10.6651C316.069 11.8875 317.113 12.909 318.131 13.9518C318.378 14.2044 318.646 14.4401 318.92 14.668C319.114 14.8296 319.346 14.7634 319.459 14.5321C319.829 13.7722 319.987 12.973 319.943 12.1367C319.933 11.9414 319.824 11.8179 319.629 11.7685C319.236 11.6697 318.842 11.5754 318.434 11.4766C318.398 11.3498 318.337 11.2286 318.332 11.1051C318.29 10.1408 318.35 10.1835 319.296 10.1824C320.479 10.1824 321.663 10.1756 322.847 10.1857C323.363 10.1902 323.446 10.2946 323.446 10.8222C323.446 10.9086 323.446 10.9951 323.441 11.0815C323.431 11.3161 323.344 11.5384 323.077 11.5485C322.123 11.5878 321.809 12.0446 321.758 12.9404C321.704 13.8934 321.227 14.7611 320.642 15.5547C320.38 15.9106 320.429 16.052 320.785 16.3057C321.301 16.6728 321.857 16.95 322.508 17.0443C322.925 17.1049 322.95 17.4148 322.943 17.7358C322.933 18.1624 322.847 18.3139 322.459 18.4003C321.223 18.6742 320.014 18.6518 318.903 17.9895C318.518 17.7594 318.204 17.7347 317.774 17.9345C315.787 18.8617 313.719 18.7483 311.647 18.2443C311.12 18.1163 310.643 17.8514 310.183 17.5641C308.335 16.4124 308.034 13.5982 309.788 12.149C310.341 11.6922 310.987 11.3767 311.564 11.0097C311.603 10.6258 311.312 10.4406 311.173 10.1869C310.902 9.68846 310.559 9.21925 310.343 8.70177C309.406 6.44663 310.512 4.27007 312.945 3.5539C314.061 3.225 315.206 3.20367 316.309 3.55053C318.363 4.19598 318.961 5.54749 318.495 7.40638C318.287 8.23256 317.767 8.89709 317.059 9.40671C316.479 9.82204 315.865 10.1947 315.145 10.6651ZM315.036 17.2688C315.453 17.3092 316.066 17.1846 316.65 16.9276C316.885 16.8243 316.931 16.5998 316.732 16.4202C315.382 15.2045 314.225 13.8283 313.03 12.4813C312.942 12.3836 312.851 12.2849 312.745 12.2085C312.633 12.1266 312.491 12.1064 312.383 12.2141C312.196 12.3993 311.997 12.5789 311.847 12.79C310.675 14.439 311.372 16.4011 313.339 17.0735C313.822 17.2385 314.309 17.2554 315.035 17.27L315.036 17.2688ZM314.311 9.65703C314.891 9.2866 315.248 8.8926 315.524 8.44584C316.119 7.4771 316.35 6.44551 315.971 5.34656C315.527 4.05903 313.908 4.22516 313.344 4.95143C313.067 5.3084 312.903 5.69342 312.857 6.13681C312.711 7.5321 313.305 8.64003 314.311 9.65816V9.65703Z" fill="#E63420"/>
<path d="M17.197 27.5736C17.4226 26.6273 17.6198 25.7887 17.8229 24.9525C18.6707 21.4581 19.5209 17.9637 20.371 14.4693C20.4324 14.2167 20.5163 13.9686 20.5718 13.7149C20.6261 13.4669 20.7808 13.3479 21.0382 13.3366C21.22 13.3288 21.4019 13.3221 21.5837 13.3221C25.6788 13.3221 29.775 13.3221 33.8701 13.3221C34.0921 13.3221 34.3129 13.3434 34.5443 13.3557C34.6754 13.7576 34.5361 14.0876 34.4534 14.403C34.0732 15.8432 33.0907 16.6065 31.5451 16.6896C31.1826 16.7087 30.8177 16.6952 30.4528 16.6963C28.8599 16.6975 27.267 16.6907 25.6753 16.702C24.4649 16.7109 23.6136 17.2767 23.0727 18.2881C22.9204 18.5732 23.0598 18.7943 23.4069 18.7977C24.2713 18.8078 25.1356 18.8033 26.0012 18.8067C26.4109 18.8078 26.8124 18.8235 27.2079 18.9661C28.3474 19.3769 29.0476 20.2704 29.0984 21.4221C29.1256 22.053 29.0229 22.1664 28.3403 22.1686C26.7935 22.1754 25.2454 22.1709 23.6986 22.1709C23.3798 22.1709 23.0609 22.1641 22.7433 22.1731C22.0797 22.1922 22.0631 22.1956 21.9096 22.7759C21.7207 23.4876 21.553 24.2049 21.3795 24.921C20.8398 27.1358 19.8491 27.7947 17.1982 27.5713L17.197 27.5736Z" fill="#243359"/>
<path d="M143.775 7.59048C143.619 7.63875 143.576 7.66344 143.534 7.66232C142.944 7.65895 142.355 7.65222 141.766 7.6466C141.411 7.1729 141.387 6.60715 141.27 6.0661C141.224 5.85506 141.152 5.64852 141.105 5.43636C141.041 5.14788 140.828 4.98623 140.565 4.90092C138.807 4.33293 136.566 4.48784 135.326 6.505C134.929 7.15045 134.668 7.84417 134.548 8.56931C134.239 10.4248 134.267 12.2781 134.778 14.1045C134.966 14.7757 135.24 15.4189 135.671 15.9869C136.294 16.8075 137.123 17.2744 138.209 17.2902C138.989 17.3014 139.756 17.2542 140.481 16.9444C140.837 16.7929 141.076 16.5852 141.07 16.1688C141.055 15.044 141.062 13.9192 141.063 12.7934C141.063 12.4802 140.909 12.3163 140.577 12.3006C140.395 12.2927 140.213 12.2792 140.033 12.259C138.882 12.1322 138.711 12.1906 138.924 10.8873C139.039 10.8503 139.166 10.7762 139.292 10.7751C141.067 10.7638 142.842 10.7571 144.618 10.7616C145.177 10.7627 145.26 10.8649 145.293 11.3408C145.326 11.8269 145.228 12.2007 144.624 12.2703C144.298 12.3073 144.177 12.5206 144.177 12.818C144.177 13.9428 144.175 15.0676 144.171 16.1935C144.171 16.5392 144.167 16.8849 144.157 17.2318C144.151 17.4193 144.054 17.5831 143.868 17.6292C141.801 18.1354 139.757 18.6989 137.574 18.6147C134.923 18.5126 132.063 17.0466 131.103 13.7374C130.594 11.984 130.587 10.2306 131.088 8.484C131.871 5.75516 133.785 4.11853 136.657 3.55166C138.97 3.09479 141.278 3.41134 143.56 3.87719C143.953 3.95801 144.03 4.08373 144 4.55294C143.939 5.543 143.854 6.53194 143.773 7.58936L143.775 7.59048Z" fill="#E63420"/>
<path d="M87.3227 25.8696C87.1196 25.342 86.9224 24.8615 86.75 24.3732C86.6496 24.0881 86.4548 23.9545 86.1525 23.9411C84.9705 23.8883 83.7897 23.8311 82.6065 23.785C82.2747 23.7727 82.1046 23.9635 82.1035 24.2655C82.0952 25.6933 82.0881 27.1212 82.0976 28.549C82.0999 28.9239 82.27 29.0564 82.7092 29.0699C83.0729 29.0811 83.4378 29.0643 83.8015 29.0519C84.5391 29.0272 85.0118 28.6646 85.2196 27.9642C85.3767 27.4355 85.8502 27.2278 86.4701 27.4231C86.6059 27.4658 86.6897 27.5724 86.6909 27.7116C86.6956 29.0957 86.698 30.4809 86.6968 31.8649C86.6968 32.1164 86.5551 32.2668 86.2824 32.2713C86.0556 32.2747 85.823 32.287 85.6034 32.2466C85.4948 32.2264 85.3944 32.1052 85.3188 32.0097C85.268 31.9458 85.2657 31.847 85.2409 31.7639C85.1275 31.3935 85.1181 30.931 84.8725 30.6762C84.5607 30.354 84.0152 30.5617 83.5724 30.5157C83.5275 30.5112 83.4815 30.5134 83.4354 30.5134C82.0928 30.5067 82.0787 30.4102 82.0858 31.774C82.0917 33.029 82.0928 34.284 82.0952 35.5389C82.0952 35.8465 82.2475 36.0362 82.577 36.0272C83.942 35.9868 85.3058 35.9318 86.6697 35.8847C86.972 35.8746 87.1869 35.7444 87.3132 35.4862C87.5801 34.9373 87.8363 34.3827 88.1138 33.8383C88.3759 33.3242 88.4551 33.3006 89.0785 33.4679C89.2533 33.515 89.4257 33.5712 89.6016 33.6149C89.8708 33.6812 89.9417 33.8675 89.9417 34.0999C89.9417 34.1425 89.9417 34.1874 89.9323 34.229C89.6772 35.2347 89.7752 36.3011 89.3572 37.28C88.3417 37.6044 87.2967 37.4057 86.267 37.4203C83.7637 37.454 81.2604 37.4315 78.7559 37.4315C78.437 37.4315 78.1182 37.4214 77.8006 37.4304C77.5219 37.4371 77.379 37.2991 77.346 37.0588C77.3224 36.8882 77.3389 36.7131 77.3436 36.5402C77.3483 36.3505 77.4381 36.2046 77.6388 36.1608C78.0344 36.0755 78.4347 36.0037 78.7405 35.9442C79.0475 35.7286 78.979 35.4963 78.979 35.2931C78.9849 31.8739 78.9838 28.4558 78.9838 25.0367C78.9838 24.8638 78.9743 24.6909 78.9743 24.5181C78.9755 24.2071 78.7972 24.0533 78.4902 24.0017C78.2658 23.9635 78.0415 23.9276 77.8218 23.8726C77.3755 23.7615 77.3235 23.6919 77.3141 23.2451C77.2987 22.5985 77.3826 22.5076 78.0804 22.5065C81.2675 22.502 84.4533 22.5043 87.6403 22.5065C87.8221 22.5065 88.004 22.5132 88.1847 22.5312C88.383 22.5514 88.5377 22.6648 88.5554 22.8489C88.644 23.7525 88.7196 24.6572 88.788 25.5631C88.8046 25.7831 88.6145 25.8572 88.4326 25.8662C88.0737 25.8842 87.7135 25.8718 87.3262 25.8718L87.3227 25.8696Z" fill="#29385D"/>
<path d="M56.5555 0.105515C56.5862 0.213277 56.6523 0.334509 56.6523 0.455741C56.657 13.9035 56.657 27.3513 56.657 40.8675C56.1032 41.073 55.5612 40.9775 55.0358 40.9809C54.6981 40.9832 54.5658 40.7755 54.567 40.4724C54.5682 40.1267 54.5634 39.7798 54.5634 39.4341C54.5634 26.8035 54.5599 14.1729 54.567 1.54346C54.567 -0.169502 54.2978 -0.0157169 56.2792 0.0190812C56.3642 0.0202037 56.4468 0.070717 56.5555 0.105515Z" fill="#29385D"/>
<path d="M260.471 4.81112C260.471 6.45673 260.466 7.96876 260.475 9.48079C260.477 9.91745 260.604 10.051 261.011 10.0555C261.648 10.0634 262.284 10.0409 262.921 10.0252C263.238 10.0174 263.419 9.85908 263.45 9.55264C263.454 9.50998 263.464 9.46732 263.475 9.42579C263.666 8.75153 264.147 8.43423 264.918 8.47389C265.148 8.73544 265.072 9.04975 265.074 9.34497C265.081 10.4686 265.085 11.5934 265.07 12.717C265.064 13.2132 264.946 13.2974 264.406 13.2996C263.807 13.303 263.752 13.2592 263.588 12.671C263.38 11.9256 262.887 11.5466 262.108 11.5339C261.612 11.5271 261.116 11.5328 260.684 11.5328C260.397 11.8673 260.47 12.1748 260.469 12.4622C260.463 13.8025 260.463 15.1428 260.476 16.4831C260.481 16.9276 260.592 17.0443 261.022 17.0342C262.295 17.0039 263.566 16.9455 264.839 16.9107C265.295 16.8984 265.615 16.7334 265.797 16.3214C266.026 15.8039 266.267 15.291 266.522 14.7836C266.71 14.4087 266.879 14.3402 267.277 14.4277C267.365 14.4468 267.45 14.4771 267.537 14.5007C268.358 14.7297 268.382 14.7578 268.251 15.5851C268.122 16.3966 267.985 17.2071 267.848 18.0175C267.807 18.2634 267.646 18.3902 267.383 18.3947C267.155 18.3981 266.928 18.4059 266.7 18.4059C263.38 18.4059 260.059 18.4059 256.739 18.4059C256.512 18.4059 256.281 18.4183 256.059 18.3812C255.947 18.3622 255.803 18.2701 255.756 18.1747C255.517 17.6774 255.751 17.2217 256.285 17.1083C256.593 17.0432 256.903 16.9904 257.146 16.9444C257.424 16.7401 257.355 16.5066 257.355 16.3046C257.362 12.8461 257.362 9.3865 257.36 5.92802C257.36 5.16695 257.444 5.09399 256.493 4.93347C256.359 4.91102 256.229 4.86612 256.094 4.84704C255.749 4.79765 255.68 4.57539 255.673 4.29027C255.654 3.5191 255.82 3.51012 256.401 3.51124C259.676 3.51573 262.951 3.51012 266.226 3.51797C266.87 3.5191 266.907 3.57073 266.964 4.18587C267.031 4.91776 267.096 5.65076 267.148 6.38376C267.156 6.50387 267.131 6.65092 267.062 6.74746C266.86 7.02697 265.744 6.93941 265.602 6.62847C265.44 6.27263 265.309 5.9022 265.189 5.53177C265.07 5.16359 264.859 4.94806 264.424 4.92449C263.157 4.85714 261.891 4.7707 260.47 4.81336L260.471 4.81112Z" fill="#E6321E"/>
<path d="M263.982 35.9038V34.7633C263.982 31.6056 263.982 28.448 263.982 25.2915C263.982 24.9895 263.977 24.6864 263.96 24.3845C263.951 24.2015 263.862 24.0589 263.651 24.0219C263.428 23.9826 263.201 23.9545 262.98 23.9052C262.321 23.7581 262.145 23.4438 262.347 22.7669C262.383 22.6468 262.455 22.5301 262.621 22.5245C262.803 22.5188 262.985 22.5043 263.166 22.5043C266.305 22.5031 269.444 22.5043 272.584 22.5043C272.766 22.5043 272.947 22.5076 273.129 22.5166C273.394 22.5289 273.543 22.6648 273.564 22.9151C273.643 23.858 273.844 24.7931 273.762 25.7281C273.456 25.9571 273.127 25.8684 272.815 25.8864C272.448 25.9066 272.182 25.7674 272.14 25.4015C271.995 24.1577 271.221 23.7907 269.99 23.8546C269.094 23.9007 268.19 23.7357 267.29 23.8187C267.232 23.9893 267.157 24.1106 267.156 24.2318C267.141 25.6585 267.131 27.0853 267.138 28.5131C267.14 28.9352 267.288 29.0665 267.698 29.0777C268.015 29.0867 268.335 29.0788 268.652 29.0598C269.923 28.9823 269.987 29.2686 270.252 27.8609C270.334 27.422 270.502 27.3681 271.193 27.3861C271.518 27.3951 271.704 27.5107 271.704 27.8373C271.703 29.1776 271.704 30.519 271.699 31.8593C271.699 32.104 271.573 32.2668 271.297 32.2769C270.481 32.3072 270.269 32.296 270.195 31.5203C270.175 31.3082 270.092 31.1005 270.03 30.8928C269.96 30.6616 269.804 30.537 269.537 30.537C268.901 30.5348 268.263 30.5213 267.627 30.519C267.374 30.519 267.17 30.6347 267.167 30.8839C267.153 32.4834 267.152 34.0819 267.158 35.6815C267.158 35.9442 267.362 36.0508 267.617 36.0418C268.981 35.9924 270.345 35.9341 271.709 35.8869C272.023 35.8757 272.222 35.7152 272.345 35.4727C272.642 34.889 272.93 34.3019 273.198 33.7059C273.331 33.4073 273.547 33.3242 273.846 33.4005C274.194 33.4903 274.534 33.6048 274.911 33.7182C274.96 34.8688 274.641 35.9599 274.498 37.0678C274.468 37.2979 274.257 37.4214 274 37.4259C273.772 37.4293 273.545 37.4315 273.317 37.4315C270.041 37.4315 266.765 37.4315 263.489 37.4315C263.216 37.4315 262.94 37.4349 262.673 37.3945C262.566 37.3776 262.429 37.2643 262.389 37.1643C262.169 36.6087 262.371 36.2282 262.926 36.1114C263.234 36.0463 263.546 35.9913 263.979 35.9083L263.982 35.9038Z" fill="#29385D"/>
<path d="M110.954 28.485C110.954 27.1874 110.951 25.8909 110.956 24.5933C110.959 24.2397 110.823 24.0185 110.433 23.9748C110.344 23.9647 110.254 23.9433 110.168 23.9153C109.589 23.7312 109.545 23.6694 109.565 23.0857C109.581 22.6232 109.666 22.5099 110.081 22.5087C111.855 22.502 113.63 22.502 115.403 22.5099C115.833 22.5121 115.915 22.6188 115.936 23.0767C115.964 23.6795 115.899 23.7424 115.341 23.9007C115.001 23.9972 114.57 23.8692 114.324 24.1689C114.054 24.4978 114.19 24.9199 114.188 25.3004C114.178 27.376 114.179 29.4515 114.186 31.5271C114.19 32.3925 114.241 33.2524 114.543 34.0853C115.308 36.2024 117.146 36.4538 118.677 36.1193C119.524 35.9341 120.107 35.3807 120.479 34.6465C120.858 33.8978 121.069 33.0963 121.076 32.2679C121.1 29.7164 121.098 27.1661 121.097 24.6146C121.097 24.1544 121.025 24.0937 120.585 24.0039C120.363 23.9579 120.135 23.94 119.914 23.8894C119.334 23.7581 119.252 23.647 119.284 23.0857C119.311 22.6255 119.429 22.511 119.97 22.5054C120.97 22.4953 121.971 22.4998 122.971 22.502C123.38 22.502 123.79 22.5065 124.198 22.5233C124.471 22.5346 124.577 22.7119 124.605 22.9499C124.681 23.6043 124.598 23.7177 123.869 23.9377C123.193 24.1409 123.177 24.1409 123.174 24.8144C123.165 26.8473 123.183 28.879 123.164 30.9119C123.157 31.6449 123.124 32.3847 123.017 33.1098C122.635 35.7107 120.724 37.3743 117.967 37.5292C116.875 37.5909 115.79 37.5572 114.722 37.2609C112.959 36.7715 111.828 35.6882 111.311 34.0292C111.064 33.2389 110.949 32.4251 110.956 31.5967C110.966 30.5595 110.959 29.5211 110.959 28.4828H110.954V28.485Z" fill="#29385D"/>
<path d="M195.244 6.85971C194.893 6.87879 194.671 6.90461 194.449 6.90124C193.784 6.89338 193.666 6.89114 193.572 6.331C193.375 5.14787 192.669 4.77631 191.494 4.85265C190.772 4.89979 190.041 4.80662 189.312 4.79652C188.587 4.78642 188.575 4.79764 188.569 5.54075C188.56 6.75195 188.559 7.96315 188.569 9.17434C188.576 10.069 188.587 10.0701 189.592 10.0611C189.865 10.0589 190.137 10.0477 190.41 10.042C191.272 10.0241 191.534 10.0791 191.652 9.08903C191.727 8.46603 192.346 8.21796 192.961 8.47052C193.153 8.55022 193.18 8.7287 193.182 8.90045C193.187 9.67948 193.187 10.4574 193.189 11.2364C193.189 11.6686 193.197 12.1019 193.186 12.534C193.171 13.2143 192.712 13.5017 192.026 13.2502C191.917 13.2109 191.8 13.0908 191.767 12.9853C191.675 12.6979 191.628 12.3971 191.556 12.103C191.437 11.6147 191.384 11.5664 190.814 11.5462C190.268 11.5271 189.722 11.5227 189.176 11.5271C188.678 11.5316 188.576 11.6068 188.574 12.0199C188.565 13.5342 188.566 15.0485 188.574 16.5628C188.576 16.9096 188.719 17.0499 189.058 17.0398C190.377 17.0005 191.695 16.9433 193.014 16.8995C193.421 16.886 193.689 16.7188 193.852 16.3562C194.103 15.8006 194.378 15.2539 194.646 14.705C194.78 14.4311 195.012 14.3357 195.316 14.4154C195.58 14.485 195.838 14.5647 196.099 14.6421C196.363 14.7207 196.437 14.9115 196.402 15.145C196.26 16.0868 196.105 17.0264 195.965 17.9682C195.916 18.2914 195.71 18.397 195.403 18.3992C195.084 18.4014 194.766 18.4059 194.447 18.4059C191.352 18.4059 188.259 18.4059 185.164 18.4059C184.936 18.4059 184.708 18.4104 184.481 18.4048C183.857 18.3869 183.701 18.1972 183.782 17.5944C183.815 17.3508 183.944 17.2183 184.185 17.1375C184.563 17.0106 185.075 17.1667 185.32 16.8165C185.576 16.4505 185.433 15.9768 185.434 15.5514C185.443 12.5228 185.439 9.49426 185.438 6.46683C185.438 6.16375 185.433 5.86067 185.432 5.55871C185.432 5.26686 185.316 5.06368 184.987 5.01204C184.807 4.98398 184.629 4.94694 184.453 4.90316C183.759 4.73254 183.591 4.45191 183.762 3.79636C183.801 3.64594 183.911 3.57073 184.036 3.54491C184.211 3.50787 184.397 3.50899 184.578 3.50899C187.764 3.50675 190.95 3.50338 194.134 3.51011C194.973 3.51124 195.002 3.54828 195.076 4.27006C195.093 4.4418 195.099 4.61579 195.111 4.78754C195.152 5.43411 195.192 6.08068 195.241 6.85634L195.244 6.85971Z" fill="#E63420"/>
<path d="M113.01 18.4104C111.236 18.4104 109.461 18.4003 107.688 18.4149C106.941 18.4216 106.967 18.0636 107.001 17.5865C107.018 17.3373 107.184 17.2239 107.42 17.1453C107.799 17.0196 108.309 17.1667 108.558 16.8265C108.823 16.4651 108.677 15.9891 108.678 15.5648C108.687 12.4947 108.683 9.42466 108.682 6.35457C108.682 6.09527 108.678 5.83597 108.676 5.57666C108.674 5.29155 108.579 5.0749 108.244 5.0199C108.064 4.99071 107.888 4.94469 107.71 4.91326C106.998 4.78641 106.938 4.73814 106.978 3.94228C106.991 3.69532 107.126 3.54491 107.395 3.52582C107.531 3.51684 107.668 3.51123 107.803 3.51123C110.988 3.51123 114.172 3.51123 117.356 3.51123C117.537 3.51123 117.72 3.51909 117.899 3.53817C118.104 3.56062 118.236 3.68971 118.251 3.8738C118.328 4.77743 118.391 5.6833 118.459 6.58805C118.471 6.74408 118.366 6.85072 118.238 6.86307C117.923 6.8945 117.604 6.8945 117.288 6.88889C117.087 6.88552 116.959 6.76204 116.895 6.58581C116.788 6.30069 116.647 6.02118 116.592 5.72708C116.473 5.08388 116.047 4.9054 115.426 4.8953C114.425 4.87958 113.426 4.81672 112.426 4.79315C111.917 4.7808 111.821 4.85938 111.818 5.27246C111.809 6.69918 111.809 8.12591 111.821 9.55375C111.824 9.97133 111.936 10.0555 112.418 10.0622C112.827 10.0679 113.236 10.051 113.646 10.0432C114.473 10.0275 114.76 10.0948 114.891 9.08678C114.975 8.43796 115.119 8.39531 115.801 8.41551C116.279 8.43011 116.402 8.51205 116.406 8.91616C116.417 10.2138 116.413 11.5103 116.408 12.8079C116.408 13.1099 116.245 13.2738 115.913 13.2985C115.186 13.3535 115.043 13.2648 114.88 12.5935C114.84 12.4252 114.815 12.2534 114.793 12.0817C114.747 11.7269 114.549 11.544 114.163 11.5485C111.325 11.5799 111.871 11.0254 111.816 13.6117C111.795 14.6062 111.817 15.6008 111.822 16.5953C111.823 16.9175 112.014 17.0567 112.337 17.0454C113.654 16.9994 114.972 16.9467 116.291 16.9018C116.706 16.8872 116.952 16.6851 117.111 16.3326C117.323 15.8556 117.555 15.3852 117.791 14.9183C118.066 14.3716 118.195 14.2874 118.718 14.4636C119.547 14.7432 119.796 14.5366 119.548 15.6939C119.385 16.455 119.307 17.2329 119.195 18.0029C119.158 18.2566 118.999 18.3812 118.744 18.3936C118.426 18.4082 118.107 18.4104 117.79 18.4115C116.198 18.4127 114.605 18.4115 113.013 18.4115L113.01 18.4104Z" fill="#E63420"/>
<path d="M258.407 28.2875C257.926 28.4211 257.44 28.3627 256.943 28.2998C256.575 27.3636 256.515 26.4084 256.325 25.4812C255.961 23.7076 256.206 24.032 254.502 23.9433C252.927 23.8614 253.112 23.8973 253.109 25.2421C253.1 28.3964 253.103 31.5518 253.109 34.706C253.109 35.0877 253.041 35.4783 253.24 35.9374C253.961 36.0048 254.725 36.071 255.488 36.1496C255.996 36.2024 256.064 36.2933 256.051 36.8231C256.039 37.3148 255.95 37.4079 255.401 37.4237C254.901 37.4383 254.4 37.4293 253.901 37.4293C251.901 37.4293 249.9 37.4326 247.9 37.4259C247.353 37.4237 247.271 37.335 247.255 36.8377C247.238 36.2596 247.287 36.2057 247.931 36.1328C248.559 36.0609 249.187 35.9947 249.74 35.9341C250.007 35.7051 249.949 35.4772 249.949 35.2752C249.955 31.8178 249.955 28.3604 249.952 24.9031C249.952 24.6876 249.936 24.472 249.917 24.2576C249.899 24.0545 249.746 23.9759 249.559 23.9377C249.514 23.9287 249.468 23.9186 249.424 23.9209C248.658 23.9669 247.775 23.7289 247.155 24.1061C246.539 24.481 246.794 25.379 246.589 26.0301C246.435 26.524 246.359 27.0437 246.295 27.5578C246.193 28.393 245.998 28.3616 245.228 28.3616C245.092 28.3616 244.955 28.3616 244.819 28.3515C244.5 28.3256 244.348 28.1719 244.367 27.834C244.457 26.2378 244.551 24.6415 244.662 23.0464C244.691 22.6435 244.842 22.5334 245.27 22.5099C245.452 22.4998 245.634 22.5043 245.816 22.5043C249.635 22.5043 253.453 22.5043 257.272 22.5043C257.499 22.5043 257.727 22.5043 257.952 22.5245C258.159 22.5413 258.264 22.6771 258.291 22.8623C258.316 23.033 258.33 23.2058 258.338 23.3787C258.405 24.8032 258.468 26.2277 258.532 27.6521C258.542 27.8677 258.554 28.0854 258.409 28.2897L258.407 28.2875Z" fill="#29385D"/>
<path d="M158.532 16.904C158.306 16.1744 158.096 15.4773 157.87 14.7847C157.798 14.5647 157.636 14.4165 157.374 14.4165C155.828 14.4165 154.284 14.4165 152.738 14.4221C152.488 14.4221 152.314 14.5434 152.246 14.7836C152.046 15.484 151.709 16.1542 151.674 16.9399C152.05 17.0107 152.404 17.069 152.755 17.1442C153.199 17.2408 153.259 17.3227 153.261 17.7684C153.264 18.2634 153.155 18.397 152.641 18.4015C151.233 18.4138 149.823 18.4116 148.414 18.4015C147.943 18.3981 147.858 18.3038 147.837 17.8784C147.806 17.2902 147.827 17.1846 148.446 17.0847C148.995 16.9961 149.182 16.7042 149.337 16.2642C150.668 12.5004 152.013 8.74105 153.357 4.98062C153.532 4.49232 153.727 4.01076 153.936 3.46522C154.873 3.46522 155.778 3.47083 156.682 3.46185C156.994 3.45848 157.204 3.57298 157.31 3.84912C157.434 4.17353 157.554 4.50018 157.67 4.82683C158.986 8.50533 160.3 12.1827 161.616 15.8612C161.675 16.0251 161.754 16.1822 161.796 16.3495C161.905 16.7648 162.119 16.9983 162.615 17.0825C163.206 17.1835 163.361 17.5618 163.198 18.1365C163.156 18.2825 163.044 18.3386 162.918 18.3846C162.877 18.3992 162.828 18.3992 162.783 18.3992C161.011 18.3992 159.239 18.4015 157.466 18.3981C157.202 18.3981 157.038 18.2555 157.025 18.0074C157.009 17.7156 156.904 17.3508 157.274 17.206C157.644 17.0612 158.057 17.0129 158.532 16.904ZM152.731 12.9887C154.257 12.9887 155.571 12.9954 156.885 12.9819C157.08 12.9797 157.2 12.8225 157.177 12.625C157.157 12.4543 157.118 12.2826 157.065 12.1187C156.407 10.0634 155.746 8.00917 155.086 5.95496C155.031 5.96731 154.955 5.96843 154.947 5.98864C154.227 8.24939 153.513 10.5124 152.731 12.9887Z" fill="#E6321E"/>
<path d="M225.369 16.9366C225.823 17.0151 226.134 17.0612 226.441 17.124C226.995 17.2374 227.08 17.3642 227.04 17.9311C227.023 18.1702 226.937 18.3779 226.663 18.3801C225.118 18.3925 223.574 18.3925 222.029 18.3857C221.759 18.3857 221.647 18.2129 221.626 17.9637C221.576 17.3777 221.636 17.1566 222.159 17.1105C222.878 17.0466 223.021 16.5841 223.196 16.0935C224.481 12.4981 225.744 8.89483 227.056 5.30838C227.89 3.03079 227.227 3.51347 229.705 3.46633C231.248 3.43714 230.926 3.37765 231.384 4.62701C232.788 8.45705 234.155 12.3006 235.516 16.1452C235.703 16.6773 235.915 17.0533 236.585 17.1263C237.023 17.1734 237.192 17.7133 236.981 18.1668C236.935 18.2645 236.787 18.3812 236.685 18.3824C234.867 18.3969 233.05 18.3969 231.233 18.3936C230.955 18.3936 230.837 18.2151 230.825 17.9738C230.792 17.3474 230.812 17.1846 231.484 17.0791C231.748 17.0376 232.034 17.0578 232.256 16.8636C232.256 16.8232 232.266 16.7772 232.255 16.7367C232.043 15.9936 231.896 15.2292 231.505 14.5411C230.76 14.2739 229.986 14.4412 229.225 14.4131C228.408 14.3839 227.59 14.3974 226.772 14.412C226.198 14.4221 226.16 14.4502 225.995 14.943C225.789 15.557 225.606 16.1766 225.37 16.9354L225.369 16.9366ZM231.047 12.9269C230.442 10.4933 229.492 8.21009 228.899 5.82586C228.66 5.94485 228.597 6.15251 228.538 6.35345C228.22 7.43219 227.915 8.51429 227.593 9.59191C227.371 10.3384 227.103 11.0736 226.91 11.8257C226.819 12.1793 226.532 12.5262 226.766 12.9235C227.981 13.1166 229.205 12.9684 230.425 13.0089C230.597 13.0145 230.771 12.9662 231.047 12.928V12.9269Z" fill="#E6321E"/>
<path d="M156.672 28.2774C156.509 27.2424 156.666 24.2116 156.964 22.6244C157.203 22.4515 157.483 22.5054 157.748 22.5054C161.663 22.502 165.577 22.5031 169.492 22.5031C169.673 22.5031 169.855 22.5043 170.037 22.5177C170.295 22.5357 170.446 22.6738 170.489 22.9162C170.496 22.9589 170.5 23.0015 170.502 23.0453C170.568 24.6449 170.638 26.2445 170.698 27.8441C170.711 28.182 170.564 28.3301 170.232 28.3503C170.005 28.3638 169.776 28.3661 169.549 28.3548C169.103 28.3324 169.004 28.2572 168.92 27.8284C168.728 26.8507 168.548 25.8718 168.364 24.893C168.332 24.7224 168.307 24.5506 168.267 24.3822C168.212 24.1465 168.051 23.9983 167.798 23.9916C167.027 23.9714 166.256 23.9669 165.485 23.9568C165.113 24.6045 165.306 25.3061 165.3 25.9796C165.275 28.7915 165.289 31.6045 165.289 34.4164C165.289 34.7622 165.282 35.109 165.296 35.4548C165.314 35.8824 165.372 35.9352 165.872 35.9868C166.46 36.0474 167.051 36.0867 167.639 36.1473C168.143 36.2001 168.225 36.3045 168.21 36.8231C168.197 37.3013 168.082 37.4248 167.56 37.4259C165.056 37.4315 162.553 37.4281 160.05 37.4259C159.827 37.4259 159.568 37.4394 159.463 37.2014C159.338 36.9163 159.321 36.6053 159.485 36.3292C159.537 36.2405 159.701 36.1799 159.823 36.1653C160.455 36.0879 161.089 36.0306 161.722 35.9621C161.921 35.9408 162.054 35.833 162.069 35.6366C162.086 35.4211 162.09 35.2044 162.09 34.9889C162.09 31.6573 162.09 28.3256 162.09 24.994C162.09 24.8211 162.094 24.6471 162.086 24.4754C162.062 24.0185 161.972 23.9018 161.548 23.9209C160.782 23.9557 160.007 23.8827 159.253 24.0803C158.865 24.6909 158.889 25.397 158.749 26.0649C158.686 26.3612 158.608 26.6565 158.561 26.955C158.322 28.4626 158.401 28.4839 156.669 28.2807L156.672 28.2774Z" fill="#29385D"/>
<path d="M278.694 3.51013C280.514 3.51013 282.332 3.509 284.152 3.51125C284.469 3.51125 284.788 3.51798 285.105 3.54043C285.304 3.5539 285.427 3.67738 285.462 3.86821C285.478 3.95352 285.496 4.03883 285.499 4.12414C285.565 5.67883 285.632 7.23352 285.689 8.78933C285.705 9.19681 285.566 9.32028 285.132 9.34385C285.041 9.34834 284.95 9.34722 284.859 9.34834C284.179 9.3562 283.969 9.3113 283.867 8.60299C283.721 7.57589 283.49 6.56113 283.303 5.53852C283.239 5.1939 283.055 5.00083 282.672 4.99073C279.897 4.91552 280.311 4.40253 280.29 6.96748C280.268 9.77715 280.285 12.5879 280.286 15.3976C280.286 15.7433 280.28 16.0902 280.294 16.4348C280.313 16.8962 280.372 16.9579 280.837 17.0017C281.47 17.0623 282.107 17.0993 282.738 17.1701C283.136 17.215 283.227 17.4092 283.189 17.9513C283.167 18.2668 283.006 18.4104 282.673 18.4093C280.126 18.4059 277.579 18.4127 275.034 18.4037C274.479 18.4015 274.207 17.9177 274.441 17.4103C274.527 17.2228 274.702 17.1835 274.881 17.1644C275.468 17.1027 276.057 17.0511 276.645 16.9949C276.902 16.9702 277.061 16.8479 277.07 16.5908C277.079 16.3315 277.085 16.0722 277.085 15.8129C277.085 12.57 277.085 9.32814 277.085 6.08518C277.085 5.82588 277.079 5.56658 277.066 5.30728C277.053 5.05471 276.897 4.92001 276.637 4.90654C276.456 4.89756 276.272 4.90093 276.092 4.91552C273.758 5.10635 274.251 4.55744 273.782 6.85748C273.644 7.53548 273.519 8.21685 273.38 8.89485C273.321 9.1867 273.129 9.33937 272.809 9.33824C272.536 9.33824 272.263 9.34947 271.991 9.33712C271.64 9.3214 271.527 9.20803 271.548 8.82862C271.642 7.18862 271.75 5.54974 271.855 3.90974C271.871 3.65718 272.019 3.5236 272.285 3.51911C272.602 3.51237 272.921 3.509 273.24 3.509C275.06 3.509 276.878 3.509 278.698 3.509L278.694 3.51013Z" fill="#E63420"/>
<path d="M173.001 3.51011C174.821 3.51011 176.642 3.50898 178.461 3.51123C178.779 3.51123 179.098 3.52133 179.414 3.54154C179.621 3.55501 179.731 3.68971 179.761 3.87717C179.783 4.00514 179.792 4.13423 179.797 4.26332C179.862 5.73269 179.929 7.20207 179.988 8.67145C180.011 9.23944 179.907 9.33149 179.282 9.34608C179.191 9.34833 179.1 9.34833 179.009 9.34608C178.38 9.33037 178.302 9.27985 178.192 8.71635C177.993 7.69598 177.812 6.67337 177.613 5.653C177.501 5.07602 177.44 5.00193 176.819 4.9851C174.213 4.91326 174.607 4.42272 174.588 6.98318C174.566 9.83775 174.582 12.6934 174.584 15.548C174.584 15.8937 174.588 16.2395 174.6 16.5852C174.608 16.8378 174.758 16.9691 175.02 16.9916C175.699 17.0511 176.381 17.0982 177.058 17.1756C177.442 17.2194 177.546 17.4451 177.494 17.9704C177.462 18.2903 177.275 18.4093 176.951 18.4093C174.403 18.4059 171.855 18.4127 169.306 18.4026C168.76 18.4003 168.473 17.8907 168.734 17.4069C168.786 17.3092 168.926 17.2082 169.038 17.1936C169.669 17.1128 170.303 17.0578 170.937 16.996C171.195 16.9702 171.354 16.8512 171.363 16.5931C171.373 16.3338 171.379 16.0745 171.379 15.8152C171.379 12.5711 171.381 9.327 171.379 6.08292C171.379 5.78096 171.372 5.47788 171.333 5.17929C171.319 5.06592 171.229 4.9402 171.062 4.93571C170.836 4.93009 170.608 4.90091 170.383 4.91887C168.019 5.11643 168.552 4.55068 168.076 6.8597C167.936 7.5377 167.815 8.2202 167.675 8.89932C167.614 9.18781 167.422 9.34496 167.101 9.34159C166.873 9.33935 166.646 9.3517 166.418 9.34608C165.926 9.33261 165.82 9.25628 165.843 8.83085C165.935 7.18972 166.044 5.54972 166.15 3.90972C166.167 3.65828 166.319 3.52694 166.586 3.52358C166.905 3.51909 167.222 3.51235 167.541 3.51235C169.361 3.51235 171.182 3.51235 173.001 3.51235V3.51011Z" fill="#E63420"/>
<path d="M239.848 23.1171C239.937 24.1353 239.861 25.1669 239.766 26.1962C239.744 26.4432 239.58 26.5801 239.313 26.5723C238.91 26.561 238.494 26.6621 238.05 26.4241C237.939 25.8269 237.807 25.1938 237.708 24.5562C237.647 24.1611 237.406 23.9332 237.037 23.821C236.244 23.5796 235.437 23.5089 234.619 23.7199C233.211 24.0836 232.636 25.5553 233.459 26.7103C233.798 27.1852 234.265 27.5343 234.788 27.8048C235.546 28.1965 236.328 28.5468 237.086 28.9385C237.763 29.2888 238.458 29.6244 239.084 30.0465C239.912 30.6055 240.58 31.3239 240.79 32.3117C241.145 33.9831 240.646 35.3908 239.244 36.4706C238.487 37.0532 237.599 37.3922 236.635 37.5067C235.227 37.674 233.827 37.6639 232.439 37.3136C231.654 37.115 230.849 36.9859 230.027 36.6558C230.073 35.5636 230.112 34.4894 230.17 33.4163C230.176 33.3085 230.266 33.1401 230.356 33.1109C230.839 32.956 231.34 32.9785 231.824 33.1121C231.909 33.1356 231.975 33.3152 231.999 33.432C232.11 33.9831 232.217 34.5365 232.296 35.0922C232.349 35.4682 232.527 35.7421 232.889 35.897C234.016 36.3797 235.196 36.4437 236.349 36.0867C237.741 35.6568 238.214 33.9887 237.321 32.8786C236.984 32.4599 236.541 32.1478 236.057 31.9053C235.415 31.5832 234.754 31.2981 234.099 30.9984C233.195 30.5841 232.332 30.1093 231.577 29.4728C229.179 27.4501 229.792 23.9444 232.75 22.7894C233.296 22.5761 233.869 22.447 234.465 22.3976C236.269 22.2461 237.748 22.4313 239.849 23.1149L239.848 23.1171Z" fill="#26355A"/>
<path d="M312.75 23.0902C312.893 24.114 312.747 25.1433 312.681 26.1727C312.666 26.4174 312.53 26.5745 312.256 26.5711C311.851 26.5667 311.438 26.6497 310.969 26.4443C310.867 25.8965 310.725 25.3083 310.656 24.7134C310.591 24.1488 310.265 23.876 309.723 23.7503C309.005 23.5841 308.291 23.5302 307.566 23.7121C306.149 24.0668 305.554 25.5182 306.36 26.6856C306.692 27.1661 307.155 27.5197 307.678 27.7902C308.436 28.1831 309.217 28.5356 309.975 28.9262C310.653 29.2764 311.348 29.6098 311.977 30.0285C314.974 32.0232 313.987 35.6972 311.503 36.8916C310.89 37.1868 310.257 37.4124 309.576 37.5101C307.404 37.8222 305.325 37.4147 303.272 36.7872C303.003 36.7052 302.948 36.5234 302.957 36.2899C303.001 35.255 303.045 34.22 303.086 33.2142C303.212 33.1446 303.287 33.0705 303.367 33.0649C304.33 32.9953 304.901 33.4084 305.079 34.3042C305.104 34.431 305.136 34.5579 305.161 34.6858C305.368 35.759 305.582 35.9857 306.677 36.1878C307.396 36.3202 308.126 36.3337 308.848 36.208C309.67 36.0654 310.278 35.6422 310.544 34.8744C310.818 34.0808 310.697 33.3411 310.075 32.7068C309.729 32.3544 309.324 32.076 308.878 31.8593C308.231 31.545 307.569 31.2599 306.916 30.9557C305.973 30.5179 305.074 30.0128 304.312 29.3157C302.191 27.3782 302.741 24.1263 305.392 22.9129C306.012 22.6289 306.664 22.4661 307.352 22.4032C309.195 22.2337 310.975 22.4885 312.748 23.0891L312.75 23.0902Z" fill="#26355A"/>
<path d="M72.242 26.432C72.0991 26.4971 72.059 26.5307 72.0177 26.533C70.4035 26.634 70.5735 26.7238 70.309 25.2825C70.0599 23.9265 69.8391 23.7009 68.4056 23.6144C68.0041 23.5897 67.5837 23.6268 67.1905 23.7121C65.6377 24.0511 65.0639 25.6664 66.0605 26.8585C66.4336 27.3042 66.9107 27.6364 67.4408 27.8957C68.3288 28.3301 69.2239 28.7533 70.1071 29.1967C70.7896 29.5402 71.4485 29.914 72.0389 30.4012C74.2317 32.2163 73.489 35.3088 71.6894 36.5111C70.9703 36.9915 70.1945 37.3473 69.3337 37.4798C66.985 37.8435 64.7344 37.4506 62.5098 36.6356C62.5676 35.4435 62.6231 34.2885 62.6763 33.1895C63.0116 32.9863 63.2903 33.0256 63.5595 33.0256C64.4156 33.0268 64.4144 33.0301 64.5691 33.8776C64.6317 34.2177 64.7533 34.5556 64.7592 34.8957C64.7722 35.5816 65.1878 35.8948 65.8078 36.0721C66.7442 36.3393 67.7006 36.3831 68.6358 36.1563C70.1744 35.7837 70.7507 34.037 69.767 32.8382C69.4541 32.4565 69.0526 32.1703 68.6075 31.9491C67.9238 31.6101 67.2259 31.2958 66.5316 30.9759C65.5881 30.5393 64.7191 30.0027 63.9114 29.3584C62.1402 27.9462 61.8922 24.2734 64.9104 22.9331C65.5338 22.6569 66.1786 22.4773 66.8658 22.4077C68.6146 22.2304 70.3078 22.4784 71.9763 22.9578C72.2219 23.0285 72.3849 23.1486 72.3754 23.3989C72.3341 24.4271 72.2833 25.4554 72.2385 26.4297L72.242 26.432Z" fill="#26355A"/>
<path d="M198.605 36.6603C198.65 35.5614 198.69 34.4871 198.747 33.4129C198.753 33.3063 198.847 33.1379 198.937 33.1109C199.421 32.9661 199.922 32.9706 200.405 33.1166C200.491 33.1424 200.554 33.322 200.577 33.4387C200.688 33.9899 200.799 34.5433 200.876 35.0989C200.928 35.4772 201.105 35.7477 201.469 35.9015C202.598 36.3786 203.777 36.4448 204.931 36.0867C206.322 35.6557 206.792 33.9899 205.898 32.8786C205.562 32.4599 205.12 32.1478 204.633 31.9065C203.99 31.5866 203.33 31.2981 202.676 30.9995C201.73 30.5673 200.827 30.07 200.053 29.3853C197.8 27.3906 198.391 24.0387 201.206 22.8466C201.748 22.6165 202.313 22.4717 202.908 22.4133C204.793 22.2304 206.615 22.4661 208.418 23.0969C208.541 23.7929 208.458 24.4821 208.416 25.1669C208.332 26.5307 208.644 26.8001 206.631 26.4477C206.517 25.828 206.388 25.1927 206.287 24.554C206.224 24.1611 205.987 23.931 205.615 23.8199C204.82 23.5808 204.015 23.5078 203.196 23.7199C201.792 24.0825 201.214 25.562 202.039 26.7126C202.378 27.1852 202.845 27.5365 203.369 27.807C204.087 28.1786 204.826 28.5142 205.545 28.8824C206.224 29.2304 206.923 29.5559 207.555 29.9735C208.469 30.5763 209.201 31.343 209.398 32.443C209.681 34.0179 209.213 35.3549 207.926 36.3921C207.108 37.051 206.137 37.3967 205.074 37.5292C202.854 37.8064 200.746 37.381 198.604 36.6603H198.605Z" fill="#26355A"/>
<path d="M74.1008 3.56175C74.1799 4.636 74.2555 5.62381 74.3204 6.61275C74.3287 6.73398 74.3145 6.89226 74.2389 6.97757C73.9603 7.29412 73.5647 7.12238 73.2199 7.14819C72.9577 7.16728 72.6519 7.17738 72.5303 6.86981C72.339 6.38488 72.1619 5.89434 71.9859 5.40492C71.9068 5.18491 71.7805 5.02439 71.5195 5.00194C70.1675 4.88856 68.8166 4.7707 67.3831 4.81111C67.3666 5.35553 67.3406 5.81913 67.3394 6.28161C67.3359 7.44791 67.3359 8.61533 67.3501 9.78162C67.3548 10.1981 67.5048 10.3541 67.905 10.3552C68.5864 10.3575 69.2677 10.3283 69.949 10.3092C70.3233 10.298 70.5241 10.1116 70.5678 9.75468C70.5878 9.58406 70.6315 9.41456 70.6788 9.2473C70.8618 8.59737 70.9988 8.51542 71.7368 8.57043C72.0769 8.59512 72.2079 8.76911 72.2079 9.07444C72.2056 10.5393 72.2079 12.0042 72.2079 13.4118C71.8879 13.7306 71.5608 13.6319 71.2585 13.6375C70.9964 13.642 70.8441 13.5118 70.7827 13.2715C70.7295 13.0616 70.6681 12.854 70.6079 12.6452C70.3895 11.8819 70.3907 11.865 69.6373 11.8426C68.9158 11.8212 68.1932 11.8381 67.4847 11.8381C67.2946 12.9303 67.2863 15.7781 67.467 16.9422C68.3089 17.0163 69.1662 17.0836 70.0211 17.17C70.4887 17.2172 70.7662 17.8896 70.4627 18.2376C70.3883 18.3217 70.236 18.3812 70.1167 18.3869C69.6633 18.4093 69.2087 18.4082 68.754 18.4082C66.8907 18.4082 65.0274 18.4048 63.1629 18.4014C62.8583 18.4014 62.6469 18.3049 62.6233 17.967C62.5855 17.4215 62.6634 17.2453 63.0354 17.142C63.0791 17.1296 63.1239 17.1218 63.1676 17.1105C64.2126 16.858 64.2185 16.858 64.2197 15.8982C64.2233 12.6137 64.2245 9.33037 64.2197 6.04588C64.2185 5.19838 64.3461 5.08613 63.3377 4.93234C63.2031 4.91214 63.0708 4.87958 62.9397 4.84366C62.5205 4.72917 62.295 4.04219 62.5642 3.68522C62.6126 3.62124 62.7036 3.55726 62.7827 3.54828C63.007 3.52134 63.2349 3.51348 63.4616 3.51348C66.7797 3.51236 70.0978 3.51236 73.4159 3.5146C73.5954 3.5146 73.7737 3.53817 74.1043 3.56175H74.1008Z" fill="#E6321E"/>
<path d="M208.006 17.6741C207.962 16.5639 208.048 15.4908 208.149 14.4165C208.168 14.219 208.284 14.1056 208.479 14.064C208.566 14.045 208.658 14.045 208.749 14.0405C209.856 13.99 209.892 14.0147 210.081 15.0103C210.13 15.2651 210.177 15.5222 210.193 15.7804C210.239 16.5325 210.668 16.9433 211.418 17.1285C212.272 17.3396 213.134 17.3687 213.984 17.2015C214.784 17.0432 215.401 16.6009 215.605 15.7995C215.808 15.0013 215.715 14.2571 215.049 13.6465C214.651 13.2828 214.2 12.9965 213.711 12.7642C213.102 12.4757 212.486 12.1973 211.872 11.9178C210.924 11.4856 210.035 10.967 209.283 10.2621C207.304 8.40543 207.816 5.22196 210.278 3.99505C211.36 3.45624 212.53 3.33613 213.717 3.35072C214.35 3.35858 214.991 3.42369 215.612 3.54043C216.321 3.67401 217.011 3.89514 217.709 4.07699C217.982 4.74601 217.735 5.433 217.792 6.10987C217.802 6.23896 217.791 6.36918 217.786 6.49827C217.747 7.61742 217.682 7.67579 216.538 7.59946C216.104 7.57027 216.004 7.49282 215.918 7.06065C215.815 6.55215 215.712 6.04252 215.639 5.52841C215.591 5.18716 215.404 4.96715 215.081 4.86276C214.249 4.59335 213.419 4.51926 212.54 4.7303C211.27 5.0345 210.564 6.54653 211.451 7.74875C211.797 8.21796 212.26 8.56707 212.786 8.83423C213.547 9.22037 214.325 9.57509 215.083 9.96685C215.76 10.3171 216.463 10.6426 217.079 11.077C219.633 12.8809 219.446 16.2182 216.727 17.7908C215.978 18.223 215.163 18.4677 214.292 18.5575C212.123 18.782 210.059 18.3768 208.008 17.6718L208.006 17.6741Z" fill="#E63420"/>
<path d="M217.043 24.096C218.099 26.0907 219.091 27.9653 220.079 29.8309C220.192 29.7905 220.26 29.7872 220.275 29.7591C221.125 28.0933 221.969 26.4263 222.817 24.7594C222.916 24.5641 223.017 24.371 222.974 24.1375C222.727 23.9141 222.38 23.9826 222.091 23.8793C221.886 23.8064 221.616 23.8064 221.584 23.5291C221.55 23.2316 221.483 22.9173 221.671 22.6491C221.728 22.5649 221.897 22.5121 222.017 22.511C223.428 22.5031 224.838 22.5043 226.249 22.511C226.58 22.5121 226.719 22.7041 226.742 23.0071C226.789 23.6257 226.739 23.7693 226.073 23.9085C225.574 24.0129 225.286 24.2419 225.057 24.6572C223.917 26.7238 222.755 28.7803 221.594 30.8367C221.398 31.1836 221.231 31.5293 221.234 31.9357C221.241 33.1031 221.23 34.2716 221.243 35.439C221.248 35.869 221.319 35.9262 221.805 35.9958C222.21 36.0542 222.619 36.0879 223.024 36.1462C223.473 36.2113 223.517 36.2764 223.52 36.7535C223.522 37.3159 223.43 37.4225 222.804 37.4248C220.666 37.4338 218.527 37.4338 216.388 37.4248C215.819 37.4225 215.689 37.2676 215.708 36.7097C215.722 36.2989 215.803 36.2068 216.267 36.1372C216.671 36.0766 217.078 36.0306 217.485 35.9835C217.815 35.9453 217.942 35.7578 217.942 35.4581C217.94 34.2907 217.943 33.1222 217.944 31.9547C217.944 31.5978 217.809 31.288 217.623 30.9804C216.326 28.8476 215.032 26.7126 213.757 24.5674C213.535 24.1936 213.246 24.0174 212.813 23.9153C212.31 23.7963 212.078 23.1048 212.356 22.6738C212.413 22.5862 212.577 22.5155 212.692 22.5155C214.466 22.5065 216.241 22.5087 218.016 22.511C218.289 22.511 218.419 22.6738 218.455 22.9106C218.554 23.5628 218.435 23.7401 217.767 23.9299C217.594 23.9792 217.416 24.0107 217.042 24.096H217.043Z" fill="#29385D"/>
<path d="M245.941 3.51236C247.533 3.51236 249.124 3.50675 250.716 3.51461C251.647 3.5191 251.647 3.5292 251.708 4.46426C251.756 5.19726 251.813 5.93027 251.85 6.6644C251.867 7.00901 251.74 7.12463 251.377 7.1482C251.242 7.15718 251.105 7.15606 250.969 7.15606C250.438 7.15382 250.082 6.91996 249.899 6.45449C249.724 6.01334 249.655 5.47228 249.337 5.16022C248.956 4.7853 248.301 4.93123 247.766 4.9099C246.834 4.87173 245.893 4.62927 244.962 4.93909C244.746 5.78995 244.899 6.65429 244.869 7.51078C244.843 8.2449 244.853 8.98128 244.869 9.7154C244.881 10.2744 244.989 10.3676 245.615 10.3631C246.252 10.3575 246.888 10.3317 247.523 10.3014C247.828 10.2868 248.022 10.1285 248.083 9.83327C248.135 9.57846 248.182 9.32252 248.255 9.07332C248.39 8.61421 249.134 8.37287 249.572 8.65575C249.665 8.71636 249.742 8.86902 249.742 8.98015C249.751 10.4069 249.747 11.8336 249.742 13.2603C249.742 13.5275 249.557 13.6296 249.303 13.6386C249.121 13.6453 248.939 13.6442 248.757 13.6364C248.562 13.6285 248.414 13.5477 248.346 13.3647C248.301 13.2424 248.246 13.12 248.226 12.9932C248.017 11.6596 247.779 11.8718 246.727 11.828C246.273 11.8089 245.818 11.8156 245.364 11.8134C245.027 11.8111 244.872 11.9829 244.871 12.2938C244.869 12.9426 244.866 13.5903 244.864 14.2392C244.864 14.412 244.855 14.586 244.865 14.7578C244.908 15.4425 244.762 16.134 244.955 16.8131C245.614 17.1947 246.37 16.9646 247.065 17.115C247.241 17.1532 247.425 17.1588 247.607 17.1723C247.928 17.197 248.085 17.344 248.097 17.664C248.118 18.2443 248.016 18.3992 247.455 18.4015C245.181 18.4104 242.906 18.4037 240.633 18.4037C240.376 18.4037 240.2 18.306 240.155 18.0512C240.068 17.5629 240.177 17.2554 240.469 17.1622C240.512 17.1487 240.558 17.1431 240.6 17.1285C240.938 17.0129 241.376 17.1364 241.624 16.8546C241.905 16.5358 241.754 16.1093 241.755 15.7321C241.766 12.5756 241.761 9.42018 241.761 6.26366C241.761 6.00436 241.755 5.74505 241.754 5.48575C241.751 5.23655 241.624 5.08726 241.366 5.03562C241.055 4.97276 240.747 4.89867 240.434 4.84143C240.103 4.77969 240.012 4.57651 240.004 4.28353C239.986 3.63584 240.075 3.52022 240.756 3.51573C242.485 3.50675 244.212 3.51236 245.941 3.51236Z" fill="#E6321E"/>
<path d="M178.296 24.0589C178.296 24.252 178.265 24.3497 178.301 24.4159C179.201 26.1581 180.11 27.898 181.019 29.6379C181.111 29.8141 181.342 29.8444 181.437 29.703C181.718 29.2831 183.853 24.7628 184.049 24.1723C183.875 23.9242 183.575 23.9894 183.33 23.9242C182.633 23.7379 182.527 23.5976 182.614 22.9308C182.646 22.6872 182.775 22.5233 183.043 22.5222C184.497 22.5155 185.952 22.5155 187.407 22.5177C187.62 22.5177 187.728 22.6524 187.756 22.8399C187.777 22.9667 187.771 23.0981 187.782 23.2272C187.816 23.5729 187.703 23.8445 187.304 23.8771C186.631 23.9321 186.308 24.3171 186.015 24.8582C184.932 26.854 183.804 28.8274 182.678 30.8008C182.411 31.2689 182.278 31.7437 182.292 32.2803C182.319 33.3175 182.294 34.3547 182.306 35.3919C182.312 35.86 182.377 35.9228 182.82 35.9891C183.178 36.0418 183.541 36.0744 183.901 36.1227C184.507 36.2035 184.765 36.6727 184.501 37.2216C184.445 37.3361 184.345 37.4259 184.185 37.4214C184.003 37.4169 183.821 37.4304 183.639 37.4304C181.548 37.4304 179.455 37.4326 177.364 37.4248C176.914 37.4225 176.826 37.3193 176.801 36.8848C176.769 36.3258 176.841 36.217 177.289 36.1417C177.82 36.0519 178.351 35.9644 178.883 35.8757C179.132 35.3391 178.998 34.7734 179.007 34.2222C179.02 33.3164 179.159 32.3645 178.92 31.5147C178.682 30.6661 178.053 29.9151 177.581 29.1282C176.704 27.6645 175.808 26.2119 174.942 24.7414C174.685 24.3037 174.386 24.0107 173.836 23.8973C173.305 23.7873 173.152 23.3338 173.355 22.7714C173.381 22.6996 173.452 22.6289 173.522 22.5884C173.595 22.5458 173.692 22.5211 173.778 22.52C175.55 22.5166 177.324 22.5166 179.096 22.52C179.359 22.52 179.527 22.6547 179.543 22.9061C179.592 23.7301 179.538 23.7738 178.864 23.9265C178.687 23.9669 178.511 24.0096 178.296 24.0601V24.0589Z" fill="#29385D"/>
<path d="M294.488 3.64482C294.509 3.80309 294.549 3.97035 294.55 4.13872C294.551 4.71345 294.546 4.7157 294.032 4.87622C293.902 4.91663 293.768 4.94245 293.638 4.98174C293.51 5.02102 293.383 5.06817 293.257 5.11195C293.537 6.0021 295.784 10.2374 296.359 10.9131C297.312 8.97453 298.243 7.0786 299.194 5.14338C298.631 4.99072 298.157 4.86163 297.619 4.7157C297.619 4.44854 297.612 4.1926 297.621 3.93779C297.629 3.68859 297.768 3.53032 298.038 3.52807C299.448 3.52022 300.857 3.51909 302.267 3.51797C302.588 3.51797 302.761 3.65941 302.771 3.98269C302.794 4.81223 302.732 4.79652 302.152 4.91214C301.673 5.00755 301.363 5.23542 301.132 5.653C299.971 7.7566 298.788 9.84898 297.608 11.9436C297.412 12.2916 297.288 12.6429 297.295 13.0504C297.315 14.174 297.295 15.2977 297.308 16.4224C297.313 16.8883 297.383 16.9523 297.831 17.0084C298.192 17.0544 298.556 17.0746 298.915 17.1251C299.539 17.2127 299.657 17.3788 299.573 17.9996C299.54 18.2465 299.408 18.397 299.14 18.4003C298.412 18.4082 297.685 18.4104 296.958 18.4104C295.457 18.4104 293.956 18.4149 292.456 18.4048C291.952 18.4014 291.849 18.3049 291.821 17.9277C291.777 17.3429 291.869 17.2408 292.419 17.1251C292.903 17.0241 293.537 17.2105 293.85 16.8715C294.245 16.4438 294.006 15.7983 294.015 15.2483C294.032 14.3413 294.171 13.3905 293.935 12.5397C293.699 11.691 293.07 10.9378 292.6 10.1509C291.77 8.76126 290.914 7.38505 290.098 5.98751C289.779 5.44197 289.442 4.98847 288.734 4.85489C288.347 4.78193 288.148 3.97708 288.396 3.66614C288.445 3.6044 288.542 3.55838 288.625 3.54042C289.065 3.44837 293.831 3.53369 294.493 3.64257L294.488 3.64482Z" fill="#E63420"/>
<path d="M105.832 24.8582C105.798 25.4621 105.771 26.066 105.725 26.6688C105.706 26.918 105.532 27.0493 105.275 27.0639C105.048 27.0763 104.82 27.0729 104.593 27.074C103.957 27.0785 103.665 27.1212 103.546 26.2254C103.472 25.672 103.271 25.1343 103.161 24.5843C103.082 24.188 102.827 23.9725 102.451 23.8861C100.333 23.4 98.8404 23.812 97.7989 25.5788C97.4837 26.1132 97.2759 26.6901 97.1625 27.2806C96.7917 29.2158 96.8082 31.1488 97.3502 33.0604C97.5403 33.7306 97.8379 34.3581 98.2453 34.9395C99.334 36.4909 101.337 36.4751 102.636 36.0037C102.99 35.8757 103.247 35.6501 103.391 35.3032C103.541 34.9418 103.711 34.5882 103.881 34.2346C104.19 33.5891 104.192 33.5891 104.887 33.6239C105.925 33.6756 105.947 33.6969 105.844 34.6802C105.772 35.3661 105.883 36.1732 105.454 36.6862C105.021 37.2059 104.134 37.1318 103.442 37.3002C101.694 37.7267 99.9398 37.7436 98.191 37.289C96.4186 36.8276 95.1079 35.7904 94.3427 34.2301C93.0911 31.6741 93.0001 29.0205 94.1833 26.4421C95.3346 23.9332 97.4955 22.6255 100.362 22.4032C102.055 22.2719 103.716 22.5458 105.373 22.8219C105.818 22.896 105.897 23.0072 105.888 23.4337C105.876 23.9085 105.845 24.3834 105.821 24.8582C105.825 24.8582 105.828 24.8582 105.832 24.8582Z" fill="#26355A"/>
<path d="M149.476 22.5087C150.386 22.5087 151.296 22.5065 152.207 22.5099C152.518 22.511 152.71 22.6423 152.738 22.9656C152.788 23.5246 152.716 23.7155 152.363 23.8131C152.188 23.8614 152.011 23.913 151.831 23.9276C150.891 24.0062 150.867 24.0343 150.868 24.9525C150.87 28.3279 150.868 31.7033 150.868 35.0798C150.868 35.21 150.874 35.3391 150.869 35.4694C150.859 35.7657 150.967 35.9621 151.309 36.0025C151.58 36.034 151.849 36.0845 152.117 36.135C152.68 36.2405 152.893 36.6368 152.692 37.1677C152.637 37.3148 152.516 37.3642 152.389 37.3933C152.259 37.4237 152.118 37.4225 151.981 37.4237C150.205 37.4248 148.43 37.4304 146.655 37.4203C146.056 37.4169 145.749 36.8635 146.022 36.3483C146.096 36.2068 146.221 36.1878 146.348 36.153C146.777 36.0351 147.342 36.1676 147.62 35.8084C147.92 35.4211 147.739 34.8879 147.741 34.4209C147.753 31.4777 147.747 28.5356 147.747 25.5923C147.747 25.2892 147.755 24.9861 147.741 24.6831C147.716 24.151 147.662 24.0904 147.155 23.9826C146.978 23.9444 146.795 23.9287 146.618 23.8894C145.979 23.7458 145.92 23.647 145.963 22.9869C145.984 22.667 146.149 22.5166 146.47 22.5132C147.244 22.5065 148.018 22.5065 148.792 22.5043C149.02 22.5043 149.248 22.5043 149.474 22.5043V22.5076L149.476 22.5087Z" fill="#26355A"/>
<path d="M79.9861 16.9343C80.1608 15.759 80.1537 6.14691 79.9813 5.10072C79.6389 5.02888 79.2847 4.96153 78.934 4.87734C78.7238 4.82683 78.4522 4.85264 78.3554 4.60681C78.2408 4.31608 78.2562 4.01188 78.3613 3.72002C78.3861 3.65043 78.4782 3.57634 78.5549 3.55501C78.6836 3.51909 78.8241 3.5146 78.9599 3.5146C80.7796 3.51236 82.5992 3.50787 84.4188 3.51685C84.9726 3.52021 85.0506 3.61002 85.0565 4.11627C85.0647 4.80213 84.9608 4.78866 84.4117 4.88183C84.1437 4.92785 83.8768 4.98622 83.61 5.03561C83.349 5.08388 83.2238 5.2343 83.2215 5.4835C83.2191 5.70015 83.2132 5.91567 83.2132 6.13232C83.2132 9.37527 83.2132 12.6194 83.2132 15.8623C83.2132 16.1216 83.225 16.3809 83.2357 16.6391C83.2439 16.84 83.3774 16.9467 83.5663 16.9837C83.9229 17.0544 84.2842 17.1004 84.6385 17.1757C85.0187 17.2565 85.1025 17.4529 85.0506 17.9872C85.0175 18.3319 84.779 18.4003 84.4885 18.4014C82.624 18.4059 80.7583 18.4104 78.8938 18.4014C78.4309 18.3992 78.3117 18.2757 78.2892 17.884C78.2609 17.3755 78.3554 17.2273 78.8135 17.1341C79.2067 17.0544 79.6047 16.9972 79.9837 16.9332L79.9861 16.9343Z" fill="#E6321E"/>
</g>
<defs>
<clipPath id="clip0_160_2542">
<rect width="323.444" height="41" fill="white"/>
</clipPath>
</defs>
</svg>
