<svg width="57" height="63" viewBox="0 0 57 63" fill="none" xmlns="http://www.w3.org/2000/svg">
<g clip-path="url(#clip0_2_130)">
<path d="M28.5 0.91748V9.12583" stroke="white" strokeWidth="1.5" stroke-linecap="round" stroke-linejoin="round"/>
<path d="M28.5 53.8742V62.0825" stroke="white" strokeWidth="1.5" stroke-linecap="round" stroke-linejoin="round"/>
<path d="M4.72327 10.3981L10.0385 15.6705" stroke="white" strokeWidth="1.5" stroke-linecap="round" stroke-linejoin="round"/>
<path d="M46.9615 48.5651L52.2767 53.8375" stroke="white" strokeWidth="1.5" stroke-linecap="round" stroke-linejoin="round"/>
<path d="M52.2767 10.3981L46.9615 15.6705" stroke="white" strokeWidth="1.5" stroke-linecap="round" stroke-linejoin="round"/>
<path d="M10.0385 48.5651L4.72327 53.8375" stroke="white" strokeWidth="1.5" stroke-linecap="round" stroke-linejoin="round"/>
<path d="M56.0751 31.5C56.0751 31.5 45.1116 47.6598 28.5 47.6598C11.8884 47.6598 0.924927 31.5 0.924927 31.5C0.924927 31.5 11.8884 15.3402 28.5 15.3402C45.1116 15.3402 56.0751 31.5 56.0751 31.5Z" stroke="white" strokeWidth="1.5" stroke-linecap="round" stroke-linejoin="round"/>
<path d="M24.9113 22.2029C24.9113 22.2029 24.9976 22.1662 25.0469 22.154C25.0963 22.1295 25.1456 22.1173 25.1949 22.105C25.2443 22.0928 25.2813 22.0683 25.3306 22.0561C25.3923 22.0316 25.4539 22.0194 25.5156 21.9949C25.5896 21.9705 25.6759 21.946 25.7499 21.9215C25.8239 21.8971 25.8979 21.8726 25.9842 21.8604C26.0705 21.8359 26.1445 21.8237 26.2309 21.7992C26.3048 21.787 26.3788 21.7625 26.4652 21.7503C26.5268 21.738 26.5885 21.7258 26.6502 21.7136C26.6995 21.7136 26.7611 21.6891 26.8105 21.6891C26.8351 21.6891 26.8721 21.6891 26.9091 21.6769C26.9708 21.6769 27.0201 21.6646 27.0818 21.6524C27.0941 21.6524 27.1064 21.6524 27.1311 21.6524C27.1804 21.6524 27.2298 21.6402 27.2791 21.6279C27.3284 21.6279 27.3901 21.6157 27.4394 21.6157H27.5134C27.5134 21.6157 27.6244 21.5912 27.6737 21.5912C27.6984 21.5912 27.7354 21.5912 27.7601 21.5912C27.7971 21.5912 27.8341 21.5912 27.8711 21.5912C27.9204 21.5912 27.982 21.5912 28.0314 21.5912C28.1054 21.5912 28.167 21.5912 28.241 21.5912C28.3273 21.5912 28.4137 21.5912 28.5 21.5912C34.0372 21.5912 38.5262 26.0441 38.5262 31.5367C38.5262 33.2493 38.0822 34.8641 37.3176 36.2709C37.2436 36.4054 37.1573 36.5522 37.0833 36.6868C37.0463 36.7602 36.997 36.8213 36.9476 36.8947C36.8736 37.0171 36.7873 37.1394 36.701 37.2617C36.701 37.274 36.6887 37.2862 36.6763 37.2984C36.4913 37.5553 36.294 37.8 36.0844 38.0324C35.9241 38.2159 35.7637 38.3872 35.5911 38.5584C35.4431 38.7052 35.2828 38.8643 35.1101 38.9988C34.4195 39.5982 33.6549 40.112 32.8163 40.5035C32.6807 40.5646 32.545 40.6258 32.397 40.687C32.101 40.8093 31.7927 40.9194 31.4721 41.0173C31.1514 41.1151 30.8431 41.2008 30.5102 41.2619C29.8566 41.3965 29.1783 41.4699 28.4877 41.4699C22.9505 41.4699 18.4615 37.0171 18.4615 31.5245C18.4615 31.4388 18.4615 31.3532 18.4615 31.2676C18.4615 31.1942 18.4615 31.133 18.4615 31.0596C18.4615 30.9984 18.4615 30.925 18.4615 30.8639C18.4615 30.8394 18.4615 30.8272 18.4615 30.8027C18.4615 30.7415 18.4615 30.6804 18.4738 30.6192C18.4738 30.607 18.4738 30.5947 18.4738 30.5703C18.4738 30.4969 18.4862 30.4235 18.4985 30.3623C18.4985 30.2889 18.5108 30.2155 18.5231 30.1421C18.5231 30.081 18.5355 30.032 18.5478 29.9709C18.5478 29.8975 18.5725 29.8241 18.5848 29.7507C18.5848 29.7262 18.5848 29.714 18.5848 29.6895" stroke="white" strokeWidth="1.5" stroke-linecap="round" stroke-linejoin="round"/>
<path d="M28.5 35.2311C26.4282 35.2311 24.7386 33.5551 24.7386 31.5C24.7386 29.4448 26.4282 27.7689 28.5 27.7689C30.5718 27.7689 32.2614 29.4448 32.2614 31.5C32.2614 33.5551 30.5718 35.2311 28.5 35.2311Z" stroke="white" strokeWidth="1.5" stroke-linecap="round" stroke-linejoin="round"/>
</g>
<defs>
<clipPath id="clip0_2_130">
<rect width="57" height="63" fill="white"/>
</clipPath>
</defs>
</svg>
