<svg width="60" height="60" viewBox="0 0 60 60" fill="none" xmlns="http://www.w3.org/2000/svg">
<g clip-path="url(#clip0_160_2745)">
<path fill-rule="evenodd" clip-rule="evenodd" d="M30.0063 1.76251C14.3312 1.76251 1.63281 14.4 1.63281 30C1.63281 35.725 3.35356 41.05 6.29264 45.5L2.56227 57.0875L14.306 53.525C18.8026 56.5 24.1909 58.2375 29.9937 58.2375C45.6688 58.2375 58.3672 45.6 58.3672 30C58.3672 14.4 45.6688 1.76251 30.0063 1.76251Z" fill="#2DB34A"/>
<path fill-rule="evenodd" clip-rule="evenodd" d="M51.2581 8.725C45.6186 3.1 38.1202 0 30.1319 0C13.6529 0 0.251204 13.3375 0.251204 29.725C0.251204 34.9625 1.62026 40.075 4.23278 44.5875L0 60L15.8384 55.8625C20.1968 58.2375 25.1204 59.475 30.1193 59.475C46.5857 59.475 59.9874 46.1375 60 29.7375C60 21.7875 56.8976 14.325 51.2581 8.7V8.725ZM30.1319 54.4625C25.673 54.4625 21.3021 53.275 17.4963 51.0125L16.592 50.475L7.19699 52.925L9.70902 43.8L9.11869 42.8625C6.63178 38.925 5.32552 34.375 5.32552 29.7125C5.32552 16.0875 16.4664 5 30.1696 5C36.8013 5 43.0312 7.575 47.7287 12.25C52.4136 16.925 55.001 23.125 55.001 29.7375C55.001 43.3625 43.8602 54.45 30.1696 54.45L30.1319 54.4625ZM43.7471 35.95C43.0061 35.575 39.3259 33.7875 38.6477 33.5375C37.9694 33.2875 37.467 33.1625 36.9646 33.9125C36.4622 34.65 35.0304 36.325 34.6033 36.825C34.1637 37.325 33.7367 37.3875 32.983 37.0125C32.242 36.6375 29.8304 35.85 26.9793 33.325C24.7561 31.35 23.2615 28.925 22.8219 28.175C22.3822 27.425 22.8219 27.0625 23.1484 26.6625C23.9523 25.6625 24.7687 24.6125 25.0199 24.125C25.2711 23.625 25.1455 23.2 24.9571 22.825C24.7687 22.45 23.274 18.8 22.6586 17.3125C22.0557 15.8625 21.4402 16.0625 20.9755 16.0375C20.5359 16.0125 20.0461 16.0125 19.5436 16.0125C19.0412 16.0125 18.2374 16.2 17.5466 16.9375C16.8683 17.6875 14.9341 19.475 14.9341 23.1375C14.9341 26.8 17.6094 30.325 17.9862 30.825C18.363 31.325 23.2489 38.825 30.7348 42.0375C32.5183 42.8 33.8999 43.2625 34.9927 43.6C36.7762 44.1625 38.409 44.0875 39.6902 43.9C41.122 43.6875 44.1114 42.1 44.7268 40.3625C45.3548 38.625 45.3548 37.1375 45.1664 36.825C44.978 36.5125 44.4882 36.325 43.7346 35.9625L43.7471 35.95Z" fill="white"/>
</g>
<defs>
<clipPath id="clip0_160_2745">
<rect width="60" height="60" fill="white"/>
</clipPath>
</defs>
</svg>
