<svg width="22" height="24" viewBox="0 0 22 24" fill="none" xmlns="http://www.w3.org/2000/svg">
<g clip-path="url(#clip0_160_2476)">
<path d="M10.4978 1.41809C5.77534 1.41809 1.94727 4.99696 1.94727 9.41201C1.94727 11.0258 2.46155 12.5268 3.33807 13.7811L10.4129 22.3185L17.6531 13.7811C18.5341 12.5226 19.0439 11.0217 19.0439 9.41201C19.0529 4.99696 15.2203 1.41809 10.4978 1.41809Z" stroke="#243359" stroke-width="2" stroke-miterlimit="10" stroke-linecap="round"/>
<path d="M10.4029 14.1867C13.2531 14.1867 15.5637 12.0265 15.5637 9.36189C15.5637 6.69724 13.2531 4.53711 10.4029 4.53711C7.55273 4.53711 5.24219 6.69724 5.24219 9.36189C5.24219 12.0265 7.55273 14.1867 10.4029 14.1867Z" stroke="#243359" stroke-width="2" stroke-miterlimit="10" stroke-linecap="round"/>
</g>
<defs>
<clipPath id="clip0_160_2476">
<rect width="21" height="24" fill="white" transform="translate(0.5)"/>
</clipPath>
</defs>
</svg>
