<svg width="46" height="47" viewBox="0 0 46 47" fill="none" xmlns="http://www.w3.org/2000/svg">
<g clip-path="url(#clip0_160_2450)">
<path fill-rule="evenodd" clip-rule="evenodd" d="M28.3525 44.6764C27.4795 44.6764 26.7725 44.5882 26.336 44.5176C23.7957 44.0941 21.3864 42.8412 19.3612 40.9L5.01881 26.4029C0.0692498 21.4 0.0692498 13.2647 5.01881 8.26174C5.88302 7.38821 7.02657 6.91174 8.24869 6.91174C9.4708 6.91174 10.6144 7.38821 11.4786 8.26174L14.3505 11.1647C15.2147 12.0382 15.6861 13.1941 15.6861 14.4294C15.6861 15.6647 15.206 16.8206 14.3505 17.6941C13.6784 18.3735 13.3117 19.2735 13.3117 20.2353C13.3117 21.197 13.6784 22.097 14.3505 22.7764L22.9664 31.4853C23.6386 32.1647 24.529 32.5353 25.4805 32.5353C26.432 32.5353 27.3224 32.1647 27.9946 31.4853C28.8588 30.6117 30.0023 30.1353 31.2244 30.1353C32.4466 30.1353 33.5901 30.6206 34.4543 31.4853L37.3263 34.3882C38.1905 35.2617 38.6619 36.4176 38.6619 37.6529C38.6619 38.8882 38.1818 40.0441 37.3263 40.9176C34.9257 43.3441 31.7395 44.6764 28.3525 44.6764Z" stroke="#E6321E" stroke-width="3" stroke-linecap="round" stroke-linejoin="round"/>
<path d="M24.3633 2.48231C25.1227 2.37643 25.8909 2.32349 26.6853 2.32349C36.0781 2.32349 43.6901 10.0176 43.6901 19.5117C43.6901 20.0588 43.664 20.597 43.6203 21.1264" stroke="#E6321E" stroke-width="3" stroke-linecap="round" stroke-linejoin="round"/>
<path d="M25.1406 10.8823C25.6382 10.794 26.162 10.7411 26.6857 10.7411C31.4782 10.7411 35.3627 14.6676 35.3627 19.5117C35.3627 20.0676 35.3104 20.6058 35.2143 21.1264" stroke="#E6321E" stroke-width="3" stroke-linecap="round" stroke-linejoin="round"/>
</g>
<defs>
<clipPath id="clip0_160_2450">
<rect width="46" height="47" fill="white"/>
</clipPath>
</defs>
</svg>
