<svg width="32" height="32" viewBox="0 0 32 32" fill="none" xmlns="http://www.w3.org/2000/svg">
<path d="M31.3734 29.4457C31.3469 28.9905 31.2975 28.5402 31.265 28.0875C31.1964 27.0743 31.2349 26.066 31.2867 25.0529C31.3144 24.5047 30.8147 24.0471 30.297 24.0471C30.0261 24.0471 29.7925 24.1584 29.6179 24.3334C29.5131 24.2942 29.4048 24.2673 29.288 24.2759C29.1832 24.2844 29.0797 24.2955 28.9762 24.3077C28.9497 23.9895 28.9376 23.6702 28.9256 23.3545C28.9087 22.9372 28.8931 22.5236 28.881 22.1088C28.8509 21.1703 28.8004 20.2281 28.7606 19.2896C28.7209 18.3535 28.751 17.4113 28.7606 16.4728C28.7654 16.0225 28.763 15.5746 28.7847 15.1243C28.8064 14.6643 28.8389 14.2042 28.8533 13.7416C28.881 12.9157 28.881 12.0848 28.9003 11.2577C28.922 10.4366 28.9328 9.61555 28.9352 8.79204C29.0689 8.80917 29.2013 8.82753 29.3362 8.83977C29.5553 8.86179 29.7792 8.86669 30.0008 8.8728C30.0995 8.87525 30.191 8.84588 30.2813 8.81774C30.2909 8.81774 30.2994 8.82386 30.3102 8.82386C30.8147 8.82386 31.2433 8.39314 31.2409 7.87799C31.2361 6.9774 31.2505 6.07436 31.2686 5.17132C31.2903 4.17039 31.3818 3.17313 31.389 2.1722C31.3902 1.89199 31.2686 1.63747 31.0808 1.45393C30.9712 1.13823 30.7376 0.867808 30.4029 0.782154C30.1368 0.714854 29.8515 0.727091 29.5782 0.707513C29.3398 0.692829 29.1002 0.679369 28.8618 0.667133C28.4873 0.650002 28.1165 0.616964 27.742 0.614517C27.2893 0.610846 26.8378 0.608398 26.3851 0.608398C25.6157 0.608398 24.8476 0.61574 24.0782 0.638989C23.4846 0.65612 22.9874 1.12967 22.9874 1.74515C22.9874 2.04984 23.1258 2.33861 23.3377 2.54785C23.3534 2.78646 23.3678 3.02629 23.3823 3.2649C23.0114 3.28815 22.6394 3.28448 22.2698 3.2906C21.8315 3.29549 21.3956 3.32364 20.9598 3.32608C20.1423 3.32853 19.3259 3.33587 18.5108 3.33098C17.562 3.32486 16.6145 3.32731 15.6669 3.31507C14.7567 3.30283 13.8477 3.26001 12.9374 3.24288C12.1127 3.22819 11.2879 3.23798 10.4632 3.21596C9.7576 3.19883 9.05204 3.1768 8.34649 3.156C8.34649 2.91739 8.34408 2.67878 8.34528 2.43895C8.34649 2.21136 8.25618 2.00701 8.12735 1.83448C8.12735 1.82346 8.13337 1.8149 8.13337 1.80389C8.13337 1.53346 8.02742 1.26916 7.83839 1.07827C7.63611 0.873926 7.40013 0.801732 7.12441 0.778483C6.23584 0.698947 5.34487 0.785825 4.45389 0.785825C3.33536 0.788272 2.21803 0.754011 1.1007 0.739327C1.09709 0.739327 1.09227 0.739327 1.08866 0.739327C0.539625 0.739327 0.0869141 1.21777 0.0869141 1.76962C0.0869141 2.07064 0.225376 2.33861 0.433672 2.52828C0.451732 2.97001 0.474608 3.41174 0.48424 3.85347C0.492668 4.32579 0.490261 4.79566 0.485445 5.26676C0.480628 5.73664 0.483036 6.21018 0.485445 6.68006C0.487853 7.12791 0.47822 7.57575 0.527585 8.02116C0.556481 8.29036 0.61307 8.51306 0.809325 8.71128C0.988724 8.89361 1.23555 8.99639 1.4908 8.99639C1.57508 8.99639 1.65575 8.96947 1.73642 8.94622C2.12773 8.94378 2.51903 8.93276 2.90913 8.92297C2.8983 9.86639 2.90432 10.8098 2.87422 11.7532C2.84291 12.6599 2.81402 13.5691 2.73576 14.4721C2.69843 14.9126 2.64184 15.3519 2.64425 15.7949C2.64666 16.2574 2.65388 16.7175 2.65388 17.1788C2.65629 18.1039 2.64425 19.0277 2.65148 19.9528C2.6587 20.7286 2.69602 21.5043 2.73576 22.2789C2.76826 22.8736 2.78633 23.4671 2.82726 24.0581C2.56358 24.0544 2.2987 24.0483 2.03502 24.0471C1.669 24.0458 1.35715 24.2587 1.17294 24.5585C0.898423 24.7372 0.700964 25.0357 0.70578 25.3833C0.713004 25.9266 0.740696 26.4711 0.738288 27.0119C0.73588 27.4475 0.731064 27.8831 0.72384 28.32C0.714208 28.7397 0.714208 29.1582 0.709392 29.5779C0.709392 29.7602 0.716616 29.9425 0.731064 30.1236C0.752737 30.4112 0.778021 30.6791 0.922503 30.9337C0.928523 30.9459 0.940564 30.9532 0.947788 30.9642C1.09829 31.3313 1.45588 31.5981 1.86766 31.5944C2.97295 31.5822 4.07583 31.5724 5.18112 31.5846C5.51102 31.5895 5.83611 31.6152 6.16601 31.6128C6.47062 31.6103 6.78608 31.6054 7.08708 31.6372C7.063 31.6336 7.03892 31.6311 7.01604 31.6275C7.21952 31.6446 7.40856 31.6189 7.6012 31.5051C7.81792 31.3754 7.97806 31.1625 8.04669 30.9165C8.05752 30.8761 8.04909 30.8333 8.05511 30.7917C8.34769 30.6314 8.55599 30.3267 8.55599 29.9707C8.55599 29.9021 8.55719 29.8348 8.55719 29.7663C10.4451 29.6696 12.327 29.6072 14.2173 29.6452C15.1576 29.6623 16.0956 29.6745 17.0335 29.7174C17.8944 29.7577 18.7516 29.8079 19.6149 29.8128C20.3506 29.8177 21.0874 29.8385 21.8255 29.8409C22.3071 29.8409 22.7887 29.8373 23.2703 29.8226C23.2908 30.1456 23.3124 30.4674 23.357 30.7893C23.4015 30.9496 23.4822 31.0915 23.5978 31.209C23.7013 31.313 23.8278 31.3815 23.9638 31.428C24.1492 31.7131 24.4502 31.9199 24.803 31.9126C25.6844 31.893 26.5657 31.8379 27.447 31.8293C27.6445 31.8293 27.8432 31.8318 28.043 31.8367C28.5969 31.8465 29.1531 31.8587 29.6949 31.7437C29.9382 31.6923 30.1236 31.5271 30.2512 31.3228C30.7051 31.4048 31.2361 31.1343 31.3324 30.6498C31.4131 30.246 31.3938 29.8507 31.3734 29.4457ZM27.6168 2.71549C27.8191 2.71304 28.025 2.74608 28.2273 2.75832C28.4018 2.76811 28.5764 2.77055 28.7486 2.78646C28.9701 2.80604 29.1869 2.82195 29.4096 2.82439C29.4048 3.59284 29.3927 4.36005 29.3855 5.12972C29.3795 5.6987 29.3819 6.26769 29.3831 6.83668C29.1881 6.82322 28.9918 6.81343 28.7968 6.80242C28.3537 6.77672 27.9058 6.79752 27.4627 6.79997C26.9209 6.80487 26.3803 6.79753 25.8385 6.79263C25.6904 6.79018 25.5411 6.79141 25.393 6.78896C25.3882 6.16858 25.3966 5.54942 25.3834 4.92904C25.3713 4.22178 25.3496 3.5133 25.3256 2.80482C25.5856 2.79503 25.8445 2.78402 26.1034 2.77423C26.6078 2.7571 27.1123 2.72039 27.6168 2.71549ZM4.93309 2.77055C5.25095 2.77055 5.57363 2.77055 5.8951 2.7779C6.03597 2.78279 6.17805 2.78891 6.32012 2.79625C6.33216 3.26735 6.35022 3.73722 6.36708 4.20832C6.38634 4.70389 6.38393 5.20191 6.38875 5.70115C6.39357 6.10862 6.42848 6.51609 6.44293 6.92234C6.44293 6.94436 6.44414 6.96761 6.44534 6.99086C5.86741 6.98474 5.28948 6.97618 4.71396 6.98596C3.93496 6.99942 3.15716 6.97373 2.37816 6.9566C2.37696 6.82445 2.36612 6.69107 2.36612 6.55769C2.36853 6.09516 2.36853 5.63263 2.36371 5.17132C2.35529 4.37718 2.34927 3.58305 2.33843 2.78891C3.04278 2.78034 3.74713 2.77055 4.45389 2.77055C4.61162 2.773 4.77296 2.77055 4.93309 2.77055ZM6.20454 29.666C5.87945 29.6586 5.55196 29.6562 5.22446 29.6488C4.76934 29.6366 4.31663 29.6085 3.86272 29.5938C3.47021 29.5828 3.0789 29.5815 2.6876 29.5779C2.67435 29.1178 2.67796 28.6553 2.67435 28.2001C2.66352 27.5136 2.67074 26.8259 2.67315 26.1395C3.24506 26.137 3.81697 26.1346 4.39008 26.1309C4.68988 26.1285 4.98607 26.1236 5.28346 26.1211C5.51222 26.1187 5.7458 26.1113 5.97216 26.1407C5.88788 26.1285 5.79999 26.1162 5.7157 26.1052C6.02875 26.1505 6.343 26.1701 6.65845 26.1774C6.65725 27.3398 6.65845 28.5023 6.69457 29.6647C6.65123 29.666 6.60668 29.6623 6.56333 29.6635C6.43932 29.666 6.32133 29.6709 6.20454 29.666ZM21.3053 28.0006C20.4433 27.9908 19.58 27.97 18.7203 27.948C17.8173 27.9235 16.9179 27.8587 16.0149 27.833C15.5778 27.8207 15.1432 27.8158 14.7073 27.8158C14.2209 27.8158 13.7357 27.822 13.248 27.8305C11.6913 27.8599 10.1333 27.8477 8.57645 27.9088C8.59211 27.1673 8.64267 26.4258 8.65351 25.6818C8.65592 25.4787 8.57886 25.2988 8.47291 25.1385C8.45605 24.6063 8.01779 24.156 7.48682 24.1609C7.13524 24.1633 6.78728 24.1584 6.43571 24.1535C6.34661 24.1535 6.25631 24.1535 6.16962 24.1535C5.97577 24.156 5.78313 24.156 5.58687 24.1437C5.28707 24.1266 4.98727 24.1193 4.68747 24.107C4.60921 23.3471 4.6068 22.5824 4.58513 21.8188C4.57309 21.3857 4.5454 20.9513 4.5454 20.5181C4.54299 20.0751 4.55503 19.6346 4.54781 19.1929C4.53215 18.2666 4.54178 17.3379 4.53456 16.4079C4.53215 15.9527 4.52252 15.5 4.52011 15.0448C4.5153 14.6165 4.57911 14.187 4.59115 13.7588C4.60319 13.3709 4.59356 12.983 4.60801 12.5951C4.62245 12.1778 4.64774 11.7642 4.67663 11.3494C4.72961 10.5357 4.76212 9.722 4.7874 8.90829C5.18593 8.91685 5.58447 8.93643 5.983 8.94378C6.19972 8.94867 6.41644 8.94867 6.63076 8.94867C6.81257 8.94867 6.99317 8.94867 7.17498 8.94867C7.26648 8.94867 7.34956 8.9193 7.43384 8.89483C7.43866 8.89483 7.44347 8.89728 7.44949 8.89728C7.93471 8.89728 8.45605 8.45188 8.40909 7.92204C8.37779 7.58922 8.3802 7.25394 8.37057 6.92111C8.35853 6.51609 8.34649 6.1074 8.34889 5.69993C8.3501 5.47356 8.34769 5.24718 8.34769 5.01959C9.05806 5.02693 9.76964 5.02938 10.4812 5.02693C11.5275 5.02204 12.5762 5.01714 13.6225 5.04651C14.5279 5.07221 15.4297 5.11136 16.3352 5.12605C16.83 5.13583 17.3273 5.13339 17.8245 5.13094C18.2483 5.12849 18.6758 5.12849 19.102 5.13094C19.8184 5.13828 20.5275 5.13094 21.2439 5.0979C21.628 5.07832 22.0145 5.06486 22.401 5.05018C22.755 5.03427 23.1126 5.01347 23.4666 5.03183C23.4846 5.7293 23.4906 6.42676 23.4918 7.12423C23.3329 7.30288 23.2282 7.53293 23.2282 7.78867C23.2282 8.33074 23.6761 8.80183 24.2155 8.79204C25.1401 8.77614 26.0672 8.74432 26.9943 8.74187C26.9992 9.77829 27.0148 10.8123 27.0196 11.8462C27.0244 12.3442 27.0268 12.8423 27.0244 13.3378C27.022 13.8224 26.9871 14.3033 26.9703 14.7842C26.9377 15.6566 26.9281 16.5278 26.9305 17.4003C26.9329 17.8836 26.9329 18.3682 26.945 18.8491C26.9594 19.3189 26.9992 19.7876 27.0184 20.255C27.0762 21.6218 27.1605 22.9862 27.1773 24.353C26.3008 24.3236 25.4267 24.2698 24.5502 24.2208C24.5357 24.2208 24.5213 24.2196 24.5068 24.2196C23.9614 24.2196 23.5135 24.7384 23.5135 25.2744C23.5135 25.2841 23.5183 25.2903 23.5183 25.3001C23.3161 25.4873 23.1836 25.7491 23.186 26.044C23.1884 26.6901 23.2017 27.335 23.2149 27.981C22.578 28.0067 21.9423 28.0067 21.3053 28.0006ZM29.158 29.7663C29.1255 29.7724 29.0941 29.7773 29.0616 29.7822C28.8208 29.8042 28.5776 29.8018 28.3356 29.8018C27.9792 29.8042 27.6216 29.8091 27.2652 29.8116C26.5621 29.8201 25.8577 29.8201 25.1546 29.8238C25.1365 29.3686 25.1353 28.9134 25.1462 28.4595C25.163 27.7559 25.1727 27.0523 25.1787 26.3475C25.8734 26.3732 26.5669 26.3989 27.2616 26.4013C27.6602 26.4013 28.0611 26.4062 28.4608 26.3891C28.7366 26.3768 29.0111 26.3267 29.2844 26.2728C29.2856 26.8553 29.3012 27.4365 29.3482 28.0177C29.3831 28.4607 29.4313 28.9012 29.4662 29.3442C29.4758 29.4763 29.4842 29.6109 29.4915 29.7443C29.4758 29.7443 29.4602 29.7382 29.4433 29.7382C29.353 29.7394 29.2579 29.7504 29.158 29.7663Z" fill="white"/>
</svg>
