<svg width="32" height="32" viewBox="0 0 32 32" fill="none" xmlns="http://www.w3.org/2000/svg">
<path d="M12.173 3.70608L12.6058 5.85645C10.7776 6.19865 9.05183 6.92923 7.55426 7.99493C6.05669 9.06064 4.82509 10.4346 3.94924 12.0166C3.07339 13.5987 2.57537 15.3489 2.4915 17.1397C2.40762 18.9305 2.74001 20.7168 3.46442 22.3683L1.37047 23.2207C0.513915 21.269 0.120732 19.1579 0.219595 17.0414C0.318459 14.9248 0.906877 12.8562 1.94193 10.9864C2.97699 9.11655 4.43259 7.49267 6.20256 6.23317C7.97253 4.97368 10.0123 4.11032 12.173 3.70608ZM5.54336 28.6292L6.99937 26.9435C9.2431 28.7447 12.0733 29.7292 14.9949 29.7248C17.997 29.7248 20.8314 28.7038 23.0755 26.8761L24.5465 28.5473C21.8783 30.726 18.4914 31.9194 14.9924 31.9137C11.5402 31.9185 8.19586 30.756 5.54336 28.6292ZM20.1285 6.69203C19.7206 7.70378 18.9441 8.53802 17.9439 9.03891C16.9437 9.5398 15.7883 9.67307 14.6935 9.41384C13.5986 9.15461 12.6393 8.52061 11.9947 7.63026C11.35 6.73991 11.0642 5.65412 11.1905 4.57572C11.3168 3.49733 11.8467 2.50008 12.6812 1.77027C13.5156 1.04047 14.5976 0.628028 15.7249 0.609992C16.8522 0.591957 17.9478 0.969564 18.8069 1.67227C19.6661 2.37498 20.2301 3.35473 20.3936 4.42849C22.7816 5.33096 24.8849 6.8154 26.4971 8.73619C28.1093 10.657 29.1751 12.9482 29.59 15.385C29.64 15.6836 29.6826 16.0785 29.7201 16.5698C29.7308 16.7119 29.7109 16.8546 29.6616 16.989C29.6123 17.1233 29.5348 17.2465 29.4338 17.3507C29.3328 17.4549 29.2106 17.5379 29.0748 17.5945C28.9389 17.6512 28.7924 17.6802 28.6444 17.6799C28.3429 17.68 28.0525 17.5704 27.8316 17.3729C27.6107 17.1755 27.4757 16.9049 27.4535 16.6155C27.2568 14.485 26.4746 12.4432 25.1874 10.6998C23.9001 8.95631 22.1541 7.57391 20.1285 6.69444V6.69203ZM15.803 7.66006C16.1625 7.67063 16.5207 7.61158 16.8561 7.48642C17.1915 7.36127 17.4974 7.17255 17.7556 6.93147C18.0139 6.69038 18.2192 6.40184 18.3594 6.08295C18.4996 5.76406 18.5718 5.42131 18.5718 5.07504C18.5718 4.72878 18.4996 4.38603 18.3594 4.06714C18.2192 3.74825 18.0139 3.45971 17.7556 3.21862C17.4974 2.97754 17.1915 2.78882 16.8561 2.66366C16.5207 2.53851 16.1625 2.47946 15.803 2.49003C15.1049 2.51054 14.4425 2.79188 13.9563 3.27442C13.47 3.75697 13.1981 4.4028 13.1981 5.07504C13.1981 5.74729 13.47 6.39312 13.9563 6.87566C14.4425 7.35821 15.1049 7.63955 15.803 7.66006ZM4.83537 29.8139C4.21704 29.8277 3.60208 29.7224 3.02663 29.5042C2.45118 29.286 1.92685 28.9593 1.48446 28.5432C1.04207 28.1272 0.690549 27.6302 0.450548 27.0816C0.210548 26.5329 0.0869141 25.9435 0.0869141 25.3482C0.0869141 24.7529 0.210548 24.1636 0.450548 23.6149C0.690549 23.0662 1.04207 22.5692 1.48446 22.1532C1.92685 21.7372 2.45118 21.4104 3.02663 21.1922C3.60208 20.974 4.21704 20.8687 4.83537 20.8825C6.06616 20.8825 7.24655 21.3532 8.11685 22.1909C8.98715 23.0286 9.47608 24.1647 9.47608 25.3494C9.47608 26.5341 8.98715 27.6703 8.11685 28.508C7.24655 29.3457 6.06616 29.8163 4.83537 29.8163V29.8139ZM4.83537 27.9356C5.18824 27.9357 5.53766 27.8688 5.86368 27.7389C6.1897 27.6089 6.48593 27.4184 6.73546 27.1783C6.98499 26.9381 7.18293 26.653 7.31798 26.3392C7.45303 26.0254 7.52253 25.6891 7.52253 25.3494C7.52253 25.0098 7.45303 24.6734 7.31798 24.3597C7.18293 24.0459 6.98499 23.7607 6.73546 23.5206C6.48593 23.2804 6.1897 23.0899 5.86368 22.96C5.53766 22.83 5.18824 22.7632 4.83537 22.7632C4.12282 22.7633 3.43949 23.0358 2.93567 23.5208C2.43185 24.0058 2.14881 24.6636 2.14881 25.3494C2.14881 26.0353 2.43185 26.6931 2.93567 27.1781C3.43949 27.6631 4.12282 27.9356 4.83537 27.9356ZM26.7505 29.8139C26.1322 29.8277 25.5173 29.7224 24.9418 29.5042C24.3664 29.286 23.842 28.9593 23.3996 28.5432C22.9573 28.1272 22.6057 27.6302 22.3657 27.0816C22.1257 26.5329 22.0021 25.9435 22.0021 25.3482C22.0021 24.7529 22.1257 24.1636 22.3657 23.6149C22.6057 23.0662 22.9573 22.5692 23.3996 22.1532C23.842 21.7372 24.3664 21.4104 24.9418 21.1922C25.5173 20.974 26.1322 20.8687 26.7505 20.8825C27.9813 20.8825 29.1617 21.3532 30.032 22.1909C30.9023 23.0286 31.3913 24.1647 31.3913 25.3494C31.3913 26.5341 30.9023 27.6703 30.032 28.508C29.1617 29.3457 27.9813 29.8163 26.7505 29.8163V29.8139ZM26.7505 27.9356C27.1034 27.9357 27.4528 27.8688 27.7789 27.7389C28.1049 27.6089 28.4011 27.4184 28.6506 27.1783C28.9002 26.9381 29.0981 26.653 29.2332 26.3392C29.3682 26.0254 29.4377 25.6891 29.4377 25.3494C29.4377 25.0098 29.3682 24.6734 29.2332 24.3597C29.0981 24.0459 28.9002 23.7607 28.6506 23.5206C28.4011 23.2804 28.1049 23.0899 27.7789 22.96C27.4528 22.83 27.1034 22.7632 26.7505 22.7632C26.038 22.7633 25.3547 23.0358 24.8508 23.5208C24.347 24.0058 24.064 24.6636 24.064 25.3494C24.064 26.0353 24.347 26.6931 24.8508 27.1781C25.3547 27.6631 26.038 27.9356 26.7505 27.9356Z" fill="white"/>
</svg>
