<svg width="32" height="32" viewBox="0 0 32 32" fill="none" xmlns="http://www.w3.org/2000/svg">
<g clip-path="url(#clip0_318_1490)">
<path d="M30.5795 6.0762H11.2862V5.31334C11.2862 4.19445 10.376 3.28418 9.25707 3.28418H6.10829C4.98941 3.28418 4.07914 4.19445 4.07914 5.31334V6.0762H0.898565C0.450277 6.0762 0.0869141 6.43968 0.0869141 6.88791C0.0869141 7.33614 0.450277 7.69956 0.898565 7.69956H4.07901V8.46218C4.07901 9.58106 4.98929 10.4913 6.10817 10.4913H9.25701C10.3759 10.4913 11.2862 9.58106 11.2862 8.46218V7.69956H30.5795C31.0278 7.69956 31.3911 7.33608 31.3911 6.88791C31.3912 6.43968 31.0278 6.0762 30.5795 6.0762ZM9.66293 8.46218C9.66293 8.68595 9.48085 8.86803 9.25707 8.86803H6.10823C5.88446 8.86803 5.70238 8.68595 5.70238 8.46218V5.31334C5.70238 5.08956 5.88446 4.90748 6.10823 4.90748H9.25707C9.48085 4.90748 9.66293 5.08956 9.66293 5.31334V8.46218Z" fill="white"/>
<path d="M30.5796 15.1165H27.3991V14.3534C27.3991 13.2345 26.4888 12.3242 25.3699 12.3242H22.2211C21.1022 12.3242 20.1919 13.2345 20.1919 14.3534V15.1165H0.898565C0.450277 15.1165 0.0869141 15.4799 0.0869141 15.9281C0.0869141 16.3764 0.450277 16.7398 0.898565 16.7398H20.1919V17.5022C20.1919 18.621 21.1022 19.5313 22.221 19.5313H25.3699C26.4888 19.5313 27.399 18.621 27.399 17.5022V16.7398H30.5795C31.0278 16.7398 31.3912 16.3763 31.3912 15.9281C31.3913 15.4799 31.0279 15.1165 30.5796 15.1165ZM25.7757 17.5022C25.7757 17.726 25.5937 17.9081 25.3699 17.9081H22.221C21.9973 17.9081 21.8152 17.726 21.8152 17.5022V14.3534C21.8152 14.1296 21.9973 13.9475 22.221 13.9475H25.3699C25.5937 13.9475 25.7757 14.1296 25.7757 14.3534V17.5022Z" fill="white"/>
<path d="M30.5796 24.8211H16.9883V24.0585C16.9883 22.9396 16.0781 22.0293 14.9592 22.0293H11.8103C10.6914 22.0293 9.78117 22.9396 9.78117 24.0585V24.8211H0.898565C0.450277 24.8211 0.0869141 25.1846 0.0869141 25.6327C0.0869141 26.0809 0.450277 26.4444 0.898565 26.4444H9.78111V27.2072C9.78111 28.3261 10.6914 29.2364 11.8103 29.2364H14.9591C16.078 29.2364 16.9883 28.3261 16.9883 27.2072V26.4444H30.5795C31.0278 26.4444 31.3912 26.0809 31.3912 25.6327C31.3913 25.1844 31.0279 24.8211 30.5796 24.8211ZM15.365 27.2073C15.365 27.4311 15.1829 27.6131 14.9591 27.6131H11.8103C11.5865 27.6131 11.4044 27.4311 11.4044 27.2073V24.0585C11.4044 23.8347 11.5865 23.6526 11.8103 23.6526H14.9591C15.1829 23.6526 15.365 23.8347 15.365 24.0585V27.2073Z" fill="white"/>
</g>
<defs>
<clipPath id="clip0_318_1490">
<rect width="31.3043" height="31.3043" fill="white" transform="translate(0.0869141 0.608398)"/>
</clipPath>
</defs>
</svg>
